<?xml version="1.0" encoding="UTF-8"?>
<!DOCTYPE svg PUBLIC "-//W3C//DTD SVG 1.1//EN" "http://www.w3.org/Graphics/SVG/1.1/DTD/svg11.dtd">
<!-- Creator: CorelDRAW 2021 (64-Bit) -->
<svg xmlns="http://www.w3.org/2000/svg" xml:space="preserve" width="210mm" height="297mm" version="1.1" style="shape-rendering:geometricPrecision; text-rendering:geometricPrecision; image-rendering:optimizeQuality; fill-rule:evenodd; clip-rule:evenodd"
viewBox="0 0 21000 29700"
 xmlns:xlink="http://www.w3.org/1999/xlink"
 xmlns:xodm="http://www.corel.com/coreldraw/odm/2003">
 <defs>
  <style type="text/css">
   <![CDATA[
    .fil5 {fill:#FEFEFE}
    .fil6 {fill:#C1BFB9}
    .fil1 {fill:#F9DFD0}
    .fil3 {fill:#D2629E}
    .fil2 {fill:#A857A8}
    .fil4 {fill:#A5AAE0}
    .fil8 {fill:#685D50}
    .fil0 {fill:#7390C3}
    .fil7 {fill:#213E79}
   ]]>
  </style>
 </defs>
 <g id="Camada_x0020_1">
  <metadata id="CorelCorpID_0Corel-Layer"/>
  <g id="_2948185616992">
   <path class="fil0" d="M5018.57 18782.09c-74.64,164.2 -164.2,298.57 -268.65,387.96 -164.17,193.98 -373.07,477.52 -403.01,701.46 -119.18,-149.3 -283.38,-253.54 -402.88,-283.65 -567.05,-567.08 -1119.21,-701.33 -1447.45,-686.25 -238.84,-223.94 -417.93,-328.42 -626.8,-268.64 -223.8,59.41 -417.78,373.05 -402.89,865.48 0,328.4 59.6,1014.93 507.31,1357.93 59.78,238.84 0,283.65 179.09,432.97 149.31,358.03 104.45,939.97 984.85,1193.73 567.21,179.06 1746.03,-208.9 2522.12,-417.96 447.59,-149.12 1611.67,-462.44 2387.77,-566.91 910.18,89.39 2268.25,447.74 3148.65,59.61 387.96,701.44 910.34,1059.46 1910.02,1238.74 985.06,178.74 1567.14,0 1432.72,-432.82 -179.04,-477.7 -387.96,-835.7 -477.67,-925.42 1328.16,298.56 2522.02,1194.04 3447.38,1164.26 686.59,-104.49 1074.38,-686.58 1163.95,-1119.25 193.99,-149.45 283.69,-298.6 283.69,-432.82 343.12,-208.9 924.89,-1596.76 298.25,-2283.32 -358.17,-403.06 -1417.49,209.05 -1954.73,716.36 -298.6,-104.59 -656.64,-59.58 -835.7,89.39 -209.04,-537.24 -716.36,-1014.61 -1194.04,-1074.39 15.02,-477.52 -178.95,-1671.56 -566.93,-2238.42 -74.79,-970.12 -387.96,-1611.67 -611.87,-1775.72 0.01,-238.85 -30,-403.14 -44.71,-477.67 343.11,-253.72 89.52,-1089.25 -447.74,-1014.76 -537.28,-462.62 -969.95,-1283.4 -1208.8,-1835.56 29.69,-149.14 44.7,-686.42 -29.77,-969.95 791,1014.81 1999.64,1417.8 2447.31,1775.82 432.68,373.09 1552.08,910.34 2223.41,2731.03 -328.33,-2492.19 -1999.58,-3850.21 -2447.32,-4208.4 -447.57,-373.1 -1999.43,-1298.19 -2402.47,-1447.47 -447.72,-343.26 -1119.07,-835.7 -1850.51,-1044.72 -865.48,0 -2208.64,522.34 -2507.04,1089.42 -447.74,537.29 -850.62,1044.76 -1238.59,1358.08 -373.25,313.32 -1492.46,940.12 -1880.43,1253.44 -999.74,701.44 -1745.88,2372.85 -1566.95,3506.95 253.73,-1507.22 1179.12,-2059.37 1984.88,-2596.61 805.86,-537.25 2134.01,-1208.75 2626.43,-2119.09 -29.82,537.25 104.42,1029.68 253.72,1507.36 -119.34,537.08 -447.74,1342.95 -701.46,1656.12 -492.42,209.2 -1656.51,1537.19 -1865.37,2223.72 -223.79,761.05 -149.15,1029.68 -14.89,1507.03 -74.67,149.5 -134.26,567.24 -253.6,984.98 0,0 104.45,104.64 14.92,223.98 0,0 0,134.37 -164.2,193.98z"/>
   <path class="fil1" d="M10793.81 12693.56c-925.26,268.62 -1805.82,1104.34 -1940.03,1820.7 -253.77,14.68 -1089.45,179.06 -89.57,1014.59 313.34,1223.66 1790.75,1790.91 3268.28,1358.09 686.27,-208.9 2342.75,-1343.02 2029.26,-2850.2 283.71,-716.54 -44.53,-1223.84 -716.04,-955.2 -462.75,-208.92 -1328.25,-731.29 -2551.9,-387.98z"/>
   <path class="fil2" d="M7689.85 10544.64c-358.18,746.14 -1895.32,1671.41 -2447.49,1984.72 -567.08,328.35 -1969.83,1104.34 -2074.28,2671.26 29.81,432.65 268.65,402.87 597.02,0 611.75,-611.72 2104.06,-1746.04 2581.59,-2134.01 462.6,-403.05 1208.74,-1417.64 1343.16,-2521.97z"/>
   <path class="fil2" d="M12465.22 10708.83c492.38,1417.65 1134.08,1760.77 2014.49,2298.07 1820.68,865.46 2148.88,1940 2521.96,2074.22 134.28,-134.22 -104.42,-775.94 -313.32,-1119.02 -238.82,-462.68 -865.64,-1432.74 -1850.62,-1954.95 -1014.65,-537.25 -2029.25,-1238.69 -2461.92,-1805.76 29.61,298.56 89.39,507.46 89.41,507.44z"/>
   <path class="fil3" d="M5675.18 22020.42c-253.73,193.82 -537.27,641.72 -522.38,835.7 44.86,373.1 1716.09,29.78 2238.65,-387.96 208.83,-149.28 671.33,-313.32 910.16,-313.32 238.86,0 791.02,164.04 925.22,402.72 581.99,-238.68 656.63,-1133.99 208.89,-1343 -14.91,-59.63 -44.69,-179.12 -89.55,-208.9 417.96,-537.31 387.96,-1163.93 209.06,-1283.45 -238.84,-179.06 -850.62,492.6 -1074.54,805.92 74.64,-462.6 850.61,-1298.3 492.43,-2626.44 -238.83,895.48 -358.18,1328.14 -761.07,1656.5 -193.96,462.49 -328.22,850.6 -746.14,1193.71 -358.18,-268.62 -1298.35,-880.39 -1656.49,-835.71 -358.18,59.78 -671.51,597.19 -14.89,1626.55 -59.6,223.98 -59.6,373.26 -119.35,477.68z"/>
   <path class="fil0" d="M5167.85 18379.23c313.35,44.84 1149.05,-283.39 1447.46,-358.2 0,0 89.56,253.6 149.12,387.96 -313.32,104.64 -969.9,492.62 -1402.57,611.79 -835.7,223.76 -1343.19,-104.42 -1596.76,-417.81 14.73,-44.64 14.73,-89.34 29.81,-149.11 134.23,-0.01 447.55,-253.71 507.3,-313.64 29.81,30.1 59.75,74.96 104.45,119.49 0,0 -104.45,194.15 119.5,373.26 238.68,193.82 626.64,193.82 641.69,-15.08 0,0 119.34,-149.12 0,-238.66z"/>
   <path class="fil4" d="M5600.54 21214.56c-328.24,89.5 -626.67,746.14 -1358.08,790.84 -313.32,15.02 -701.31,89.5 -1178.8,-1462.34 -402.88,-1074.54 -1253.48,-1940.09 -1581.88,-1029.69 -14.89,328.36 -14.89,910.34 477.53,1372.79 44.85,149.28 74.67,283.7 223.79,417.9 89.53,462.66 313.48,1164.1 1134.29,1238.58 940.12,-29.78 1910.05,-343.26 2402.48,-522.21 29.95,-134.39 29.95,-402.72 89.55,-492.39 -104.46,-134.25 -208.88,-313.48 -208.88,-313.48z"/>
   <path class="fil4" d="M8450.91 20483.28c372.88,-268.47 790.84,-940.13 1119.23,-761.07 313.33,193.98 29.78,984.98 -238.84,1313.23 74.65,74.48 119.34,104.59 89.51,179.12 89.56,14.86 298.45,268.77 298.45,477.68 328.41,74.48 1178.8,0 1477.42,-134.42 552.16,1298.3 2566.84,1462.5 3088.89,1208.58 -611.61,-432.66 -1133.84,-223.76 -1417.53,-298.24 -283.33,-74.64 -955,-462.76 -1074.56,-1193.71 -89.33,-477.7 89.56,-1716.26 179.12,-2208.65 89.58,-492.61 179.23,-984.99 253.76,-1388.03 238.86,-164.2 313.32,-253.59 417.74,-358.01 -14.75,-283.55 -164.04,-298.63 -268.29,-313.32 -15.08,-74.65 -45.03,-194.15 -59.95,-253.93 -865.64,373.08 -2387.7,477.69 -3297.89,-626.63 -44.85,44.69 -179.1,223.92 -283.69,253.75 -208.89,-477.53 -566.91,-865.86 -1163.93,-850.78 656.58,268.79 805.92,1328.3 805.92,1790.91 0,462.43 29.78,1671.23 -462.66,2268.1 -462.6,119.49 -1029.69,-925.11 -1164.06,-1178.87 -89.54,29.84 -298.44,119.51 -432.65,193.98 -44.85,417.81 164.19,1268.54 223.77,1552.06 268.62,149.19 716.36,432.84 955.2,582.16 268.46,-119.49 925.09,283.34 955.04,-253.91z"/>
   <path class="fil0" d="M7495.87 20737.19c343.1,-223.81 686.4,-955.2 716.18,-1194.04 387.96,-208.9 671.51,-1044.6 731.24,-1656.17 343.15,342.95 0,1924.79 -492.38,2596.3 -29.94,134.42 0,208.9 -134.42,239.01 -149.12,14.9 -268.46,89.39 -387.96,14.9 -119.34,-59.93 -328.25,-74.64 -432.66,0z"/>
   <path class="fil4" d="M14613.92 17439.09c194.14,387.96 253.9,1716.1 -29.79,2700.93 89.71,74.79 238.84,74.79 298.62,15.01 417.75,880.41 1432.67,1596.77 2074.22,1447.65 611.78,-343.31 775.98,-1208.79 984.82,-1597.08 208.91,-387.65 835.55,-1298.15 1432.72,-1103.99 328.4,522.36 89.41,1910.07 -432.64,2178.69 -30.11,164.04 -134.38,313.49 -268.79,417.91 -29.77,298.29 -596.87,1029.68 -969.97,1074.37 -1178.79,164.2 -2626.38,-1029.84 -3566.55,-1089.25 -164.15,-134.42 -358.18,-313.47 -537.26,-358.33 -14.9,-119.34 -29.78,-253.61 -104.42,-328.25 164,-59.56 313.5,-313.47 343.11,-447.89 -29.61,-163.83 -208.89,-372.89 -193.98,-492.23 462.77,-775.97 716.36,-1566.97 969.91,-2417.54z"/>
   <path class="fil5" d="M8674.67 11380.35c0,238.67 104.47,955.05 522.38,925.2 328.23,-29.95 477.52,-969.9 193.98,-1656.43 -209.06,119.34 -567.24,358.18 -716.36,731.23z"/>
   <path class="fil5" d="M10674.47 10291.09c328.18,0 820.78,193.83 1029.67,358.03 149.12,313.32 119.51,895.43 -104.47,999.85 -298.55,74.47 -835.7,-492.55 -925.2,-1357.88z"/>
   <path class="fil6" d="M4884.17 18215.17c-134.25,-44.85 -656.44,-89.66 -447.57,298.46 193.98,372.9 746.17,298.24 746.17,104.26 0,0 119.34,-298.23 -298.6,-402.72z"/>
   <path class="fil7" d="M10286.36 15170.82c29.92,14.77 44.79,14.77 74.62,29.8 149.29,89.39 209.01,223.81 193.98,268.84 -44.69,59.37 -149.12,59.39 -268.62,14.7l0.02 -74.66c89.65,44.86 149.26,59.96 179.04,14.93 14.92,-29.85 -44.69,-119.5 -134.25,-178.95 -14.87,0 -29.95,0 -44.81,-15.03l0.02 -59.63zm-238.69 14.77c29.78,-44.53 119.33,-59.45 238.67,-14.75l0.02 59.61c-89.57,-29.85 -149.36,-29.83 -164.05,0 -29.98,44.81 14.69,104.59 119.33,164.15 14.87,-0.02 29.78,14.92 44.7,14.92l0.02 74.62c-14.93,-14.68 -29.85,-14.68 -59.63,-29.76 -149.28,-74.66 -208.9,-194.15 -179.06,-268.79l0 0z"/>
   <path class="fil7" d="M12718.76 14305.18c74.79,-44.68 119.5,-59.6 149.28,-44.68 59.93,29.78 29.82,148.95 -44.66,283.38 -29.83,45.02 -59.93,89.55 -104.64,119.5l0.02 -89.42c15.08,-15.02 29.76,-30.08 44.69,-59.7 59.95,-89.73 104.59,-179.28 59.93,-194.15 -14.9,-14.93 -59.93,0 -104.64,44.96l0.02 -59.89zm-149.12 402.87c-44.86,-29.78 -44.88,-149.11 29.93,-283.52 44.55,-59.46 89.39,-89.55 119.17,-119.35l0.02 59.89c-14.7,14.75 -44.7,44.38 -59.58,89.41 -59.61,89.39 -59.61,164.2 -44.86,164.2 29.8,14.73 59.74,0 104.42,-44.71l0.02 89.39c-44.7,44.69 -104.44,59.74 -149.14,44.71l0.02 -0.02z"/>
   <path class="fil7" d="M18255.29 21214.56c149.32,-74.55 537.13,-328.4 716.19,-850.62 0,0 -44.64,29.95 -59.72,74.63 -29.63,74.81 -208.9,403.04 -656.47,775.99z"/>
   <path class="fil7" d="M18926.84 19931.12c0,15.07 0,44.85 -15.08,119.49 -29.63,134.42 -298.31,775.93 -611.62,955.05 89.57,-89.56 522.21,-626.65 626.7,-1074.54z"/>
   <path class="fil7" d="M1824.92 19901.34c15.04,89.49 149.28,402.88 328.37,492.55 -59.58,-59.74 -238.81,-283.54 -283.51,-477.7 -14.89,-44.68 -59.6,-29.78 -44.86,-14.85z"/>
   <path class="fil7" d="M2287.71 20662.55c14.89,14.71 0,29.63 -29.97,14.71 -313.32,-223.76 -358.03,-358.03 -402.85,-447.74 59.59,74.7 223.76,283.86 432.82,433.03z"/>
   <path class="fil7" d="M12107.04 11589.24c119.34,238.84 -44.88,462.61 -283.39,477.52 -194.13,0 -447.9,-104.47 -656.8,-462.49 89.56,44.7 328.4,388.01 701.18,372.93 239.01,-14.92 223.91,-358.16 239.01,-387.96z"/>
   <path class="fil7" d="M9435.73 12245.82c14.91,268.62 -253.76,716.38 -492.44,686.59 -164.15,-14.92 -223.76,-223.82 -193.98,-298.61 29.83,44.68 89.56,208.88 193.98,208.88 104.48,0 343.15,-104.46 492.44,-596.86z"/>
   <path class="fil7" d="M8167.37 9932.91c-14.92,-253.76 223.76,-611.92 268.46,-626.84 44.86,-29.96 59.78,-15.03 44.86,14.92 -14.92,44.68 -223.76,298.45 -313.32,611.92z"/>
   <path class="fil7" d="M11002.65 8828.61c119.34,74.46 328.23,238.62 373.1,402.82 -253.76,-283.71 -567.08,-507.3 -850.57,-477.52 -59.77,14.92 -59.78,-44.86 14.87,-59.72 104.47,-14.94 283.53,0 462.6,134.42z"/>
   <path class="fil7" d="M10331.15 9395.61c522.23,-89.56 865.53,149.14 1193.88,492.46 89.72,89.5 104.47,59.72 104.47,59.72 -194.12,-701.46 -746.36,-1074.54 -1208.79,-940.3 -14.86,15.08 283.54,59.74 283.54,74.66 0,29.76 -328.24,59.78 -313.49,89.56 0.02,29.77 238.84,104.42 194.15,89.56 -59.72,-0.01 -208.9,29.77 -253.76,134.34z"/>
   <path class="fil7" d="M9585.01 11395.26c0,-179.12 -44.86,-462.65 -119.34,-701.33 29.78,0 59.61,0 59.61,14.92 44.87,-0.02 59.73,-89.56 14.87,-119.34 -29.78,-15.09 -74.48,-15.08 -119.34,-15.08 -74.64,-179.07 -179.06,-298.4 -313.32,-298.4 -29.94,-0.01 -59.73,15.08 -74.64,15.08l0 89.33c14.92,-14.86 44.7,-29.77 74.64,-29.77l0 -0.02c89.56,0 178.95,104.44 238.68,253.61 -89.34,29.94 -208.85,89.67 -313.32,179.23l0 850.61c0,0 14.91,0.01 29.94,0.01 149.18,-0.01 268.51,-193.98 268.51,-447.74 0,-164.2 -59.61,-313.48 -149.33,-387.96 74.86,-44.86 164.2,-59.78 209.06,-74.65 238.67,686.37 104.42,1492.29 -193.98,1522.07 -59.73,14.86 -119.5,0 -164.2,-14.87l0 119.28c44.7,15.09 89.56,30.01 149.12,15.09 268.67,-29.95 432.82,-447.85 403.04,-970.07l0 0zm-552.16 -1104.17c-238.84,119.19 -432.84,641.52 -403.04,1133.95 -29.8,104.42 -59.56,209.07 -74.48,343.27 29.78,-74.65 59.61,-149.27 89.56,-208.85 59.72,477.52 208.89,716.16 387.96,790.79l0 -119.29c-209.06,-104.48 -298.57,-432.65 -328.24,-805.92 29.68,-59.78 59.6,-119.33 89.39,-164.03 15.09,193.97 119.51,343.26 238.85,373.1l0 -850.64c-134.2,104.5 -238.85,253.61 -328.24,447.59 0,-373.09 149.17,-746.14 328.24,-850.61l0 -89.36z"/>
   <path class="fil7" d="M11913.04 10828.19c-45.01,-74.64 -119.56,-149.28 -194.03,-223.93 -119.32,-268.51 -358.18,-552.16 -597.02,-686.41l0 89.55c179.13,119.49 373.26,328.35 447.73,477.52 -119.5,-74.64 -283.37,-149.17 -447.73,-208.89l0 776.08c44.86,14.75 74.69,29.83 119.35,29.83 223.98,-44.86 238.99,-358.18 164.2,-581.99 74.79,44.69 194.13,119.34 268.62,164.04 164.19,298.45 89.54,895.47 -134.38,925.26 -134.24,15 -283.37,-59.78 -417.79,-208.9l0 104.42c164.36,149.33 328.23,223.81 477.68,208.9 208.9,-44.7 328.25,-462.61 164.03,-984.82 59.95,44.7 104.33,74.64 149.34,119.34zm-791.05 -910.35c-89.51,-59.72 -178.9,-89.55 -238.85,-89.55 -163.79,-0.02 -253.54,149.28 -253.54,403.04 -14.89,14.9 -44.69,14.92 -59.61,29.78 -59.72,14.91 -59.72,89.56 14.92,89.56 0,-14.92 44.69,0 59.61,0 59.73,492.43 253.54,895.42 477.47,1134.1l0 -104.42c-193.82,-223.93 -358.02,-596.86 -402.66,-1044.6 59.41,0 104.25,0 178.73,14.92 -74.47,238.82 59.94,596.86 223.93,701.44l0 -776.09c-149.12,-44.69 -283.32,-59.77 -417.74,-44.69 0,-149.29 44.69,-253.76 119.33,-298.4l0.01 -0.02c74.47,-44.86 179.06,0.02 298.4,74.5l0 -89.57z"/>
   <path class="fil7" d="M17106.11 22662.14c104.79,14.92 223.96,29.78 328.38,29.78 865.65,-14.86 1298.47,-1044.54 1328.15,-1223.66 134.21,-104.42 223.91,-253.7 268.62,-402.71 373.27,-343.26 507.45,-836.03 522.2,-1268.85 29.97,-641.51 -89.54,-1074.22 -492.27,-1178.81 -432.82,-89.39 -1178.96,298.47 -1746.04,820.78 -59.87,-29.62 -134.36,-59.71 -209.06,-59.71l0.02 104.57c44.86,14.92 74.68,14.92 119.48,44.87 -44.8,44.54 -89.66,89.57 -119.5,134.25l0.02 104.42c537.44,-552.16 1447.62,-1178.96 1955.08,-1074.69 89.56,30.09 164.05,89.71 238.68,179.44 -537.23,-149.35 -1298.3,880.56 -1372.94,1089.4 -44.68,-45.03 -74.48,-89.71 -119.49,-149.45 -14.91,-59.4 -74.49,59.74 -59.47,89.57 14.76,29.78 59.47,104.26 134.26,149.27 -104.48,298.25 -418.11,1149.03 -776.14,1447.6l0.02 59.61c417.96,-298.45 716.34,-1208.96 820.82,-1477.25 74.64,29.76 134.36,44.53 208.84,-29.96 -29.78,0 -104.42,-14.92 -163.82,-59.78 119.18,-253.54 835.54,-1253.42 1357.55,-1059.44 89.73,149.27 149.5,447.57 119.5,865.31 -104.42,1447.64 -1193.73,1597.09 -1313.23,1701.51 268.84,-44.97 492.6,-134.37 671.72,-253.87 -164.18,343.26 -626.69,388.12 -910.51,403.04 268.79,59.71 522.49,14.7 716.47,-89.56 -164.29,432.64 -582.1,955.04 -1134.26,999.74 -134.24,-0.01 -253.6,0 -373.1,-29.67l0.02 134.25zm0 -7625.74c15.06,-74.79 29.82,-179.06 -0.02,-343.08l0.02 343.08zm-2178.71 6730.32c820.83,298.4 1537.19,761.17 2178.69,895.42l0.02 -134.26c-596.87,-89.66 -1238.54,-522.48 -2178.72,-880.5l0.01 119.34zm2178.71 -2387.76c-179.08,-29.79 -387.98,0 -596.87,119.49 -447.69,-820.78 -954.84,-984.82 -1178.8,-1029.68 15.08,-656.8 -134.37,-1357.91 -403.05,-1925.15l0.01 268.67c238.68,656.58 507.51,1954.9 -0.01,3103.9l0.01 194.14c223.98,-402.98 373.09,-940.28 403.04,-1507.36 178.95,14.92 626.64,59.78 1104.32,940.18l0 0c-149.43,104.42 -313.49,253.55 -477.68,447.68 223.98,-119.32 597.02,-611.87 1149.01,-507.28l0.02 -104.59zm-2178.71 -6058.76c611.94,358.34 1238.57,791 1790.73,1597.1 119.36,178.73 328.24,298.24 387.96,119.12l0.02 -343.1c-14.72,-29.96 -14.72,-59.89 -14.72,-89.72 -373.26,-1850.31 -1253.65,-3074.13 -2164,-3909.67l0.01 194.04c880.56,835.47 1716.25,2014.45 2074.27,3730.71 -432.66,-1343.01 -1223.51,-2059.54 -2074.28,-2611.53l0.01 119.33c865.53,567.08 1686.31,1343.17 2089.35,2790.82 14.72,59.39 0,268.29 -253.76,-104.64l0 0c-522.38,-775.92 -1178.96,-1208.59 -1835.6,-1596.92l0.01 104.46zm2178.71 6342.45l0 104.42c-134.2,134.27 -238.53,268.62 -313.34,387.96 59.78,-164.2 179.12,-328.18 313.32,-492.38l0.02 0zm0 1835.56l0 59.61c-44.66,14.92 -74.66,44.86 -119.19,59.89 -15.01,104.31 -44.81,178.79 -59.89,193.87 -15.07,-44.86 -29.78,-104.49 -29.78,-179.12 -44.7,0 -104.48,0 -149.12,0 -45.01,104.42 -89.39,208.9 -104.48,253.6 -15.06,-44.7 -15.06,-119.34 0,-253.6 -223.9,-14.75 -612.04,-179.22 -925.42,-403.04 -59.55,45.01 -119.5,134.42 -208.84,238.84l0 -15.02c0,-74.54 29.94,-193.87 119.5,-298.31 -268.62,-223.76 -522.38,-507.45 -701.5,-880.56l0.01 -104.26c194.2,402.73 462.49,716.05 746.34,954.89 29.63,-29.78 74.49,-59.45 119.19,-74.49 44.81,-29.99 59.72,59.41 44.81,89.52 -15.03,14.9 -44.81,29.83 -74.48,59.61 298.29,208.9 671.5,373.1 895.48,387.96 0,-44.86 14.7,-104.27 44.38,-149.28 15.01,-59.62 89.65,-44.53 89.65,14.92 0,30.09 -14.86,74.8 -29.78,134.36 44.72,0 89.56,0 119.5,-14.86 0.01,-59.78 14.76,-119.5 14.76,-134.42 0,-29.78 59.72,-59.62 74.64,14.92 15.03,44.97 29.78,74.8 29.78,104.58 29.8,-15.08 59.78,-29.78 104.42,-59.61l0.02 0zm-2178.71 -2357.94l0 -29.78c0,14.86 14.91,29.78 -0.01,29.78l0.01 0zm-1044.56 3745.63c373.06,-29.78 656.58,-119.5 701.29,-283.32 74.81,-253.92 -104.42,-686.58 -358.03,-1029.84 238.86,44.97 477.52,119.5 701.29,193.98l0.01 -119.34c-268.46,-89.56 -537.25,-194.14 -850.73,-268.68 -59.45,-74.64 -134.09,-134.36 -193.83,-179.06l0 134.24c373.06,328.2 701.29,999.86 641.73,1238.7l0 0c-29.83,59.78 -104.64,104.48 -208.91,149.18 -164.18,-74.7 -313.47,-134.11 -432.82,-179.12l0 59.94c104.44,44.48 208.91,89.34 328.25,148.96 -89.39,14.86 -208.9,29.94 -328.25,45.02l0 89.34zm1044.56 -6342.29c-59.58,-119.34 -119.36,-223.76 -179.07,-328.18 -44.71,-611.94 -208.91,-1208.79 -611.77,-1775.83 0,-119.49 0,-268.66 -29.78,-388.18 149.12,-253.52 238.68,-955.2 -223.94,-1074.37l0 134.27c283.39,149.43 283.39,626.8 178.91,850.78l0.01 0c-44.54,-119.52 -104.43,-238.84 -178.92,-358.03l0 148.95c223.94,417.9 178.91,880.41 0,1343.01l0 298.55c134.38,-238.84 223.94,-507.44 253.72,-761.15 955.04,1417.8 313.52,3477.16 -253.72,4685.9l0 223.82c268.64,-522.37 582.12,-1238.41 745.99,-2029.58 134.42,432.82 149.43,969.9 104.58,1432.72 -59.57,44.7 -119.5,59.73 -208.84,44.7 44.81,29.79 104.26,89.67 208.84,59.74 -15.02,59.76 -15.02,119.32 -15.02,164.18 -44.55,29.63 -104.48,44.7 -178.97,29.63 44.72,59.93 104.49,59.93 164.2,59.93 -29.78,253.72 -104.42,596.87 -134.24,761.06 -15.02,104.58 44.53,179.06 193.87,163.99 -134.42,223.98 -313.17,403.03 -522.05,597.02 178.74,-74.64 462.42,-343.26 641.55,-626.8 14.85,15.07 29.78,44.85 44.64,74.63l0.01 -104.26c0,-15.08 -14.87,-15.08 -14.87,-30.09 0.01,-14.92 14.86,-14.92 14.86,-29.67l0.01 -194.16c-29.8,74.64 -74.65,164.38 -119.36,238.84 -44.79,15.08 -134.2,0 -164.13,0 -44.71,0 59.71,-522.21 119.34,-880.34 59.73,-30.15 134.35,-74.53 164.14,-134.42l0.01 -29.78c-14.86,-14.92 -59.58,-44.69 -74.65,-14.9 -15,-0.02 -44.71,44.68 -89.5,89.54 15.03,-59.78 15.01,-104.47 15.01,-164.35 44.72,-14.76 74.49,-59.61 119.34,-104.42 44.72,-44.54 -29.78,-89.57 -59.87,-74.53 -14.75,29.99 -29.69,44.7 -44.39,59.78 29.64,-492.62 14.7,-1074.56 -134.4,-1507.38 59.45,-313.32 104.31,-641.72 104.31,-954.87l0 -0.02c44.81,59.47 104.57,193.84 164.14,372.95l0.01 -268.68zm-1044.56 -3835.02l0 -149.45c328.25,238.84 686.54,432.84 1044.55,656.6l0.01 104.46c-358.02,-208.88 -716.31,-387.79 -1044.56,-611.61l0 0zm1044.56 -2014.66c-358.02,-313.49 -701.3,-582.1 -1044.56,-791l0 149.17c343.28,238.99 701.29,507.46 1044.55,835.87l0.01 -194.04zm0 1313.21l0 119.34c-343.26,-238.84 -701.3,-432.81 -1044.56,-641.71l0 -119.51c343.28,209.07 701.29,403.05 1044.55,641.89l0.01 -0.01zm-1044.56 1462.5l0 -104.58c44.72,-29.84 104.42,-44.86 119.35,-14.9 -44.85,29.93 -74.64,59.71 -119.35,119.48zm-1402.76 9252.11c462.61,149.29 984.98,194.15 1402.76,164.15l0 -89.34c-402.71,14.86 -940.16,-59.78 -1402.78,-208.91l0.02 134.1zm1402.76 -9744.71c-59.76,-14.86 -134.41,-29.77 -223.97,-14.84 -432.65,-268.64 -1029.52,-1223.67 -1178.81,-1731.14l0.02 268.62c208.9,447.74 611.77,1193.88 1029.51,1477.37 -59.56,14.91 -119.17,29.85 -193.98,59.78 -223.76,-134.43 -507.13,-268.79 -835.55,-358.35l0.02 89.56c328.4,104.58 626.62,253.72 850.6,388.14 253.72,-119.36 432.84,-119.35 552.16,-44.86l0 -134.28zm-1402.76 -1969.76l0 -417.79c253.76,984.84 776.12,1537 1402.76,1969.65l0 149.45c-582.14,-388.13 -1074.36,-880.51 -1402.78,-1805.76 0.02,29.77 0,59.61 0,104.47l0.02 -0.02zm1402.76 -1104.35c-552.14,-358.18 -1059.46,-596.86 -1402.78,-775.92l0.02 119.32c358.18,179.08 865.63,432.84 1402.76,805.77l0 -149.17zm0 1462.33l0 119.51c-313.3,-193.99 -611.94,-373.05 -895.46,-596.8 -208.84,-164.21 -387.81,-328.41 -507.32,-477.69l0.02 -164.05c134.26,179.06 298.44,358.03 552.16,552.18 253.76,208.87 552.16,387.96 850.6,566.87l0 -0.02zm0 1999.8l0 104.58c-15.06,14.92 -44.85,29.79 -59.78,44.72 14.93,29.76 44.71,59.56 59.78,89.71l0 148.95c-29.92,-59.62 -59.78,-104.62 -104.46,-164.03 -29.95,44.71 -89.34,119.35 -104.42,149.13 -29.95,-164.2 104.42,-313.5 208.88,-373.06l0 0zm0 1730.97l0 298.55c-313.3,582.01 -850.6,1074.4 -1402.78,1357.93l0.02 -119.34c596.86,-328.25 1149.02,-910.17 1402.76,-1537.14l0 0zm0 4223.3l0 223.82c-74.46,119.5 -134.41,238.84 -193.8,343.26 14.7,179.12 178.73,313.33 178.73,462.45 0.01,223.98 -119.34,403.04 -328.23,477.68 59.78,44.85 119.33,149.34 104.47,239.01 74.63,29.67 149.27,74.48 238.83,134.09l0 134.24c-119.32,-104.46 -238.83,-178.95 -343.3,-178.95 -492.38,-59.71 -850.58,358.03 -969.92,447.75 119.36,-179.11 507.3,-597.02 985,-552.17 14.92,-89.56 -45.03,-164.35 -89.56,-194.13 -432.82,134.35 -746.32,149.28 -835.71,119.5 432.67,-89.72 1089.29,-194.2 1149.03,-596.87 14.92,-164.2 -119.51,-283.69 -149.28,-403.04 -74.48,134.36 -148.97,238.84 -194,298.4 74.5,0 194,-29.78 179.12,15.08 0,44.7 -447.74,238.68 -1134.16,-283.85l0.02 -29.63c567.08,298.4 790.82,298.4 880.54,298.4 104.45,-149.27 298.25,-477.67 522.22,-955.04l0 0zm0 3223.31l0 59.94c-596.84,-209.06 -835.7,-45.02 -1119.39,-134.42 -89.39,-45.02 -193.83,-89.39 -283.39,-149.28l0.02 -74.48c89.56,74.48 193.98,119.34 298.44,163.98 283.5,104.48 477.68,-74.64 1104.32,134.26l0 0zm-1402.76 -4998.96c358.18,-343.27 656.79,-701.61 776.12,-1134.43 -149.48,313.48 -358.34,582.27 -597.02,806.08 0.02,-59.94 -15.08,-89.72 -44.86,-134.42 44.88,-14.92 74.64,-29.94 89.72,-44.7 29.8,-15.08 14.7,-74.8 -29.98,-44.69 -29.94,14.92 -74.49,29.61 -119.52,44.69 -14.86,-15.08 -44.7,-29.77 -74.48,-29.77l0.02 59.55c14.92,0 14.9,14.92 29.76,14.92 -14.84,14.86 -29.78,14.87 -29.78,29.95l0.02 44.53c14.92,-14.75 44.68,-29.78 74.46,-29.78 30.17,29.78 45.03,74.81 59.78,149.28 -44.68,44.86 -89.56,89.56 -134.26,119.34l0.02 149.45zm0 -552.18l0 -74.79c104.63,-59.56 179.1,-104.42 208.88,-134.09 -29.76,59.45 -104.26,134.09 -208.88,208.88zm-581.95 5476.66c179.06,104.42 373.04,193.98 581.93,253.6l0.02 -134.11c-208.91,-74.79 -417.92,-164.51 -581.96,-268.77l0.01 149.28zm581.95 -11237.1c-14.86,-29.78 -14.88,-59.61 -29.8,-89.56 14.94,-44.69 29.78,-89.39 29.78,-134.2l0.02 -417.81c-14.86,-89.54 -44.88,-164.18 -59.89,-253.74 15.03,29.83 45.01,44.7 59.87,74.53l0.02 -164.05c-268.79,-343.3 -373.06,-641.7 -581.96,-925.24l0.01 149.26c149.28,208.9 238.67,417.82 387.97,656.66 44.7,238.67 149.1,716.2 44.68,1029.51 14.92,59.72 74.64,179.23 149.28,343.27l0.02 -268.63zm0 -2104.07c-164.2,-74.62 -283.72,-149.28 -358.18,-208.88 -29.94,-15.04 -104.44,-74.64 -223.78,-149.28l0.01 119.34c59.57,44.84 89.39,59.56 104.25,74.64 89.58,74.62 268.79,164.2 477.68,283.54l0.02 -119.36zm0 3551.49l0 89.56c-179.23,-59.45 -373.06,-104.46 -581.96,-134.24l0.01 -74.66c208.91,29.95 402.72,59.89 581.93,119.34l0.02 0zm0 3954.69l0 119.34c-44.86,15.08 -89.58,44.87 -119.35,59.78 15.08,29.78 44.69,89.51 29.77,149.12 29.69,-14.92 59.78,-29.61 89.56,-44.7l0.02 74.79 -14.86 0 14.86 14.94 0 59.55c-29.78,-15.02 -59.89,-29.78 -74.66,-29.78 -164.03,89.38 -358.01,179.12 -507.3,238.68l0.01 -104.58c179.06,-59.47 328.23,-119.34 432.65,-178.79 14.92,-45.03 0,-119.5 -29.93,-164.53 -74.47,30.16 -134.27,59.95 -208.91,89.72 -59.43,15.08 -119.34,29.78 -193.82,44.7l0.01 -104.26c29.79,-15.08 59.55,-15.08 74.47,-30.16 74.81,-238.51 44.86,-581.78 14.92,-835.53 -29.82,15.06 -59.6,15.08 -89.4,15.08l0.01 -104.44c29.79,0 59.55,-14.9 89.39,-14.9 -29.82,-194 -44.54,-358.35 -89.4,-522.38l0.01 -328.42c74.49,238.86 119.33,507.52 164.03,805.77 15.03,-14.71 29.78,-29.78 44.86,-44.53 14.88,-15.03 104.27,14.75 74.64,59.45 -29.83,30.09 -59.76,74.81 -119.5,104.59 29.8,253.73 44.86,597.02 0,850.61 134.22,-44.7 283.54,-104.47 417.9,-179.11l0.02 -0.01zm0 477.67c-14.86,14.75 -29.8,44.55 -29.8,74.49 0.02,-15.02 14.92,-15.02 29.78,-29.94l0.02 -44.55zm0 283.39l0 149.45c-74.66,59.45 -149.3,119.34 -208.91,178.79 -44.79,194.14 -164.15,716.36 -268.79,1328.26 45.03,29.93 89.56,44.86 164.2,59.76 -74.62,14.86 -134.09,29.78 -179.06,14.88 -29.82,179.1 -59.6,358.18 -89.4,537.28l0.01 -373.1c14.91,-59.72 29.79,-119.5 29.79,-179.06 0,0 -14.88,-14.9 -29.8,-14.9l0.01 -134.44c14.91,15.08 29.79,29.84 59.55,44.87 89.73,-567.19 194.15,-1059.63 238.68,-1238.53 -59.54,44.48 -104.42,74.48 -163.87,104.42 -30.09,44.7 -74.81,104.43 -134.37,164.04l0.01 -208.9c208.91,-119.5 402.72,-268.45 581.93,-432.82l0.02 0zm0 2581.74l0 29.63c-29.78,-14.77 -44.88,-44.38 -74.66,-59.41 29.8,15.03 44.86,29.78 74.64,29.78l0.02 0zm0 2268.43l0 74.48c-223.77,-149.34 -432.67,-358.18 -581.96,-641.72l0.01 -119.34c119.35,283.54 343.26,522.38 581.93,686.58l0.02 0zm-581.95 -925.27l0 -89.71c59.57,0 104.25,0 134.36,-14.86 -30.09,59.87 -74.81,104.57 -134.37,104.57l0.01 0zm0 -313.47l0 -119.5c29.79,0 44.85,14.86 59.55,14.86 44.72,30.15 14.92,119.51 -29.76,104.64 0,0 -14.88,0 -29.79,0zm-477.52 1029.83c59.72,59.41 119.17,134.05 179.06,193.83 74.49,89.56 193.81,164.2 298.45,238.84l0.01 -149.28c-89.56,-59.62 -179.12,-134.26 -239.01,-208.9l0.02 0c-89.4,-89.56 -163.89,-179.06 -238.53,-283.37l0 208.88zm477.52 -13266.66c-119.49,-89.58 -298.46,-208.9 -477.52,-328.4l0 119.48c194.14,134.28 372.87,253.6 477.51,328.26l0.01 -119.34zm0 552.16l0 149.26c0,-15.01 -15.09,-29.92 -30.1,-59.7 -29.68,-74.66 -298.31,-343.32 -447.42,-492.44l0 -29.94c223.61,134.4 372.87,283.54 477.51,432.82l0.01 0zm0 3238.15l0 74.64c-149.29,-14.77 -313.49,-29.77 -477.52,-14.75l0 -59.89c164.03,-15.08 328.23,-15.08 477.51,0l0.01 0zm0 2477.26l0 328.4c-104.63,-552.14 -268.63,-1014.74 -477.52,-1417.8l0 -149.1c194.14,373.02 358.01,776.07 477.51,1238.52l0.01 -0.02zm0 865.7l0 104.42c-44.87,-15.06 -119.51,-44.84 -179.12,-104.4 74.49,-0.02 134.25,0 179.11,0l0.01 -0.02zm0 955.05l0 104.25c-149.29,30.1 -298.46,59.73 -477.52,74.81l0 -89.72c164.03,-29.78 328.23,-59.55 477.51,-89.34l0.01 0zm0 313.16l0 104.58c-15.07,0 -44.87,14.92 -59.78,14.92 -134.2,44.97 -283.49,89.34 -417.74,119.5l0 -89.56c194.14,-44.86 343.09,-104.42 477.51,-149.44l0.01 0zm0 656.74l0 208.9c-149.29,209.06 -328.41,492.55 -477.52,835.87l0 -194.15c29.61,-74.7 74.64,-134.26 104.42,-194.2 -29.78,30.16 -59.73,45.03 -104.42,74.86l0 -119.5c89.41,-59.6 164.03,-134.09 238.51,-179.12 59.89,-104.42 134.36,-193.98 194.14,-268.46 -149.11,89.56 -283.54,148.97 -432.65,223.93l0 -104.59c164.03,-89.56 328.23,-179.28 477.51,-283.54l0.01 0zm0 1134.1l0 134.42c-44.87,-29.78 -59.78,-59.87 -74.48,-74.79 -30.15,-29.79 29.61,-89.39 59.39,-89.39 0.02,14.9 15.08,14.9 15.08,29.78l0.01 -0.02zm0 328.4l0 373.1c-59.78,432.67 -104.65,850.73 -104.65,1193.73 44.87,15.01 74.55,15.01 104.64,29.78l0.01 119.5c-15.07,-14.93 -59.78,-14.93 -104.65,-29.78 0.02,89.67 15.08,164.15 15.08,238.68 29.79,0 74.48,14.86 89.56,14.86l0.01 89.71c-15.07,14.75 -44.87,14.77 -59.78,14.77 14.91,74.64 44.69,149.43 59.77,223.92l0.01 119.34c-44.87,-104.42 -89.57,-223.92 -119.51,-358.03 -74.47,-15.07 -134.42,-44.68 -149.12,-44.68 -44.86,-30.11 -44.86,-134.42 29.62,-104.59 30.11,0 59.89,14.87 104.58,29.78 -14.86,-74.64 -14.86,-149.13 -14.86,-238.69 -59.61,-14.92 -119.34,-29.78 -164.2,-44.85 44.88,-29.94 104.59,-44.71 164.2,-59.72 0,-447.59 74.81,-1029.53 149.29,-1566.83zm-1701.34 4402.43c209.06,0 492.39,29.62 850.72,74.48 193.83,29.78 164.03,-30.09 164.03,-30.09 -164.03,-29.63 -701.27,-342.95 -1014.76,-507.15l0.01 462.76zm0 -522.54l0 -89.5c164.2,44.8 343.26,104.58 522.54,223.76 -44.86,74.63 -224.13,-59.62 -522.55,-134.26l0.01 0zm0 -1387.86c432.82,0 805.86,-89.34 984.97,-149.12 74.65,134.26 149.12,268.62 238.85,403.05l0 -208.92c-597.02,-925.57 -373.1,-2104.38 0,-2954.77l0 -194.15c-358.02,746.3 -641.89,1895.17 -283.54,2850.37 -179.06,59.56 -522.38,149.12 -940.29,149.12l0.01 104.42zm1223.82 -13341.17c-209.05,-134.2 -417.96,-253.7 -567.25,-328.18 268.63,-104.47 358.18,-313.52 358.18,-388.01 -417.73,268.51 -671.49,29.85 -746.14,-44.85 209.07,29.98 209.07,-29.79 209.07,-59.57 -149.28,0 -328.41,-119.49 -477.69,-223.94l0.01 761.01c209.06,29.84 388.12,29.84 522.54,0.02 178.73,74.67 447.52,238.84 701.28,403.04l0 -119.52zm-1223.82 -1283.24c149.28,0 298.41,44.71 343.26,44.71 -44.85,-104.46 -253.71,-149.13 -343.27,-149.13l0.01 104.42zm0 -119.51c402.89,-164.17 641.88,-59.58 716.35,-29.77 -59.76,-164.21 -343.15,-253.72 -716.36,-193.98l0.01 223.75zm0 -686.39c44.86,-29.97 74.63,-44.69 104.41,-44.69 -29.77,0 -59.56,0 -104.42,0l0.01 44.69zm1223.82 2536.9l0 29.92c-29.78,-29.92 -59.78,-59.72 -74.64,-74.62 29.78,14.9 59.57,29.78 74.64,44.7l0 0zm0 3670.97l0 59.87c-194.15,0 -388.13,44.57 -567.25,104.5 44.7,74.47 74.81,193.98 119.51,268.47 119.34,-14.94 238.67,29.78 283.54,59.93 -74.64,14.69 -149.45,29.63 -208.9,59.41 29.84,44.84 59.45,104.42 89.56,164.35 89.39,-14.92 193.81,0 283.54,74.49 -29.78,-0.02 -119.51,0 -223.93,14.9 74.81,149.28 149.29,283.34 223.93,432.84l0 149.1c-89.73,-193.98 -194.15,-387.96 -283.54,-566.91 -104.59,14.75 -208.9,29.78 -283.71,59.46 29.8,-59.46 104.64,-119.35 223.98,-163.88 -29.83,-45.03 -59.78,-104.57 -89.72,-149.28 -89.56,44.69 -193.81,104.25 -283.37,164.03 44.71,-179.1 134.42,-253.59 223.92,-283.52 -30.11,-74.5 -89.5,-194 -134.36,-268.68 -223.82,74.67 -417.8,164.2 -597.03,253.76l0.01 -59.58c164.2,-89.72 358.17,-164.36 567.18,-238.84 -149.26,-268.67 -283.65,-567.07 -402.99,-895.25 -29.83,14.86 -74.64,44.64 -104.47,59.56 -29.78,14.91 -44.7,14.91 -59.73,0l0.01 -74.65c29.94,-29.78 59.72,-74.64 119.49,-104.42 -15.07,-44.7 -29.94,-104.47 -44.86,-149.33 -29.77,15.08 -59.61,29.99 -74.64,44.86l0.01 -134.21c15.02,0 29.94,-15.08 29.94,-15.08 0,-44.69 -14.92,-89.39 -29.95,-134.25l0.01 -283.51c29.94,134.22 59.72,268.64 89.55,387.98 104.44,-30 164.15,14.87 253.71,74.65 -29.78,14.86 -119.34,0 -223.77,29.78 29.79,59.77 44.7,104.58 59.73,164.2 89.4,-29.79 193.98,-29.78 283.38,59.55 -44.68,15.09 -134.21,15.09 -238.68,59.78 119.34,328.4 253.76,611.89 402.87,895.26 193.99,-74.48 402.88,-104.26 597.03,-119.34l0 0zm0 4387.35l0 89.72c-388.13,44.7 -820.95,14.76 -1223.83,-89.72l0.01 -104.42c388.12,104.42 805.86,149.45 1223.82,104.42l0 0zm0 373.26l0 89.56c-388.13,89.34 -716.36,104.26 -776.09,74.48 298.59,-44.7 552.16,-104.64 776.09,-164.03l0 -0.01zm0 790.84l0 104.58c-298.62,134.27 -581.94,223.66 -835.7,253.6 223.76,-74.64 507.29,-194.14 835.7,-358.18l0 0zm0 328.24l0 119.5c-328.4,238.84 -701.28,462.45 -791.01,417.91 89.75,-44.87 477.36,-298.57 791.01,-537.41l0 0zm-1223.82 -8133.03l0 -89.56c29.94,29.99 59.72,59.79 104.41,74.87 -29.77,14.69 -59.56,14.7 -104.42,14.7l0.01 -0.01zm0 -1178.81l0 -447.74c59.72,179.12 89.55,358.2 0,447.74zm-1402.78 14669.25c149.28,59.62 298.62,104.64 417.96,104.64 -44.86,-15.08 -298.46,-104.64 -417.97,-194.14l0.01 89.5zm0 -134.37l0 -1566.97c328.4,89.72 403.04,253.76 447.74,298.62 -29.78,14.86 -89.56,0 -164.2,-14.75 44.86,14.75 89.55,44.37 134.42,89.39l0 0c447.68,-59.78 686.36,-955.2 223.75,-1208.79 -14.91,44.69 -44.69,74.53 -89.55,89.56 89.56,-104.59 44.86,-223.93 0,-268.63 -74.48,89.56 -149.12,179.07 -223.76,268.63 14.91,-44.87 59.56,-164.2 164.03,-298.42 358.18,-447.74 537.41,-1343.16 134.37,-1328.3 -179.06,15.08 -417.74,268.62 -626.81,522.38l0.01 -119.49c238.84,-268.47 477.68,-507.13 641.71,-492.28 358.19,29.83 492.44,626.7 -44.69,1372.84 29.78,29.78 44.69,89.56 59.61,149.27 179.06,119.5 268.62,313.33 298.57,507.15l0 0c149.12,15.08 298.46,30.16 447.57,15.08l0.01 104.42c-149.12,0 -283.38,-14.86 -432.67,-29.78 14.87,373.08 -208.89,746.31 -462.65,820.78 89.56,119.34 193.98,268.68 313.32,328.24 179.12,89.55 373.1,134.42 581.99,179.12l0.01 89.5c-59.78,-14.7 -134.26,-29.62 -208.9,-29.62 29.94,0 104.42,44.7 208.89,89.4l0.01 462.76c-417.8,-30.11 -582,0.01 -656.64,29.62 44.86,59.78 283.7,74.64 328.4,89.72 -313.32,193.82 -880.56,-74.95 -1074.55,-149.44l0.01 -0.01zm1402.78 -16266.03c-89.56,-74.47 -164.04,-134.22 -223.82,-149.26 59.78,-59.6 134.25,-74.49 223.81,-89.41l0.01 -104.43c-14.92,0 -14.93,0.01 -29.79,0.01 14.87,-15.09 14.86,-15.07 29.78,-15.07l0.01 -223.78c-208.9,29.78 -462.66,119.36 -716.22,253.74 134.22,-343.3 522.23,-611.91 716.21,-716.36l0.01 -44.7c-283.38,0 -850.62,74.48 -1178.82,731.1 -164.18,-522.2 164,-1104.33 208.86,-1238.56 -164.04,119.33 -343.27,417.93 -432.83,820.78l0.01 2895.07c0,14.9 -0.01,14.92 -0.01,14.92l0.01 -0.02c0,0 -0.01,0.02 -0.01,14.88l0.01 104.47c15.08,-14.93 29.78,-14.91 44.86,-14.91 0,14.91 14.91,29.78 29.78,44.86l0 -0.02c-29.78,14.92 -44.86,14.92 -74.65,14.92l0.01 208.86c44.86,-29.78 89.55,-74.64 149.28,-89.51 164.2,238.68 343.15,283.49 388.01,283.49 -29.83,-119.34 -149.33,-462.6 -149.33,-522.16 313.48,492.38 626.85,671.5 835.86,716.36 29.84,372.87 104.48,701.28 178.95,999.68l0.01 -283.51c-44.71,-208.88 -89.57,-447.72 -119.35,-701.47 44.87,-0.01 89.56,14.91 119.34,0l0.01 -89.57c-313.32,-328.19 -626.65,-1208.75 -567.09,-1611.61 119.51,-14.94 477.52,522.38 537.3,537.3 14.87,-0.02 14.86,-14.92 29.78,-14.92l0.01 -447.76c-74.48,-253.54 -223.82,-522.36 -268.63,-581.92 104.59,14.9 179.06,44.68 268.62,59.56l0.01 -761.05zm0 4044.28l0 134.21c0,0 -0.01,0 -14.93,14.92 -104.41,104.41 -89.55,-44.7 -74.64,-74.65 29.79,-29.83 59.78,-44.69 89.56,-74.47l0.01 -0.01zm0 343.1l0 74.64c-14.92,-14.91 -29.79,-44.69 -14.93,-74.64 14.93,0 14.92,0 14.92,0l0.01 0zm0 1149.18l0 59.56c-746.15,388.13 -1119.24,955.04 -1313.23,1611.64 -29.77,-0.02 -59.77,-14.7 -89.56,-14.7l0.01 -119.52c0,0 15.08,15.03 29.78,15.03 179.28,-612.05 597.02,-1164.21 1372.99,-1552l0.01 -0.01zm0 3909.67c-820.84,-238.68 -1447.48,-820.45 -1387.7,-1746.04 74.48,59.71 164.03,104.59 193.98,104.59 -74.64,-104.59 -134.42,-179.06 -209.07,-223.93l0.01 716.51c44.86,134.26 104.62,283.39 179.11,402.9 -59.61,44.69 -149.33,134.36 -179.12,253.7l0.01 -15.03 0 253.71c59.78,208.89 104.62,432.65 119.5,686.41 0,432.66 -14.88,835.7 -119.51,1178.97l0.01 -0.01 0 14.92 0 298.4c74.64,-193.98 134.42,-403.04 179.11,-656.58 104.43,567.08 -14.91,1119.24 -179.12,1581.84l0.01 223.76c238.84,-581.94 447.74,-1387.69 238.84,-2178.7 59.78,-537.08 -74.64,-1074.37 -209.06,-1313.21 44.86,-119.36 134.42,-208.85 194.18,-253.71 268.47,402.86 701.29,656.42 1178.81,775.92l0.01 -104.42zm-1402.78 3760.7c522.38,-373.25 641.71,-656.58 581.94,-716.36 -59.56,-59.56 -313.16,29.78 -387.96,283.7 44.86,-59.78 268.84,-313.48 343.31,-238.99 44.65,44.85 -238.67,343.25 -537.3,582.26l0.01 89.39zm-507.3 3238.33c44.7,0 104.42,14.76 149.12,14.76 -44.7,-29.79 -89.4,-59.62 -149.12,-89.4l0 74.64zm0 -253.7l0 -1582.01c208.9,-74.47 417.9,-208.89 477.5,-253.59 14.93,149.28 -134.4,268.63 -223.74,298.62 104.42,14.7 179.06,29.78 253.53,44.48l0.01 1566.97c-29.8,-14.91 -44.7,-14.91 -59.73,-29.77 0.01,29.77 29.93,44.8 59.72,74.64l0.01 89.5c-179.07,-59.89 -343.1,-134.36 -507.3,-208.84l0 0zm507.3 -16967.51c-44.7,134.26 -59.73,283.55 -74.48,447.75 -29.94,-14.9 -89.72,-238.84 -89.72,-283.69 -44.7,104.59 -44.7,447.74 -29.8,537.42 -119.32,-104.62 -208.88,-179.24 -313.3,-223.95l0 283.53c59.72,59.75 119.34,149.29 164.2,253.6 -44.86,-14.75 -89.56,-14.75 -164.2,-14.75l0 1149.03c44.7,-29.95 74.64,-44.7 104.42,-74.64 29.84,358.18 193.98,552.16 208.88,581.94 29.8,-14.87 59.78,-149.12 74.64,-179.07 14.94,104.42 44.88,193.98 59.63,283.71 -238.67,178.89 -372.93,387.96 -447.57,581.94l0 686.41c14.92,-14.92 29.78,-29.83 29.78,-59.61 14.92,-44.87 208.9,-462.6 477.51,-686.58l0.01 -208.86c-29.8,14.88 -44.7,14.88 -74.48,14.88 0,-14.88 29.78,-44.86 74.47,-59.73l0.01 -104.47c-44.7,59.76 -149.12,30 -164.2,74.69 0,-29.83 89.72,-149.17 134.4,-149.17 14.93,14.92 14.93,29.67 29.79,44.7l0.01 -2895.08zm0 7849.49l0 119.52c-387.96,-29.96 -716.36,372.71 -44.7,880.56 -29.78,-134.44 -29.78,-268.84 -29.78,-418.14 -89.72,-14.92 -149.28,-29.76 -208.9,-59.56l0 0c74.48,-59.78 178.95,-59.76 283.37,-15.07l0.01 716.51c-14.87,-45.01 -29.8,-74.79 -29.8,-104.57 -253.58,-208.91 -402.86,-328.4 -477.5,-462.49l0 -388.14c29.78,-59.73 74.64,-104.57 119.34,-149.1 164.2,-447.76 164.2,-1402.94 -74.64,-1969.87 -14.92,-15.03 -29.8,-29.94 -44.7,-44.81l0 -223.98c29.78,44.87 59.72,74.65 89.56,119.36 208.84,507.44 313.31,1611.67 193.98,2014.81 74.64,-15.03 149.28,-29.93 223.75,-15.01l0.01 -0.02zm0 1865.39l0 253.71c-119.34,-328.35 -298.4,-597.02 -507.3,-776.09l0 -89.41c193.98,149.12 373.08,373.12 507.29,611.79l0.01 0zm0 2134l0 298.4c-119.34,268.53 -253.54,492.44 -373.05,641.89l0.01 -0.01c-14.92,89.4 -59.62,223.77 -134.26,387.65l0 -208.84c14.92,-29.67 29.78,-59.46 29.78,-74.49 -14.86,0 -14.88,15.03 -29.78,15.03l0 -104.43c179.06,-179.43 373.08,-522.36 507.29,-955.2l0.01 0zm0 1223.66c-164.2,417.9 -373.05,775.94 -507.3,984.83l0 0 0 74.64c44.7,0 89.56,15.07 119.34,104.48 29.78,89.65 14.91,477.52 -119.34,865.64l0 238.66c74.64,-119.32 119.34,-253.59 149.12,-387.94 164.18,14.86 298.45,-74.53 343.31,-119.5 -59.61,15.02 -223.81,89.5 -328.23,44.97 59.72,-283.65 59.72,-552.16 14.86,-686.53 119.34,-74.49 223.81,-149.13 328.23,-208.89l0.01 -89.41c-134.22,89.39 -253.54,163.88 -373.05,223.81 0.01,-14.9 0,-14.9 -14.91,-30 89.56,-89.49 223.76,-268.62 387.95,-462.6l0.01 -119.49c-89.4,89.71 -164.2,194.13 -253.54,283.69 74.47,-134.42 164.14,-298.44 253.53,-492.6l0.01 -223.76zm-507.3 -746.14c44.7,-14.92 89.56,-44.68 149.12,-74.47 -29.78,0 -74.48,0 -149.12,0l0 74.47zm0 -179.12c74.64,-373.04 119.34,-835.86 119.34,-1357.86 0,-343.32 -29.78,-686.57 -119.34,-985.03l0 388.01c44.7,208.84 59.72,447.69 59.72,671.5 0,268.78 -15.02,567.04 -59.72,850.56l0 432.82zm0 -2492.35c44.7,15.09 74.64,30.12 89.56,45.03 -14.92,-45.03 -44.86,-89.39 -89.56,-119.5l0 74.47zm0 -238.52c14.92,0 14.9,0.02 29.78,0.02 -14.86,-14.72 -14.88,-14.7 -29.78,-29.78l0 29.76zm-298.4 7745.08c89.34,29.94 179.06,44.7 298.4,59.72l0 -74.64c-119.34,-74.48 -238.68,-149.28 -298.42,-208.89l0.02 223.81zm0 -313.32l0 -1566.98c29.78,-59.72 59.72,-104.58 104.42,-134.36l0 0c59.72,119.32 0,268.79 -15.08,283.7 15.08,0 44.86,0 59.76,-14.91 59.74,-104.59 119.52,-208.9 149.3,-313.49l0 238.66c0,29.78 -15.08,44.72 -15.08,59.75 0,-15.04 15.08,-15.03 15.08,-15.03l0 1582c-119.34,-59.95 -223.93,-104.31 -298.42,-119.34l0.02 0zm298.4 -16370.64c-119.34,-44.68 -223.93,-59.74 -298.42,-59.74l0.02 119.49c89.34,14.91 193.96,74.52 298.4,223.8l0 -283.55zm0 522.38c-89.56,0 -193.98,14.75 -298.42,44.71l0.02 149.27c74.48,-15.09 119.28,14.93 149.1,14.93 -59.76,44.84 -104.46,89.49 -149.12,134.2l0.02 358.16c0,-14.86 14.86,-29.76 14.86,-29.76 0,14.9 -14.88,29.78 -14.88,44.7l0.02 955.03c119.28,-313.33 223.74,-447.57 298.4,-522.21l0 -1149.03zm0 2342.89l0 686.43c-15.08,29.78 -29.78,44.81 -29.78,44.81 -44.86,-104.44 -89.56,-402.82 29.78,-731.22l0 -0.02zm0 2387.55l0 223.98c-74.64,-104.64 -179.12,-253.75 -268.64,-432.82 -14.9,59.73 -14.9,119.29 -29.78,194l0.02 -611.96c59.72,209.07 164.14,417.96 298.4,626.81l0 -0.01zm0 2387.76l0 388.12c-29.78,-59.72 -44.86,-104.56 -44.86,-164.51 0,-89.36 15.08,-148.95 44.86,-223.59l0 -0.02zm0 984.98l0 89.41c-89.56,-89.41 -209.06,-149.12 -298.42,-193.98l0.02 -89.58c14.86,15.09 44.64,15.09 59.72,29.97 -15.08,-104.44 -44.86,-238.84 -44.86,-268.78 59.62,104.56 104.42,194.14 134.24,328.39 44.88,29.78 104.44,59.89 149.3,104.59l0 -0.02zm0 283.54c-59.78,-59.93 -149.3,-119.32 -238.68,-134.4 -29.94,-15.03 -44.86,-44.66 -59.74,-74.48l0.02 178.95c14.86,-14.91 29.76,-14.91 44.64,-14.91 29.84,59.92 44.7,119.34 74.64,179.11 -29.94,0 -74.64,14.87 -119.3,59.56l0.02 44.86c0,14.92 14.86,44.7 29.76,29.62 44.72,-29.62 89.52,-29.62 134.38,-29.62 59.62,164.02 104.48,358.19 134.26,567.08l0 -388.02c-15.08,-59.72 -29.78,-119.33 -59.78,-179.06 30,0 44.7,14.92 59.78,29.62l0 -74.48c-29.78,-29.78 -59.78,-59.56 -89.56,-59.56 -29.78,-59.78 -59.74,-119.17 -89.56,-179.11 74.7,14.91 134.26,59.94 179.12,74.64l0 -29.8zm0 2327.83l0 432.82c0,30 -15.08,59.62 -15.08,89.73 0,0 15.08,0 15.08,14.92l0 74.47c-15.08,0 -29.78,14.88 -44.86,14.88 -74.48,283.37 -164.2,492.58 -238.68,597.02 59.62,44.68 164.2,0 283.54,-134.22l0 104.43 -15.08 14.75c-89.34,253.55 -193.98,462.45 -283.34,641.88l0.02 -134.42c59.72,-134.42 119.28,-283.52 179.06,-432.64 -74.64,29.6 -134.42,44.68 -179.08,29.6l0.02 -223.6c74.48,-104.64 134.2,-268.78 179.06,-462.8 -89.72,-0.02 -149.3,-59.56 -179.08,-89.35l0.02 0 0 -29.99c0,-29.96 44.64,-59.74 74.47,-44.66 44.81,29.62 89.67,44.66 134.37,59.73 44.7,-164.52 74.48,-343.27 89.56,-522.55l0 0zm0 1253.51c-59.78,194.13 -164.2,432.82 -298.42,671.66l0.02 119.49c119.28,-193.98 223.74,-403.04 298.4,-582.31l0 -208.84zm0 1089.4l0 74.64c-59.78,15.07 -134.26,74.64 -238.68,74.64 -15.08,0 -44.86,0 -59.74,0l0.02 -89.35c0,0 -0.02,0 14.86,0 104.42,0 193.98,-59.93 283.54,-59.93l0 0zm-298.4 -10834.06l0 -134.25c29.78,-59.73 59.72,-134.2 89.34,-209.01 0,44.81 29.94,89.67 -44.7,223.92l0 0c-14.86,15.07 -29.78,59.73 -44.64,119.34zm-298.46 13788.9c89.38,59.88 178.95,104.27 298.44,149.28l0.02 -223.82c-44.88,-30.11 -59.78,-74.47 -74.7,-104.58 14.92,0 44.85,0 74.68,15.08l0.02 -1566.98c-59.78,89.38 -134.44,208.9 -283.54,253.76 417.74,-850.78 149.1,-1223.67 104.42,-1313.23 -14.92,14.77 -14.92,29.78 0,89.56 14.92,44.71 179.1,402.73 -29.96,895.44 74.66,-432.82 0,-910.51 -59.6,-955.22 0,0 -14.86,-15.01 -29.78,-15.01l0 134.35c29.78,104.49 59.6,283.72 59.6,507.48 -14.9,0 -29.82,14.75 -59.6,29.83l0 89.67c14.92,0 29.78,-15.03 44.7,-15.03 0,15.03 0,44.7 0,59.4 -14.92,0 -29.78,0 -44.7,0l0 89.72c14.92,0 29.78,0 29.78,14.92 0,44.86 -14.86,74.64 -29.78,134.36l0 1731.02zm298.46 -16594.44c-134.42,15.08 -223.98,59.76 -253.76,89.58 29.78,29.93 119.32,-14.89 253.74,29.93l0.02 -119.51zm0 626.83c-104.48,44.86 -209.08,89.58 -298.46,164.22l0 134.18c134.26,-104.42 223.76,-134.18 298.44,-149.11l0.02 -149.29zm0 298.4c-223.98,223.82 -283.54,417.98 -298.46,537.32l0 44.68c89.38,0 223.76,-164.02 298.44,-223.8l0.02 -358.2zm0 373.12l0 955.03c-15.09,44.85 -44.88,74.65 -59.78,119.51 -74.64,-44.88 -119.34,-134.42 -134.26,-238.84 -29.94,44.86 -59.72,89.56 -104.42,134.36l0 -164.16c44.7,-44.85 74.48,-74.68 104.42,-119.34 0,-253.74 119.34,-552.14 194.02,-686.56l0.02 0zm-298.46 2611.51c14.92,-29.77 14.92,-44.69 29.78,-59.55 -14.86,477.29 89.56,790.83 208.9,1044.54 -29.78,268.62 -119.34,567.18 -238.68,835.53l0 283.87c134.26,-239.02 238.68,-492.77 298.44,-716.51l0.02 -611.96c-253.76,-775.92 -104.48,-1566.75 -0.02,-1880.24l0.02 -134.25c-104.48,208.89 -164.2,402.88 -209.08,582.16 -29.78,59.54 -59.6,119.17 -89.38,163.98l0 492.43zm298.46 4581.31l0 89.58c-104.48,-44.71 -209.08,-59.61 -298.46,-44.71l0 -89.56c104.42,0 193.98,14.93 298.44,44.71l0.02 -0.02zm0 268.81c-89.56,-89.67 -179.12,-164.36 -298.46,-223.94l0 59.57c104.42,45.03 208.9,134.43 283.37,238.85 -59.61,15.06 -119.35,30 -164.03,74.48 -29.96,29.99 29.78,89.72 59.61,75.02 44.81,-30.16 74.63,-45.03 119.49,-45.03l0.02 -178.95zm0 402.71l0 44.86c-15.09,-14.75 -15.09,-44.86 -15.09,-44.86 0,0 0,0 15.07,0l0.02 0zm0 2641.48l0 29.99c-15.09,-14.92 -15.09,-14.92 -0.02,-29.99l0.02 0zm0 582.14l0 223.6c-29.85,0 -44.88,-14.75 -59.78,-29.6 -89.56,29.6 -164.2,29.6 -238.68,14.85l0 -89.67c89.38,29.79 164.02,15.04 238.68,-59.6 29.93,-15.03 44.69,-44.88 59.76,-59.58l0.02 0zm0 626.64l0 134.42c-104.48,163.83 -209.08,313.32 -298.46,402.84l0 -89.52c104.42,-119.34 193.98,-268.83 298.44,-447.74l0.02 0zm0 208.91c-89.56,149.27 -194.04,283.54 -283.54,387.96 0,0 0,0 -14.92,0l0 74.81c104.42,29.61 193.98,74.46 298.44,104.25l0.02 -89.35c-89.56,0 -149.34,-45.01 -223.98,-74.64 74.64,-74.7 149.28,-179.27 223.96,-283.54l0.02 -119.49zm-731.28 2343.06c14.9,0 29.78,-14.93 44.68,-14.93 -14.9,29.63 -29.78,59.41 -44.68,89.41l0 507.46c29.78,0 59.56,14.7 74.64,29.78 44.7,29.78 119.34,238.68 358.18,417.8l0 -1731.02c-15.08,89.38 -44.86,193.82 -89.57,298.3 -74.63,29.94 -193.98,104.58 -253.71,223.76l0.02 0c-30,15.08 -59.78,30.1 -89.56,45.02l0 134.42zm432.82 -14773.89c-104.6,74.64 -193.98,194 -209.06,328.2 74.64,-89.36 149.32,-149.13 209.06,-193.98l0 -134.22zm0 671.52c0,14.84 0,29.78 0,44.68l0 0 0 -44.68zm0 641.7c-134.42,193.98 -283.55,387.98 -432.82,567.04l0 149.17c149.27,-194.04 298.4,-372.93 432.82,-552.05l0 -164.16zm-432.82 2880.15c179.06,-313.48 313.32,-656.78 432.82,-1074.53l0 -492.46c-119.5,208.91 -268.8,402.9 -432.82,582.01l0 164.2c164.02,-164.2 298.4,-343.31 417.74,-537.29 -119.34,432.82 -268.47,805.92 -417.74,1104.32l0 253.75zm432.82 745.98c-89.57,238.84 -209.06,477.7 -313.48,671.51 -29.78,45.01 -74.66,89.66 -119.34,134.37l0 253.9c104.42,-179.43 283.54,-462.76 432.82,-775.91l0 -283.87zm0 2716.1l0 89.56c0,0 0,0 -15.08,0 15.08,0 15.08,0 15.08,0l0 59.57c-44.86,-29.78 -89.57,-44.64 -134.42,-44.64 -89.5,-14.93 -193.98,-14.93 -298.4,14.86l0 -89.72c119.34,-29.63 223.76,-29.61 298.4,-14.7 44.85,0 89.56,-14.91 134.42,-14.91l0 -0.02zm0 4059.01l0 89.67c-164.2,-44.96 -298.4,-208.85 -432.82,-388.28l0 -148.97c134.42,193.98 298.4,387.98 432.82,447.58l0 0zm0 955.2l0 89.5c-15.08,29.85 -29.94,44.7 -44.86,59.63 14.92,0 29.78,0 44.86,0l0 74.81c-44.86,0 -104.6,0 -149.28,29.61 59.71,44.85 119.34,74.64 149.28,104.48l0 134.35 0 -14.85c-149.28,-59.78 -298.4,-104.49 -432.82,-149.34l0 -59.57c134.42,44.71 253.59,89.41 343.25,119.19 -74.63,-59.62 -193.98,-148.97 -343.25,-238.68l0 -89.72c74.64,59.94 149.27,104.79 223.76,149.43 29.84,-15.01 44.86,-29.93 74.64,-29.93 44.85,-59.56 89.56,-104.42 134.42,-178.91l0 0zm0 1029.69l0 89.67c-104.6,29.67 -268.8,29.67 -432.82,-15.03l0 -59.94c134.42,30 298.4,44.86 432.82,-14.7l0 0zm0 134.04l0 89.72c-149.28,-44.71 -313.48,14.92 -432.82,74.81l0 -45.03c134.42,-89.34 313.32,-134.2 432.82,-119.5zm-1268.53 1298.52c268.62,-74.7 537.09,-179.12 835.71,-358.02l0 -134.42c-298.62,178.9 -567.09,298.24 -835.71,373.1l0 119.34zm835.71 -283.54l0 507.46c-134.42,-15.08 -373.11,29.78 -373.11,89.4 -15.01,74.8 313.48,194.14 358.18,209.17 -164.19,44.36 -611.89,-164.53 -582.11,-283.87 29.95,-74.48 432.84,-238.62 597.04,-522.16l0 0zm0 -12968.11c-193.98,223.96 -402.89,447.74 -626.82,626.8 -74.62,44.69 -134.25,104.48 -208.89,149.17l0 149.28c74.64,-59.78 164.2,-119.5 238.67,-179.11 194.15,-164 403.06,-373.04 597.04,-596.97l0 -149.17zm-835.71 3357.65c343.11,-313.31 611.95,-641.71 835.71,-1044.53l0 -253.76c-238.84,462.65 -507.48,805.91 -835.71,1119.07l0 179.22zm835.71 507.32c-223.76,193.98 -522.38,462.82 -835.71,761.06l0 134.4c298.41,-313.16 596.87,-567.06 820.78,-746.12 -74.63,134.34 -119.49,238.84 -119.49,298.55 15.07,-15.07 59.76,-89.56 134.42,-193.98l0 -253.91zm-835.71 4551.59c59.78,-29.67 119.35,-44.7 164.2,-44.7l14.93 15.03c0,44.38 14.86,119.34 44.79,208.9 -74.79,29.61 -149.28,59.39 -223.92,104.25l0 59.78c89.57,-44.7 179.11,-74.64 253.76,-104.64 0,0 14.86,15.1 14.86,30 -74.63,29.94 -164.2,74.64 -268.62,134.37l0 59.61c134.27,-59.61 238.67,-104.64 298.41,-134.25 89.56,194.14 208.9,372.93 253.76,417.96 89.56,104.41 193.98,238.67 283.54,372.72l0 -148.97c-74.64,-104.58 -149.3,-209.04 -208.91,-283.7 -104.42,-149.12 -179.23,-283.37 -253.69,-417.74 -268.69,-567.08 -104.49,-1223.82 -89.56,-1387.69 -14.93,44.53 -194,447.52 -134.42,924.87 -59.56,-59.4 -104.44,-149.12 -149.13,-223.76l0 179.43c29.79,29.63 44.69,74.49 74.64,89.36 -29.93,14.91 -44.85,14.91 -74.64,29.83l0 119.34zm835.71 -7088.43l0 164.2c-238.84,238.84 -522.38,447.69 -835.71,656.59l0 -149.29c313.33,-193.98 581.95,-417.79 835.71,-671.5l0 0zm0 4476.69l0 89.72c-253.76,74.81 -567.09,253.6 -835.71,596.86l0 -208.89c29.79,-14.87 44.69,-14.87 59.77,-14.87 253.56,-253.61 537.1,-402.89 775.94,-462.82l0 0zm0 5043.99l0 89.72c-238.84,-164.2 -552.16,-358.03 -835.71,-507.46l0 -74.49c29.79,0 59.77,15.04 89.55,29.79 -14.91,-44.71 -29.78,-119.35 -59.76,-193.98 0,0 -14.88,0 -29.79,0l0 -59.61c14.91,0 14.91,0 14.91,0 0,-14.88 0,-29.96 -14.91,-45.03l0 -298.25c14.91,59.74 29.79,119.52 44.69,178.91 44.88,-14.71 89.56,-14.71 104.44,-14.71 44.86,0 59.76,59.56 29.98,59.56 -29.98,15.08 -74.69,15.1 -119.34,30.17 0.01,29.61 14.87,74.47 29.78,104.25l0.02 0c44.7,14.88 89.54,29.78 134.35,29.78 -59.72,14.93 -89.67,14.93 -134.37,14.93 29.8,89.49 44.7,179.23 74.65,238.68 223.77,119.5 462.6,283.69 671.51,417.74l0 0zm0 209.21c-268.62,-104.42 -581.95,-238.84 -835.71,-358.18l0 104.59c223.94,104.32 507.31,208.91 835.71,313.16l0 -59.57zm0 775.77l0 59.94c-179.12,-44.86 -343.26,-119.35 -388.14,-238.84 59.74,44.7 209.02,134.37 388.14,178.9l0 0zm0 238.84l0 45.01c-59.61,29.63 -104.42,59.47 -134.42,74.49 44.86,-44.86 89.54,-89.5 134.42,-119.5l0 0zm-835.71 -1492.13c164.2,74.49 328.23,149.12 373.11,164.05 -89.56,-59.61 -223.98,-149.28 -373.11,-208.91l0 44.86zm-283.54 2745.79c89.56,-29.84 193.98,-44.86 283.54,-74.64l0 -119.34c-89.56,29.78 -193.98,59.56 -283.54,74.64l0 119.34zm283.54 -12550.32c-89.56,74.64 -179.05,134.37 -283.54,209.01l0 134.26c89.56,-59.73 193.98,-134.26 283.54,-193.98l0 -149.29zm-283.54 2835.28c104.49,-89.56 193.98,-164.02 283.54,-253.59l0 -179.23c-89.56,89.66 -179.05,179.23 -283.54,253.87l0 178.95zm283.54 1014.76c-89.56,104.64 -193.98,208.92 -283.54,313.5l0 134.42c89.56,-104.61 193.98,-223.94 283.54,-313.48l0 -134.44zm-283.54 3865.19c104.49,-29.83 193.98,-59.93 283.54,-74.64l0 -119.34c-74.63,29.78 -164.19,74.64 -283.54,119.34l0 74.64zm283.54 208.84c-89.56,44.86 -179.05,89.56 -283.54,134.42l0 74.48c104.49,-44.7 193.98,-104.26 283.54,-149.12l0 -59.78zm0 119.51l0 59.61c-15.07,14.86 -44.85,29.78 -74.63,44.86l0 0c-14.93,193.82 14.9,552.16 74.63,865.48l0 298.25c0,-29.63 0,-44.32 0,-59.39 -59.71,-15.1 -119.34,-29.96 -164.19,-89.74 44.85,15.08 104.46,29.79 149.12,29.79l0 0c-89.35,-343.11 -149.12,-775.75 -119.19,-1014.61 -44.79,29.63 -104.42,44.7 -149.28,74.66l0 -74.66c104.49,-44.86 193.98,-89.56 283.54,-134.25l0 0zm0 -6819.92l0 149.28c-89.56,59.62 -179.05,134.42 -283.54,193.99l0 -149.12c104.49,-59.78 193.98,-119.51 283.54,-194.15l0 0zm0 4282.88l0 208.89c-89.56,119.5 -193.98,268.63 -283.54,447.91l0 -104.65c74.49,-163.98 164.2,-313.15 253.76,-432.65 -89.56,14.92 -179.27,59.61 -253.76,119.5l0 -104.58c104.49,-74.65 208.91,-119.34 283.54,-134.42l0 0zm0 1716.09l0 179.43c-44.85,-104.79 -89.56,-238.99 -89.56,-403.19 29.85,44.86 59.78,119.34 89.56,223.76l0 0zm0 2134.18c-29.78,-14.88 -59.73,-14.88 -74.63,-29.96 -89.56,-59.4 -89.56,15.08 -74.64,15.08 15.01,29.78 59.71,59.56 149.27,74.49l0 -59.61zm0 223.8l0 74.49c-89.56,-44.7 -193.98,-89.41 -283.54,-119.34l0 -74.49c89.56,29.78 193.98,59.41 283.54,119.34l0 0zm0 179.06c-89.56,-59.56 -193.98,-89.56 -283.54,-119.49l0 59.93c74.49,14.71 179.12,59.56 283.54,104.42l0 -44.86zm0 164.2l0 104.59c-104.42,-59.88 -209.05,-104.59 -283.54,-149.44l0 -104.42c74.49,44.7 164.2,89.34 283.54,149.27l0 0zm-283.54 1432.57l0 -29.78c14.93,15.01 14.93,15.03 29.78,29.78 -14.85,0 -14.85,0 -29.78,0zm-298.4 1223.66c89.5,0 193.98,-14.92 298.4,-29.78l0 -119.34c-104.42,29.78 -208.9,44.7 -298.4,59.4l0 89.72zm298.4 -12371.09c-104.42,59.62 -208.9,134.26 -298.4,194.04l0 149.11c89.5,-74.64 193.98,-134.25 298.4,-208.89l0 -134.26zm-298.4 2850.19c104.42,-74.48 208.84,-149.28 298.4,-223.92l0 -178.96c-89.56,89.4 -193.98,164.21 -298.4,253.6l0 149.28zm298.4 1104.34c-104.42,134.42 -208.9,253.76 -298.4,387.96l0 164.18c89.5,-149.28 193.98,-283.3 298.4,-417.72l0 -134.42zm-298.4 3641.19c89.5,-29.94 193.98,-59.72 298.4,-89.5l0 -74.64c-74.64,29.78 -164.2,59.73 -238.84,74.64l0 0 -14.87 0c-14.91,-14.91 -29.8,-44.86 -44.69,-74.64l0 164.14zm298.4 253.76c-104.42,59.56 -193.98,104.59 -298.4,148.97l0 74.79c104.42,-44.7 208.84,-104.42 298.4,-149.28l0 -74.48zm0 119.34l0 74.64c-104.42,44.7 -223.93,104.44 -298.4,149.14l0 -74.66c104.42,-44.7 208.84,-89.39 298.4,-149.12l0 0zm0 -6760.02l0 149.11c-104.42,59.78 -208.9,119.34 -298.4,193.99l0 -149.12c89.5,-59.73 193.98,-134.42 298.4,-193.98l0 0zm0 4223.15l0 104.58c-119.34,74.46 -223.93,178.79 -298.4,253.59l0 -44.71c74.49,-119.49 179.06,-223.91 298.4,-313.46l0 0zm0 417.73l0 104.65c-29.93,59.55 -74.64,134.36 -104.42,208.89 29.78,-104.64 59.72,-223.97 104.42,-313.53l0 -0.01zm0 3402.58l0 74.49c-119.34,-44.71 -223.93,-74.49 -298.4,-74.49l0 -59.78 14.89 0c14.89,0 29.8,0 44.67,0 -14.87,-44.68 -44.67,-134.03 -59.56,-223.76l0 -328.4c44.69,208.9 104.42,447.74 149.13,567.09 44.85,14.85 104.57,29.78 149.27,44.85l0 0zm0 178.91l0 59.93c-44.7,-14.92 -89.56,-14.92 -89.56,0 -14.86,14.71 29.85,44.49 89.56,74.49l0 104.42c-119.34,-74.49 -179.06,-134.42 -179.06,-193.83 -14.92,-74.79 59.72,-74.79 179.06,-45.01l0 0zm0 1686.48l0 29.78c-104.42,-29.78 -208.9,-89.56 -298.4,-208.9l0 -119.5c74.49,119.5 179.06,223.92 298.4,298.62zm-686.54 373.04c0,0 15.04,0 29.96,0l0 0c-14.92,14.75 -29.96,29.62 -29.96,44.7l0 134.42c89.71,-119.34 193.96,-223.98 253.72,-283.54 14.91,59.56 29.97,119.18 74.64,164.2 -14.89,-74.86 -29.78,-417.79 44.86,-611.94l14.92 0 0 -119.5c-194.16,-268.62 -313.35,-611.94 -358.18,-925.09 -44.86,-388.13 89.53,-641.68 343.26,-641.68l14.92 0 0 -59.78c-164.2,14.93 -313.35,59.78 -388.14,223.94l0 820.82c15.04,89.35 59.74,178.75 104.45,268.47 -29.66,14.92 -74.49,44.7 -104.45,59.73l0 74.51c44.85,-29.82 89.71,-59.43 134.38,-74.51 0,0 0,0 -14.89,0 59.75,104.47 104.45,193.87 179.09,268.67 -29.95,89.67 -74.64,268.46 -59.75,432.66l-14.89 -0.02c-59.74,29.78 -149.15,44.72 -223.94,74.83l0 149.11zm0 865.48c104.45,14.92 238.83,29.84 388.14,14.92l0 -89.72c-164.2,15.07 -283.69,15.08 -388.14,0l0 74.8zm388.14 -12162.13c-134.42,74.47 -268.65,164.14 -388.14,238.67l0 149.28c119.49,-74.64 253.72,-164.2 388.14,-238.84l0 -149.11zm-388.14 2954.61c104.45,-89.56 223.94,-179.1 328.36,-253.59 14.93,-15.07 44.86,-29.95 59.78,-44.85l0 -149.3c-44.85,29.78 -89.56,59.74 -134.42,89.73l0 -0.01c-59.74,44.64 -149.27,104.43 -253.72,194l0 164.02zm388.14 1193.82c-164.2,223.83 -298.43,462.67 -388.14,716.38l0 253.74c74.79,-283.54 223.94,-552.14 388.14,-805.9l0 -164.22zm-388.14 3342.83c119.49,-15.1 253.72,-44.88 388.14,-89.57l0 -164.15c-179.12,-238.53 -313.35,-537.13 -388.14,-850.62l0 373.1c74.79,208.84 209.02,432.82 328.36,597.02 -119.34,29.62 -223.91,44.65 -328.36,74.65l0 59.57zm388.14 313.15c-134.42,59.93 -268.65,119.49 -388.14,164.52l0 59.44c119.49,-44.52 253.72,-89.55 388.14,-149.15l0 -74.81zm0 119.49l0 74.66c-29.96,0 -59.78,15.08 -74.67,29.83 0,89.66 29.82,253.69 74.67,417.89l0 328.4c-74.67,-238.68 -134.42,-581.99 -134.42,-731.26 -74.48,29.76 -164.01,74.63 -253.72,104.31l0 -74.55c134.38,-44.81 253.72,-104.25 388.14,-149.28l0 0zm0 -6715.16l0 149.11c-134.42,74.64 -268.65,149.29 -388.14,238.85l0 -149.29c119.49,-74.69 253.72,-164.2 388.14,-238.67l0 0zm0 4342.63l0 44.71c-29.96,14.76 -44.85,29.79 -59.78,44.7 14.93,-29.94 29.82,-59.77 59.78,-89.41zm-1358.08 2686.01c44.86,14.92 104.45,29.84 208.87,44.7 -119.31,119.5 -313.32,358.35 -358.16,611.94 -119.33,-149.17 -268.48,-194.13 -358.01,-209.05 -343.29,-372.78 -910.34,-731.11 -1477.42,-701.12 -134.24,-164.37 -358.18,-328.41 -656.62,-268.85 -402.85,74.7 -462.6,955.22 -343.25,1537.05 44.82,268.77 179.09,507.46 358.18,686.52 29.78,119.49 74.64,313.49 283.51,492.59 283.54,2059.2 2313.12,1059.64 3312.84,865.49l0 -149.13c-1014.64,328.25 -2850.21,1059.31 -3223.28,-641.7l0 0c119.34,89.54 283.51,164.03 507.3,238.67 -44.7,-104.42 -567.05,-268.62 -671.5,-641.73 268.62,193.99 611.75,298.62 940.15,313.33 -164.2,-74.64 -1298.33,-223.76 -1462.38,-1268.37 -74.64,-611.72 119.34,-835.53 283.39,-865.64 0,74.49 15.04,149.28 74.79,223.98 14.77,-89.56 14.77,-164.2 29.82,-223.98 59.59,15.08 164.16,59.78 298.43,164.2 -29.81,44.71 -74.67,134.27 -134.27,223.94 104.46,-29.79 164.05,-104.44 208.91,-179.23 164.04,149.44 447.71,462.77 731.09,1119.39 -149.12,59.41 -193.98,119.35 -223.79,178.91 89.56,-29.78 179.09,-59.56 268.65,-59.56 208.87,552.16 328.37,1208.91 805.89,1372.78 -29.94,59.94 -44.86,134.42 -29.94,194.14 29.94,-15.08 74.64,-89.72 119.5,-164.19 59.59,-0.01 134.23,15.08 208.87,15.08 -29.78,59.39 -59.75,134.03 -74.64,163.87 44.86,-0.01 149.28,-44.54 193.98,-178.95 268.65,-29.97 537.27,-134.37 686.55,-283.55 44.7,29.84 89.56,74.7 104.3,89.73 0,-74.81 -14.74,-119.52 -29.8,-164.53 134.4,-149.12 268.79,-253.54 387.98,-328.18l0 -74.53c-119.19,74.51 -268.47,193.87 -402.89,343.31 -59.57,-89.72 -149.29,-134.42 -193.98,-149.44 -74.48,-14.92 -74.48,134.36 -29.78,149.44 29.78,15.03 74.47,44.7 134.23,89.56 -149.15,149.12 -402.88,253.71 -626.81,283.49 0.01,-44.81 0,-74.65 0,-119.51 0.01,-89.5 -119.34,-89.5 -119.34,-29.61 0.01,44.36 0,104.31 -14.91,149.12 -59.75,-0.02 -134.23,0 -193.98,-15.03 29.81,-44.7 59.75,-89.72 89.56,-119.34 59.75,-44.86 -29.81,-59.78 -59.75,-59.78 -14.92,30 -74.51,89.4 -119.34,164.37 -462.63,-149.45 -596.86,-791.02 -790.84,-1343.16 44.67,-0.02 74.48,0 104.26,0 44.86,-14.94 59.75,-179.08 -59.59,-149.29 -44.67,0 -74.64,14.87 -104.42,29.78 -268.65,-686.58 -552.19,-1014.76 -716.36,-1149.03 29.78,-59.56 44.83,-119.34 44.83,-149.12 0,-59.78 -104.42,-104.47 -119.5,-29.94 0,0 15.08,59.72 -14.89,104.42 -149.11,-104.42 -238.69,-134.24 -313.32,-149.12 29.79,-74.79 59.74,-104.47 74.63,-134.25 14.93,-59.9 -104.57,-119.34 -149.27,-15.07 -14.89,44.85 -29.82,89.56 -44.86,134.42 -149.12,14.9 -313.32,193.96 -328.21,402.86 0,-432.66 119.34,-761.04 358.18,-820.78l0 0c343.26,-89.56 701.44,298.57 761.03,358.03 -14.89,-14.92 -29.78,-59.46 -74.64,-104.31 641.72,-0.02 1432.72,611.76 1760.93,1223.64 15.06,-104.42 -59.75,-268.62 -208.87,-447.68 179.09,45.02 373.07,387.97 432.82,462.76 -29.97,-134.42 -74.64,-238.99 -134.42,-328.38 14.92,-164.37 194.01,-477.7 477.52,-686.54 14.91,0 14.91,0 14.91,0l14.89 0c194,-29.84 373.24,-74.53 552.18,-119.49l0 -74.55c-193.99,44.87 -387.98,89.58 -596.87,119.51 -238.68,14.91 -790.84,-134.37 -1044.57,-462.77 0,-14.92 -14.89,-104.26 29.78,-134.42 179.09,-44.64 402.88,-223.76 447.74,-298.23 14.89,0 74.64,44.69 89.53,89.39 14.89,-29.62 59.75,-59.45 59.75,-59.45l-14.89 -0.01c-29.97,-44.85 -89.7,-89.66 -119.5,-104.58 -253.73,253.54 -432.66,283.54 -522.38,298.4 -29.78,44.86 -59.59,164.2 -59.59,179.12 119.34,223.76 373.1,402.88 626.67,492.55 0,0 89.69,29.83 134.39,44.71l0 -0.02zm969.94 3103.97l0 134.42c-149.13,164.14 -283.39,358.02 -268.47,477.52 14.89,59.56 104.42,119.34 268.47,134.04l0 74.8c-193.99,-44.7 -313.33,-119.17 -328.22,-208.84 -29.96,-164.2 149.28,-418.12 328.22,-611.94l0 0zm0 -11102.68c-268.47,164.14 -537.12,328.35 -775.96,522.33 -701.28,537.13 -1656.48,1805.61 -1596.73,3342.79 14.89,552.16 283.51,731.24 537.27,477.7 567.05,-567.26 1208.77,-1149.35 1835.42,-1626.88l0 -164.04c-596.87,462.6 -1641.44,1402.58 -1865.39,1671.42 -223.79,283.31 -387.96,59.56 -372.91,-74.7 59.59,-1387.88 1119.07,-2104.16 2238.3,-2790.59l0 -149.29c-1089.28,656.58 -2118.96,1328.1 -2283.16,2715.94 0,-1566.76 895.45,-2760.63 1596.76,-3297.88 223.94,-179.11 447.71,-328.4 686.4,-477.52l0 -149.28zm0 4626.12l0 253.76c-29.79,104.42 -59.6,193.83 -74.49,298.42l0 -0.02c-44.7,283.56 -14.89,626.88 74.49,969.97l0 373.1c-14.9,-14.92 -14.9,-29.83 -14.9,-29.83l0 0c-74.48,149.33 -179.09,492.43 -223.79,716.19 74.64,0 149.31,-14.69 238.69,-14.69l0 59.57c-89.38,14.9 -164.05,14.9 -223.8,14.9 -14.89,-44.69 -89.53,-89.39 -89.53,-89.39 29.94,-283.71 164.2,-731.44 223.95,-910.51 -104.61,-358.02 -134.42,-745.97 -89.56,-1074.38 44.7,-193.97 104.45,-387.95 178.94,-567.07l0 -0.02zm0 3104.14l0 59.44c-522.23,179.23 -1059.5,194.15 -1507.21,-268.34 -74.48,-89.67 -59.59,-89.67 -44.7,-134.37 492.41,552.16 1029.68,522.07 1551.91,343.27l0 0zm0 1253.43l0 820.84c-44.71,-119.49 -59.6,-223.98 -74.49,-328.38 -14.89,-223.78 14.89,-387.98 74.49,-492.46z"/>
   <path class="fil8" d="M5123.02 18289.65c0,0 -134.26,-104.41 -328.4,-134.36l0 74.64c29.97,0 59.75,15.08 104.44,29.78 164.21,45.03 313.49,179.12 283.71,268.79 -29.97,89.39 -223.95,119.5 -388.15,74.47l0 74.7c149.31,29.78 298.44,0 358.18,-29.67 -59.74,89.39 -208.87,119.19 -358.18,74.48l0 59.61c179.27,44.7 373.23,29.78 417.93,-179.12 0,0 119.5,-164.14 -89.53,-313.31l0 -0.01zm-328.4 -134.36c-74.48,0 -134.23,-15.07 -208.87,0 -313.32,59.88 -268.49,298.57 -119.34,462.6 59.75,74.49 193.98,134.42 328.21,164.2l0 -59.62c-208.87,-44.8 -417.77,-208.84 -372.91,-417.73l0 0c59.59,238.67 208.87,343.26 372.91,372.93l0 -74.7c-14.73,0 -29.78,0 -29.78,0 -179.09,-59.56 -298.43,-208.84 -268.65,-298.23 29.97,-74.81 149.31,-104.59 298.43,-74.81l0 -74.64z"/>
   <path class="fil8" d="M4481.3 19125.35c-44.7,-14.86 -134.39,-44.69 -134.39,-44.69 29.94,59.61 -74.48,253.59 -104.45,283.37 104.45,-29.78 194.14,-149.12 238.84,-238.68z"/>
  </g>
 </g>
</svg>
