<?xml version="1.0" encoding="UTF-8"?>
<!DOCTYPE svg PUBLIC "-//W3C//DTD SVG 1.1//EN" "http://www.w3.org/Graphics/SVG/1.1/DTD/svg11.dtd">
<!-- Creator: CorelDRAW 2021 (64-Bit) -->
<svg xmlns="http://www.w3.org/2000/svg" xml:space="preserve" width="210mm" height="297mm" version="1.1" style="shape-rendering:geometricPrecision; text-rendering:geometricPrecision; image-rendering:optimizeQuality; fill-rule:evenodd; clip-rule:evenodd"
viewBox="0 0 21000 29700"
 xmlns:xlink="http://www.w3.org/1999/xlink"
 xmlns:xodm="http://www.corel.com/coreldraw/odm/2003">
 <defs>
  <style type="text/css">
   <![CDATA[
    .fil3 {fill:#FF9999}
    .fil1 {fill:#FFFF99}
    .fil4 {fill:white}
    .fil0 {fill:black}
    .fil2 {fill:white}
   ]]>
  </style>
 </defs>
 <g id="Camada_x0020_1">
  <metadata id="CorelCorpID_0Corel-Layer"/>
  <g id="_2947093654800">
   <path class="fil0" d="M11053.18 4877.12l9.18 9.19c371.47,-252.25 825.5,-376.06 1279.53,-362.3 87.12,-68.81 142.16,-192.62 275.16,-178.86 330.19,132.99 692.49,467.78 857.6,793.4l-77.96 -32.11 9.17 64.21c220.14,238.48 343.97,518.23 550.35,761.29 449.43,188.04 1013.51,243.07 1288.68,706.27 -59.61,18.33 -87.14,-41.28 -142.15,-36.69 27.5,55.02 119.23,110.06 174.26,165.1 137.58,178.86 206.38,357.72 146.75,564.09 -68.78,87.14 -55.02,243.07 -165.09,275.17 9.17,-41.28 -18.35,-96.31 -22.93,-142.17 -64.21,100.89 -45.87,261.41 -110.07,371.47 197.21,96.31 394.41,188.04 559.5,353.14 -188.03,-77.97 -389.81,-229.31 -614.54,-275.17l-155.91 229.31c279.74,132.99 573.25,302.68 816.32,518.23 -243.06,-142.17 -559.51,-330.2 -871.37,-426.51 -210.96,210.96 -449.44,454.03 -692.51,646.64 -137.58,238.49 -279.74,541.16 -559.5,651.23 -22.93,-32.11 18.34,-59.62 32.11,-87.14l-13.76 -13.76c-64.2,77.97 -151.35,142.17 -238.48,178.86 -68.79,-73.38 -183.45,-82.54 -275.17,-123.81 -114.66,-100.92 -238.47,-188.04 -376.07,-229.31 -215.54,55.03 -426.5,174.27 -582.43,339.36 284.34,220.14 307.27,591.62 362.3,926.4 105.48,426.5 -18.34,976.84 321.04,1320.8 403.58,463.21 651.22,1013.55 857.6,1573.05 22.93,270.57 -146.76,486.12 -343.96,683.33 -174.27,105.47 -421.92,22.93 -591.6,77.97 -59.62,96.3 -91.73,229.3 -220.15,238.48 -64.19,-13.76 -105.47,-100.9 -119.23,-165.1 -100.89,68.78 -215.54,100.88 -343.96,100.88 288.92,1100.67 1274.94,1926.17 1375.83,3091.04 321.04,559.52 793.41,1054.82 1022.71,1651.01 64.21,444.84 -238.48,816.33 -504.48,1132.76 -619.12,664.99 -1348.32,1063.99 -2100.44,1398.78 729.19,-27.53 1421.69,-270.59 2100.44,-495.3 302.7,-68.8 545.76,55.03 756.72,233.89 275.16,298.1 499.88,637.46 518.22,1054.8 -59.61,243.07 -334.79,293.52 -527.41,385.23 -637.46,270.59 -1302.45,-9.16 -1949.09,-77.96 -770.46,-128.4 -1628.07,-41.27 -2352.68,-284.34 -77.96,-41.28 -183.45,-96.31 -155.94,-210.96 55.04,-298.09 321.03,-532 307.29,-848.43l-316.45 36.69c-504.46,504.47 -1054.8,944.73 -1719.79,1086.91 -45.87,82.55 -87.15,178.86 -64.22,275.16 660.41,655.83 1458.39,1054.82 2311.42,1288.71 399,243.07 431.08,720.03 385.23,1146.53 -27.52,316.45 -215.54,609.95 -486.14,779.64 -458.61,215.54 -1114.42,151.34 -1540.92,-119.23 -504.48,-435.69 -724.62,-1041.06 -1086.91,-1563.87 -298.1,-444.87 -674.17,-857.61 -926.4,-1320.82 -68.8,-431.08 325.61,-720 385.23,-1123.6 50.45,-178.85 82.54,-380.65 100.89,-559.5 -201.78,-270.57 -353.13,-559.5 -495.31,-848.42 -119.23,-13.77 -233.88,-59.62 -330.19,-87.14l0 32.1c-169.69,41.27 -298.09,-68.8 -417.34,-178.87 -105.47,96.31 -201.78,-22.92 -288.92,-64.2 -151.34,-77.96 -155.93,-298.1 -330.2,-321.03 -183.45,-165.1 -174.27,-417.34 -339.37,-582.43 -105.49,-279.76 -50.46,-531.99 41.27,-811.74 -50.45,-9.19 -105.47,96.3 -165.11,41.27 -91.71,-348.55 261.42,-536.58 385.25,-825.5 192.62,-188.04 348.54,-499.9 660.39,-504.48 137.6,-36.7 266,13.76 385.25,41.29 394.39,-532 917.22,-1063.98 1265.76,-1628.09 96.31,-252.22 165.11,-513.63 275.16,-756.7 -146.74,-32.1 -192.61,-174.27 -229.31,-298.09 -36.68,-715.45 192.62,-1385.01 362.31,-2027.07 275.17,-894.28 651.24,-1751.91 1155.71,-2549.87 142.16,-183.46 330.19,-343.98 564.1,-288.93 91.71,55.02 197.19,105.47 275.16,188.02 110.07,-91.72 160.5,-233.89 229.3,-353.12 -197.2,-73.39 -449.45,-68.8 -637.46,-188.04 -59.63,27.5 -105.49,87.13 -178.87,77.96 -96.31,-82.54 -307.27,45.86 -330.2,-165.1 -64.19,-201.78 100.89,-330.2 188.04,-495.3 -41.27,-18.34 -77.96,36.69 -133,22.93 270.58,-440.27 389.81,-958.5 408.16,-1485.9 -467.77,476.95 -683.34,1077.74 -889.7,1673.93 -527.4,807.16 -1339.16,1481.32 -2201.35,1816.11 -105.48,4.58 -210.96,-77.96 -243.06,-188.03 0,-311.87 114.65,-577.85 197.21,-857.61 165.09,-435.68 371.47,-857.6 605.36,-1265.77 -559.51,4.59 -1256.6,243.06 -1761.07,-77.96 -50.45,-110.07 41.27,-215.55 68.78,-321.03 353.14,-701.69 1096.1,-1311.62 1660.19,-1857.38 362.31,-266.01 802.57,-394.4 1265.77,-440.27 421.92,-0.01 930.98,55.04 1366.67,-45.86 -165.11,-325.63 -275.18,-765.89 9.16,-1068.57 197.22,36.68 197.21,252.24 275.18,385.24 155.92,-486.15 403.57,-1063.97 926.38,-1274.95 -321.03,380.65 -554.91,825.51 -660.39,1288.7 215.55,-444.86 495.31,-917.22 953.92,-1201.55 -256.83,380.64 -554.92,775.05 -678.76,1201.55 412.76,-605.37 1004.37,-1210.73 1692.28,-1444.62 -550.33,330.2 -1008.94,784.23 -1462.97,1302.44z"/>
   <path class="fil1" d="M10415.71 5372.44l22.93 18.34c155.93,-220.13 233.89,-499.88 417.34,-724.6 -96.3,210.94 -220.14,490.72 -210.96,761.3l32.1 -45.89c4.59,-18.34 -9.17,36.72 13.76,45.89 87.14,-59.62 82.54,-174.27 142.17,-256.83 371.47,-325.64 848.43,-490.72 1375.84,-495.3 22.93,50.44 -77.97,73.37 -9.18,110.06 64.21,-27.53 105.49,-55.03 174.27,-41.27 -13.75,50.43 -110.06,96.31 -45.86,151.34 96.31,9.16 174.27,-100.89 275.16,-110.07 59.64,-36.7 155.95,-68.78 210.98,-9.17 467.78,316.42 738.35,779.65 1068.57,1201.56 357.7,183.43 765.87,266 1100.65,495.31 -82.54,55.03 -220.12,-77.97 -233.89,41.28 238.49,128.4 499.89,275.17 596.19,550.33l-275.15 -252.24c-73.38,77.96 110.07,105.48 119.23,197.21 41.28,123.81 165.11,206.37 123.83,362.3 -41.29,-114.65 -110.07,-229.3 -188.03,-316.45 68.79,238.48 -13.76,522.82 -142.18,738.37l-531.98 -55.04c50.45,-307.26 -41.28,-587.02 -293.51,-784.22 13.76,-197.2 -91.73,-371.47 -266,-463.2 -59.62,-18.35 -110.07,-68.79 -188.03,-55.03 91.73,-151.34 68.8,-348.55 -22.93,-495.3 -123.83,-137.59 -224.73,-298.1 -394.41,-385.23 -32.09,-96.31 -119.24,-174.29 -206.38,-220.14 -87.12,-18.36 -151.33,36.69 -201.78,77.96 82.54,-13.77 174.27,-22.93 256.81,32.11l50.46 55.03c-192.61,-55.05 -380.65,36.69 -490.72,165.11 36.69,18.33 82.56,-13.77 128.41,-18.35 36.69,206.36 68.8,449.44 243.07,614.54 -220.14,105.48 -454.03,224.71 -637.48,440.26l0 55.04 32.11 0c261.42,-224.72 596.19,-481.55 944.73,-298.1 -325.61,128.4 -756.7,403.58 -811.73,793.4 -206.38,275.16 -151.34,674.16 -174.27,1013.54 -408.18,224.71 -825.51,605.35 -917.22,1068.56 192.61,-284.34 376.04,-619.13 683.33,-807.16l220.13 -142.17c13.76,96.3 27.52,178.86 -9.17,266 -192.61,100.89 -353.14,284.34 -454.03,472.37 137.58,-87.14 270.58,-284.34 440.27,-362.3 13.76,261.39 -288.92,463.19 -495.3,582.43 -605.37,284.33 -1224.49,-59.62 -1834.45,-87.13 73.37,-87.15 206.36,-183.45 261.4,-307.27 -160.51,123.82 -348.54,252.23 -536.57,339.36 137.58,-137.58 293.52,-288.92 371.48,-463.19 -151.34,165.1 -362.31,307.27 -550.34,440.26l-9.17 -9.16c197.21,-210.96 449.44,-449.45 550.33,-738.37 -192.62,174.27 -343.96,476.96 -605.36,605.37 155.93,-266 343.96,-513.64 440.27,-802.57l-13.76 -13.77 -206.38 201.79c353.14,-669.58 311.85,-1504.24 408.15,-2270.12 -27.5,-27.53 9.19,-87.14 -36.68,-110.07 -41.27,68.77 -50.44,155.93 -73.37,233.89 -490.72,151.34 -866.78,674.16 -1013.53,1132.77 -293.52,224.72 -605.37,403.58 -935.58,536.58l660.41 -527.4c192.61,-353.14 343.95,-742.95 605.37,-1077.75 343.96,-4.59 674.15,-188.02 880.53,-495.3l-45.85 0c-192.63,197.2 -449.45,293.51 -683.34,417.34 -435.68,-32.12 -802.57,-298.1 -1265.78,-197.2 -463.19,119.22 -875.95,353.13 -1284.11,605.37 279.76,-311.88 559.5,-655.82 990.61,-747.54 398.99,-266.01 930.98,-50.44 1407.94,-100.9 417.34,-22.93 857.6,-64.2 1242.83,-197.19 -68.8,-55.04 -169.69,9.16 -265.99,-9.18l155.92 -133.01c-119.23,-45.86 -215.54,87.15 -339.38,96.33l-77.95 13.74c-105.47,-298.11 -178.86,-637.46 -68.79,-958.48 133,229.3 178.85,531.99 201.78,825.49 9.19,13.75 22.93,27.52 41.27,22.93 77.98,-105.48 36.69,-256.82 77.98,-376.06 73.37,-233.91 151.33,-467.78 275.16,-683.33 -114.65,265.99 -183.45,554.93 -197.2,862.19z"/>
   <path class="fil0" d="M11415.48 5138.54c-68.8,73.39 -201.78,73.39 -261.41,165.11 77.96,-22.95 201.79,-41.28 284.34,-64.21 -9.16,36.68 -55.04,45.86 -32.09,77.97 41.27,13.76 105.47,-36.69 133,32.1 -91.73,87.13 -220.14,151.35 -330.22,174.28 -238.46,408.15 -426.5,830.08 -564.08,1279.52 -18.34,-27.53 9.17,-73.38 -32.11,-91.73l-32.1 123.83c-27.51,-651.24 110.07,-1265.77 559.51,-1719.79 87.13,-9.18 183.43,18.34 275.16,22.92z"/>
   <path class="fil2" d="M13681.03 6074.12c36.69,123.8 -9.17,243.06 -64.2,343.96 -169.68,110.06 -279.76,-151.34 -449.45,-155.93 -87.14,-110.07 -146.76,-229.31 -197.19,-353.14 59.62,50.45 114.65,114.66 206.36,87.14 77.98,-32.11 77.98,-123.83 87.14,-197.2l-32.11 -119.25c188.04,36.69 330.22,243.08 449.45,394.42z"/>
   <path class="fil0" d="M11635.62 6051.18c-100.9,45.86 -183.45,-128.4 -284.34,-18.34 -174.26,220.13 -279.76,472.37 -385.23,724.61 9.17,-233.9 146.75,-463.2 252.23,-683.33 64.21,-45.88 110.08,-151.34 197.2,-142.18 77.97,32.1 151.35,68.8 220.14,119.24z"/>
   <path class="fil0" d="M11956.64 6074.12c-27.51,82.55 -123.82,27.51 -165.09,87.13 247.65,160.5 298.09,476.96 298.09,770.48 0,284.32 -160.51,531.98 -408.16,674.15 -160.51,91.72 -366.89,68.79 -518.23,-22.93 -119.23,-77.96 -155.93,-210.96 -197.2,-330.2l-32.11 55.03c-45.87,-105.48 22.93,-233.89 64.2,-339.37 206.38,-366.9 444.87,-930.98 958.5,-894.29z"/>
   <path class="fil3" d="M9282.93 6427.24c-444.84,366.9 -398.99,953.92 -903.46,1274.95 -206.37,142.17 -366.88,371.47 -596.19,454.03 -632.89,160.5 -1394.19,321.03 -2036.24,174.27 -36.69,-87.14 55.04,-197.21 110.06,-284.34 366.9,-509.06 770.47,-1086.92 1352.9,-1334.57 362.32,-220.13 761.3,-353.13 1155.71,-495.3 321.03,32.1 605.37,155.93 917.22,210.96z"/>
   <path class="fil2" d="M11997.93 6725.34c82.54,330.2 -55.04,623.71 -330.22,802.58 -96.3,82.54 -252.23,77.96 -371.46,45.86 -82.54,-55.04 -215.54,-77.97 -233.89,-201.79 -132.99,-247.65 73.36,-449.44 178.85,-660.41 41.28,9.18 41.27,68.81 64.2,100.9 77.97,59.61 165.11,133 275.18,87.14 128.4,-105.48 123.82,-266 132.99,-417.34 0.01,-87.15 -132.99,-210.96 0,-266 210.97,64.21 247.66,316.45 284.35,509.06z"/>
   <path class="fil1" d="M10039.65 6514.38c-68.8,215.54 -27.53,476.96 -165.11,660.41 -536.57,481.54 -830.08,1100.66 -944.73,1774.83 -605.37,752.11 -1371.25,1288.69 -2160.07,1715.21 -45.86,-9.18 -36.69,-59.63 -55.02,-87.14 59.62,-775.07 545.74,-1453.8 816.31,-2178.4 554.92,-155.94 1086.92,-385.25 1540.94,-784.24 243.07,-403.58 495.3,-889.7 944.75,-1123.6l22.93 22.93z"/>
   <path class="fil2" d="M13804.85 6537.31c-339.36,105.48 -683.32,302.69 -880.54,628.3 -73.37,197.21 64.22,362.31 188.04,504.47 -188.03,-73.37 -444.85,-169.68 -454.03,-417.33 192.62,-417.34 632.88,-660.4 1059.4,-738.36l87.13 22.92z"/>
   <path class="fil3" d="M14002.07 6725.34c100.88,362.31 -59.63,701.68 -243.08,990.61 -87.12,146.75 -261.41,45.85 -385.23,41.27 -165.11,-59.62 -330.2,-238.48 -371.49,-403.57 -22.92,-302.7 325.62,-454.03 513.65,-605.38 155.95,-32.1 394.41,-321.03 486.15,-22.93z"/>
   <path class="fil2" d="M14300.17 7284.84c18.32,165.1 55.01,307.28 9.16,472.38 -68.8,32.1 -133,13.76 -197.2,68.79l188.04 9.17 -22.94 178.86c-68.79,27.52 -155.94,-13.75 -229.31,32.11 36.69,64.2 142.17,9.17 206.37,41.27 9.19,105.48 -50.45,215.56 -77.96,321.03 -197.19,55.03 -426.5,-27.51 -605.37,110.07l-481.54 408.16c-183.45,0 -385.23,-119.24 -504.47,96.3l-100.9 123.83 22.93 22.93c123.83,-77.96 229.3,-275.16 408.17,-165.08 64.2,18.32 151.34,55.01 220.12,9.16 169.7,-188.04 376.07,-321.03 582.45,-472.37 133,41.27 440.27,-110.07 440.27,132.99 -36.69,206.38 -197.2,362.31 -311.86,536.58 -13.76,-59.62 73.38,-123.82 55.04,-206.36 -137.6,137.58 -284.34,334.77 -472.37,472.35 27.5,-73.38 128.39,-178.85 100.88,-288.92 -64.19,77.96 -114.65,183.45 -188.03,256.82 -178.85,-59.63 -348.54,-252.23 -573.26,-256.82 -481.54,41.27 -921.8,385.23 -1155.71,816.33 -50.43,160.51 -174.27,302.69 -142.16,486.12l165.1 -311.85c-9.18,279.75 36.69,609.96 188.04,862.19 -77.98,-45.86 -68.8,-155.92 -155.95,-165.09 50.46,165.09 160.53,330.2 256.84,495.3 -50.46,-41.28 -100.89,-68.8 -146.76,-123.83 22.92,133 146.76,247.65 210.95,376.06 50.46,142.16 91.73,293.51 87.15,463.2 -64.22,-105.48 -82.56,-224.72 -165.11,-321.03 -32.1,91.72 18.35,206.37 0,321.03 -32.1,302.68 -188.03,568.68 -174.27,880.53 -458.61,132.99 -999.76,100.91 -1476.74,151.34 174.29,-376.05 449.45,-742.95 408.18,-1219.91 64.2,123.84 18.34,247.66 110.07,362.31 233.89,-174.28 73.38,-467.78 22.93,-683.34 82.54,77.98 201.77,146.77 316.43,133.02 59.64,9.15 91.72,-36.69 133,-64.22 -133,-82.55 -252.24,-210.96 -353.13,-343.96l155.93 22.93c-36.69,-128.42 -165.11,-261.41 -243.07,-394.41 -165.09,-188.02 -82.55,-444.85 -41.27,-660.39 96.31,-238.49 169.68,-481.54 330.21,-697.1 486.12,-4.58 1086.91,-59.62 1362.07,-568.66 82.54,-174.3 45.85,-435.7 298.11,-486.14 68.78,-27.52 137.58,-77.96 188.01,-119.23 -151.32,-13.77 -279.74,91.71 -408.16,174.26l0.01 -252.24c151.34,-114.66 353.13,-128.4 495.29,-233.89 -137.57,-4.59 -284.34,41.28 -417.33,77.97l-22.93 -22.93c-13.76,13.75 -13.76,36.68 -32.11,45.86l-32.09 0c9.17,-293.52 -32.11,-554.92 73.36,-779.64 215.56,330.19 609.96,449.43 990.6,481.54 366.91,-73.39 472.38,-467.78 550.34,-770.47 73.39,9.17 128.42,100.9 155.95,165.09z"/>
   <path class="fil0" d="M11910.79 7826.01c-188.04,233.89 -518.24,229.31 -770.47,165.1 -41.27,-22.93 -82.56,-32.1 -119.25,-68.79 197.22,59.62 504.48,110.07 701.68,-9.17 256.84,-210.96 316.45,-499.89 421.92,-770.46 -13.75,229.3 -91.71,481.53 -233.88,683.32z"/>
   <path class="fil1" d="M14914.71 7881.04c-18.35,82.56 -91.73,146.76 -142.19,220.14l-362.3 -77.97 41.28 -197.2c155.94,18.35 325.6,4.59 463.21,55.03z"/>
   <path class="fil1" d="M14694.56 8188.32c-96.31,160.51 -279.74,348.54 -449.43,486.12 -119.25,-183.44 114.65,-302.67 119.23,-476.95l22.93 -87.14c110.08,4.59 215.54,27.52 307.27,77.97z"/>
   <path class="fil1" d="M11030.25 9554.98c-192.61,229.3 -339.37,550.33 -385.23,880.54 -13.76,-197.21 -133,-362.3 -188.03,-531.99 137.58,-105.49 229.3,-252.23 275.16,-403.59l298.1 55.04z"/>
   <path class="fil1" d="M12241 9816.39c183.43,660.4 151.32,1371.25 454.01,1981.21 321.03,541.15 697.1,1082.33 921.82,1673.94 -27.52,206.36 -183.45,371.46 -339.38,518.22 -119.23,41.27 -265.99,100.89 -376.06,77.97 123.83,-100.9 77.96,-275.16 165.1,-385.23 59.62,-165.11 41.28,-380.66 -64.22,-518.24l-265.99 -233.89c178.87,-119.25 353.14,68.79 504.48,155.93 45.86,-41.27 -41.27,-55.03 -32.11,-100.9 -87.12,-119.24 -210.96,-169.68 -330.19,-220.13l-238.48 91.73c-123.82,-50.45 -275.17,-96.31 -408.16,-45.87 -59.62,-151.35 -165.11,-298.09 -252.24,-431.11l9.17 -183.43c45.85,50.45 -9.17,192.61 87.14,174.27 96.31,-119.24 100.89,-288.92 77.96,-440.27l22.93 22.92c55.04,-77.95 32.11,-178.84 22.93,-275.15 -45.86,-142.18 -123.82,-270.58 -210.97,-398.99 36.7,-0.01 82.57,36.69 110.08,-9.18 -238.49,-362.31 -408.18,-779.65 -362.31,-1233.66l339.38 -371.49c73.37,0 146.76,87.15 165.11,151.35z"/>
   <path class="fil1" d="M10360.68 10036.53c110.06,261.4 174.27,550.32 284.34,802.57l13.75 -9.18 252.24 394.41c-36.68,18.34 -105.48,-18.34 -132.99,-55.03l-9.18 -0.01c-9.16,160.52 137.58,288.93 252.23,399 22.95,18.34 55.03,22.93 77.98,55.03 -252.25,-59.62 -366.9,-316.44 -531.99,-495.3 59.62,243.07 210.96,481.54 201.78,770.46 -68.78,-87.13 -119.24,-197.19 -146.76,-307.26 -82.54,165.1 -18.33,371.48 -55.02,550.33 -82.56,343.96 -311.87,632.88 -394.41,976.84 -220.14,41.28 -467.8,13.77 -683.34,68.8 165.11,-518.23 472.38,-972.25 848.44,-1398.76 -334.79,105.47 -527.41,458.61 -724.6,738.36 -119.26,220.13 -215.57,463.21 -266,701.67 -238.48,82.54 -463.21,215.55 -637.48,417.34l0 36.69c302.69,-206.38 646.64,-371.48 1045.64,-376.06 921.81,-0.01 1848.2,-119.24 2664.54,-449.43 229.31,201.77 738.37,357.7 568.68,802.57l-119.25 -133c41.29,4.58 73.38,13.74 100.91,-9.18 -110.08,-64.21 -220.15,-137.58 -321.04,-220.13 0.01,206.38 334.78,316.44 243.07,559.5 -22.94,77.96 -82.56,146.77 -123.83,220.14 13.77,-178.87 -100.89,-316.44 -174.27,-449.44 13.76,183.45 137.58,389.81 45.85,591.61 -9.16,45.86 -27.51,87.14 -55.02,123.83 -146.76,-13.76 -45.87,-220.14 -91.72,-321.03 -36.69,-77.97 -91.73,-146.76 -165.11,-210.96 -27.5,13.74 -27.51,50.44 -9.16,68.78l-339.37 -68.78c-73.39,-87.15 -114.66,-206.38 -188.04,-284.34l-13.76 77.96c-1270.37,137.58 -2219.68,1082.33 -3540.5,1054.8 -68.78,0 -96.3,-73.38 -110.05,-119.23 13.75,-752.14 284.33,-1403.36 449.43,-2091.28 311.86,-885.12 674.17,-1751.9 1132.78,-2577.39 110.06,-96.32 229.31,-238.49 385.23,-151.35 137.58,64.2 178.86,210.96 266,316.45z"/>
   <path class="fil2" d="M12107.98 12834.05c-68.78,59.63 -183.43,59.64 -275.16,96.33 9.16,-137.61 68.8,-252.25 100.89,-385.25l174.27 288.92z"/>
   <path class="fil1" d="M11878.68 13865.92c-298.09,91.73 -201.78,426.53 -252.24,660.42 -9.16,91.72 32.11,215.54 -77.96,243.06l-22.92 0c-68.8,-256.83 -36.7,-522.81 -0.01,-770.47 59.62,-73.38 146.76,-100.89 178.86,-197.2 -105.48,36.69 -275.16,165.1 -288.93,275.17 -41.27,206.36 50.45,408.16 -77.96,596.2l-18.34 -22.93c27.5,-210.96 -41.28,-408.18 -100.9,-596.21 183.44,-169.69 339.38,-343.96 573.27,-394.39 36.69,64.19 59.61,137.58 87.13,206.35z"/>
   <path class="fil1" d="M11273.32 13847.6c-330.21,247.63 18.35,582.43 0,866.77 36.69,27.51 41.27,110.07 110.05,77.96l45.88 -45.86c27.51,50.44 -22.93,133 41.27,165.1 165.1,4.59 275.16,-137.58 398.99,-238.47 41.28,-96.31 41.27,-206.38 119.23,-288.93 155.94,981.42 908.07,1710.62 1265.79,2609.5 114.65,458.61 -9.18,930.98 -119.26,1352.9 -243.05,1192.38 -1128.18,2352.68 -2293.05,2815.87 -146.76,87.14 -321.03,105.49 -481.54,155.94 307.27,-435.69 752.12,-898.89 573.26,-1453.81 -403.57,-779.65 -908.05,-1531.76 -1389.59,-2288.47 -265.99,-990.61 -36.69,-2146.31 165.1,-3068.11 -142.17,165.1 -169.69,403.58 -229.3,614.54 -192.62,715.43 -201.8,1453.8 -77.97,2187.57 -82.55,-110.05 -151.34,-302.68 -229.32,-435.68 9.19,284.34 174.29,541.17 284.34,802.58 440.27,765.88 857.61,1545.53 1385.02,2274.71 105.49,454.03 -302.69,784.23 -550.34,1123.6 -545.73,664.99 -1252,1169.46 -2013.3,1430.87 32.1,4.58 68.78,41.28 100.89,13.77 9.17,96.3 -73.38,201.77 -13.76,307.27 655.81,687.91 1412.53,1224.48 2348.09,1288.68 417.34,385.23 357.72,967.68 220.14,1485.91 -45.87,73.38 -110.07,142.18 -178.85,197.21 119.24,-527.41 -91.72,-1119.02 -536.59,-1485.9l-22.92 0c316.45,435.68 628.29,967.66 481.53,1540.92 -87.12,55.04 -192.61,73.38 -293.5,96.32 -82.55,-545.75 -509.07,-1063.98 -1027.3,-1284.12l-9.16 9.18c412.74,321.03 834.66,770.46 958.49,1274.94 -435.68,45.86 -839.26,-50.45 -1201.56,-206.37 -302.68,-399 -481.54,-848.44 -738.37,-1265.78 -353.12,-531.99 -752.12,-990.6 -1164.87,-1499.65 9.16,-426.52 472.37,-710.86 472.37,-1141.95l32.09 -330.21 256.84 284.34 0 -55.04c-715.45,-1293.27 -1334.57,-2678.28 -1256.6,-4246.73 82.54,-298.1 380.64,-513.65 559.5,-761.3 531.99,-568.68 940.16,-1187.8 1100.67,-1912.41 1077.75,-32.1 1926.17,-674.15 2907.61,-967.66z"/>
   <path class="fil1" d="M12373.98 13989.76c22.94,32.11 45.87,77.97 22.94,119.24 -110.07,91.72 -247.67,178.87 -385.25,132.99l-100.88 22.94c-87.13,142.16 -87.13,321.02 -206.38,449.44l-22.93 -0.01c50.46,-270.58 4.58,-609.95 252.23,-811.74 119.25,91.72 298.11,41.29 440.27,87.14z"/>
   <path class="fil2" d="M6673.43 17278.01c-298.09,1077.73 32.11,2150.88 394.41,3104.81 -261.41,-59.64 -513.64,-330.22 -628.3,-573.29 4.58,178.87 133,343.98 256.83,472.38l9.17 68.8c-334.78,-146.77 -499.89,-499.9 -637.48,-793.41 22.94,224.72 110.07,449.45 229.32,651.23 -270.59,-96.31 -353.14,-380.65 -440.28,-605.36 -55.02,-151.34 -64.2,-325.63 -119.24,-476.95 -32.1,220.12 4.58,440.26 55.04,642.04 -279.76,-279.74 -169.69,-788.81 -100.89,-1123.6 -77.97,169.69 -174.27,334.79 -197.22,527.41 -32.09,-362.3 -18.34,-756.71 197.22,-1045.64l-9.18 -9.16 -321.03 275.16c55.03,-266 321.03,-587.03 605.37,-683.34 -87.13,-27.51 -165.09,32.11 -252.24,41.28 165.11,-197.2 417.34,-284.33 660.41,-348.54 -155.92,-32.12 -311.87,4.58 -449.45,55.03 197.2,-160.52 481.54,-252.23 747.54,-178.85z"/>
   <path class="fil1" d="M14332.26 19052.83c119.24,252.24 41.27,463.2 -119.24,678.74 -770.48,894.3 -1779.41,1573.05 -2829.65,1972.04l0.01 22.93c119.25,18.34 275.17,-73.38 385.24,22.93 848.43,91.72 1573.03,-243.07 2279.3,-564.09 481.55,-41.29 793.4,490.71 967.67,857.61l0.01 22.93c-169.69,-247.65 -431.11,-522.83 -692.51,-637.48 298.09,270.57 628.3,655.82 825.5,1036.47 -64.22,146.74 -233.89,165.09 -366.89,206.36 -110.07,-394.39 -463.21,-784.22 -866.79,-903.46 -64.19,0 -123.81,-36.69 -188.01,-9.16 431.09,146.74 834.66,490.7 1013.51,926.39 -793.38,247.64 -1554.68,-128.42 -2334.33,-146.75 -651.22,-119.25 -1403.36,36.68 -2013.31,-220.14 -55.02,-55.04 0,-146.76 32.11,-206.38 178.87,-206.38 325.61,-481.54 233.88,-747.53 1618.91,-449.45 2600.35,-2123.37 2792.96,-3687.24 252.24,463.19 587.03,917.22 880.54,1375.83z"/>
   <path class="fil0" d="M5792.9 17851.27c-9.17,-4.6 -18.35,4.59 -22.93,9.17l0 -32.11 22.93 0 0 22.94z"/>
   <path class="fil4" d="M10759.68 14008.1c-206.38,80.25 -1054.83,470.09 -1054.83,470.09 0.01,-0.01 -263.68,836.95 -275.16,1559.27 -11.47,722.3 11.48,1410.24 11.48,1410.24l183.43 321.01 1203.86 1914.71c0,0 183.45,378.36 137.59,607.67 -45.87,229.3 -605.37,1027.29 -605.37,1027.29 0,0 708.55,-75.67 1556.98,-820.91 848.44,-745.27 1112.14,-1673.94 1112.14,-1673.94 0.01,0 275.16,-814.04 275.16,-1398.78 0.01,-584.72 -206.38,-802.57 -206.38,-802.57l-733.77 -1329.97 -412.75 -1008.95 -149.05 435.69c0,0 -137.59,137.58 -206.37,149.05 -68.79,11.47 -126.12,-34.4 -126.12,-34.4l-22.93 -137.58c0,0 -32.11,27.53 -103.2,22.93 -71.07,-4.59 -103.18,-91.73 -80.25,-194.91 22.93,-103.19 -103.18,-355.43 -91.73,-263.7 11.48,91.72 -22.92,-217.83 -22.92,-217.83l123.83 -194.91c0,0 -307.27,80.25 -513.64,160.5z"/>
  </g>
 </g>
</svg>
