<?xml version="1.0" encoding="UTF-8"?>
<!DOCTYPE svg PUBLIC "-//W3C//DTD SVG 1.1//EN" "http://www.w3.org/Graphics/SVG/1.1/DTD/svg11.dtd">
<!-- Creator: CorelDRAW 2021 (64-Bit) -->
<svg xmlns="http://www.w3.org/2000/svg" xml:space="preserve" width="210mm" height="297mm" version="1.1" style="shape-rendering:geometricPrecision; text-rendering:geometricPrecision; image-rendering:optimizeQuality; fill-rule:evenodd; clip-rule:evenodd"
viewBox="0 0 21000 29700"
 xmlns:xlink="http://www.w3.org/1999/xlink"
 xmlns:xodm="http://www.corel.com/coreldraw/odm/2003">
 <defs>
  <style type="text/css">
   <![CDATA[
    .fil0 {fill:#FEFEFE}
    .fil1 {fill:#F2CA60}
    .fil9 {fill:#69500B}
    .fil5 {fill:#D685B6}
    .fil8 {fill:#814B08}
    .fil6 {fill:#D2629E}
    .fil4 {fill:#99384E}
    .fil3 {fill:#BF3E3B}
    .fil7 {fill:#922A0D}
    .fil2 {fill:#CEA01E}
   ]]>
  </style>
 </defs>
 <g id="Camada_x0020_1">
  <metadata id="CorelCorpID_0Corel-Layer"/>
  <g id="_2947825305184">
   <path class="fil0" d="M4700.89 4051.18l0 -87.16c43.66,-501.51 654.09,-1024.64 959.24,-1002.89 305.16,-0.01 501.39,87.17 806.66,632.32 697.62,-523.28 1177.25,-654.07 1722.38,-850.29 174.24,-937.51 850.19,-1111.83 1286.17,-1024.66 850.21,283.36 501.39,872.07 130.82,1111.83 566.8,87.27 1700.49,370.69 2964.89,348.8 392.6,239.73 414.35,1417.09 632.32,1591.55 174.36,174.35 1308.06,130.71 1983.9,828.43 697.63,697.61 370.68,2049.3 -130.81,3161.12 -457.72,1090.18 -850.2,1983.91 -1046.42,2638 -915.71,915.7 -3946.02,-893.85 -5123.37,-1177.25 -523.26,-239.86 -1242.63,-457.84 -2136.48,-217.97 -501.5,-1133.84 -2071.19,-2834.21 -1395.21,-4534.7 -283.4,-261.53 -588.68,-872.09 -654.09,-1395.35l0 -21.78z"/>
   <path class="fil0" d="M2651.6 24457.2c-327.06,217.99 -370.71,871.96 414.2,1591.45 457.74,392.44 1460.63,959.35 1765.9,523.26 217.99,-261.63 -348.92,-1242.75 -806.66,-1678.72 -435.97,-414.23 -1024.64,-675.86 -1373.44,-435.99z"/>
   <path class="fil0" d="M3567.2 25503.62c-43.66,-43.54 -65.31,-65.41 -87.19,-108.94 0.01,21.77 21.88,21.77 21.88,43.53 21.65,21.87 43.64,43.64 65.29,65.41l0.02 0zm1853.18 1526.03c0,0 0,0 -21.88,21.89 21.88,-21.89 21.88,-21.89 21.88,-43.54 0,21.65 0,21.65 0,21.65z"/>
   <path class="fil0" d="M6488.56 9501.49c-196.22,152.7 -632.21,741.26 -653.97,1046.54 217.99,65.41 479.62,174.35 588.68,283.4 -109.06,348.79 -283.52,675.84 -22.01,937.47 -217.85,348.68 -261.51,545.03 -261.51,763.03 0,217.97 -21.64,2354.47 -327.05,2790.46 65.54,283.5 414.34,523.27 675.86,501.5 -87.3,-218 -174.35,-501.5 -196.23,-588.67 545.16,-545.04 1853.2,-1329.84 2834.08,-1177.26 239.89,305.15 893.96,697.64 1526.16,741.29 654.1,-414.26 2311.06,-719.52 3074.07,-675.87 872.1,-806.68 1831.31,-1133.71 2071.08,-1569.69 -87.16,-152.71 -108.94,-239.76 -130.83,-348.8 239.76,-392.47 959.25,-1482.51 1569.69,-1591.45 174.48,130.69 435.97,261.51 697.72,414.2 0.02,-174.46 0,-545.13 -130.93,-632.32 -348.68,-174.34 -2289.05,-741.13 -3030.31,-784.77 -65.4,152.57 -632.32,1242.65 -784.89,1809.43 -501.26,545.03 -1744.03,130.82 -2616.11,-218 -850.16,-327.03 -3270.18,-1635.08 -4621.87,-1198.97 -152.58,-305.29 -130.81,-283.52 -261.63,-501.52z"/>
   <path class="fil0" d="M11328.56 8564.01c283.28,632.32 588.53,1133.71 915.58,1373.47 348.82,239.85 1089.94,588.67 1351.69,-21.77 -108.92,-348.81 -108.94,-653.96 -87.29,-937.48 -479.61,174.46 -1199,457.86 -2179.98,-414.22z"/>
   <path class="fil0" d="M12854.47 10983.99c196.23,21.77 392.56,21.78 610.42,-21.75 370.7,-109.06 654.08,-370.69 806.66,-741.26 65.43,-152.57 87.29,-327.03 43.65,-501.49 -65.28,-239.77 -87.17,-457.74 -65.28,-632.2 43.65,-261.65 -65.53,-523.27 -283.52,-697.61 -196.09,-152.61 -479.51,-196.24 -719.37,-109.05 -130.81,43.63 -261.63,87.29 -392.58,130.8l0.02 1613.32c21.89,21.77 21.87,65.43 21.87,87.18 0.02,-21.77 0,-43.52 -21.89,-65.41l0.02 937.47zm-87.05 -21.75c43.4,21.75 65.39,21.77 87.03,21.77l0.02 -937.49c0,-43.53 -0.02,-87.17 -0.02,-130.81l0.02 -0.01c0,21.76 -0.02,65.42 -0.02,109.07l0.02 -1613.34c-21.65,0 -43.65,0 -87.07,0l0.02 479.73c0,0 -0.02,-21.99 21.75,-21.99 -21.75,21.99 -21.77,22.01 -21.77,43.66l0.02 2049.41zm-1896.72 -2986.8c-283.52,196.23 -370.71,588.58 -218.13,893.73 348.93,806.66 741.25,1351.81 1155.6,1656.98 174.34,130.93 544.91,370.69 959.23,436.09l0.02 -2049.43c0,21.89 -0.02,43.65 -0.02,65.42l0.02 -0.02c0,-21.75 -0.02,-43.5 -0.02,-87.03l0.02 -479.75c-261.75,43.64 -545.17,-43.51 -959.25,-392.44 -261.76,-239.76 -654.09,-261.63 -937.49,-43.53l0.02 -0.02z"/>
   <path class="fil0" d="M11960.76 9566.9c305.15,-261.64 1111.81,-43.64 1089.92,697.62 -370.43,174.44 -1046.3,-479.63 -1089.92,-697.62z"/>
   <path class="fil0" d="M12527.67 10983.99c392.32,109.06 697.47,21.78 850.04,-65.39 261.77,-108.95 414.35,-370.57 414.35,-632.2 21.64,-632.21 -305.17,-1177.24 -850.32,-1438.88 -130.92,-65.42 -283.52,-87.29 -414.08,-130.92l0.01 1024.76c65.29,-65.53 108.91,-109.04 196.08,-152.58l0.01 0c0,21.75 -0.01,21.77 -0.01,21.77 0.01,174.32 -65.53,305.16 -196.09,435.97l0.01 937.47zm-1046.54 -1983.89c-196.23,174.46 -305.28,435.99 -239.88,697.62 87.31,501.38 675.84,981 1046.53,1177.23 87.06,43.64 174.34,65.4 239.88,109.06l0.01 -937.49c-22,21.89 -43.67,43.66 -65.55,65.41 -65.39,65.4 -109.04,65.42 -130.81,87.18 21.77,-174.36 87.17,-348.7 196.35,-457.74l0.01 -1024.79c-392.57,-43.52 -785.04,43.65 -1046.56,283.54l0.02 -0.02z"/>
   <path class="fil0" d="M13726.65 10657.08c87.05,-130.93 108.92,-283.51 108.92,-457.97 0.02,-196.12 -43.51,-392.33 -108.93,-566.79l0.01 305.14c21.77,87.29 21.75,152.72 21.75,239.89 0.02,21.75 0,43.63 0,65.4 0.02,-21.77 0,-21.77 0,-43.64 0.02,-87.18 0,-152.59 -21.76,-217.99l0.01 675.96zm-1198.98 196.1c130.57,109.06 283.15,152.59 479.48,109.06l348.82 -65.42c174.47,-43.64 305.14,-130.81 370.67,-239.73l0.01 -675.97c0,-43.66 -21.88,-87.17 -21.88,-130.71 0.01,43.52 21.87,65.3 21.87,87.07l0.01 -305.18c-152.69,-392.46 -501.51,-719.47 -937.48,-872.07 -87.28,-43.65 -174.46,-65.4 -261.51,-87.15l0.01 959.22c43.4,-21.77 87.04,-65.4 152.56,-87.15 0.02,174.32 -43.65,326.91 -152.57,457.86 0.01,-0.02 0,0 0,21.76l0.01 828.41zm-981.26 -675.85c152.6,109.06 327.16,174.36 501.5,152.59 87.19,0 152.57,-21.75 218,-43.52 0,196.09 43.63,392.32 196.21,501.38 21.9,21.87 43.53,43.65 65.54,65.42l0.01 -828.45c-65.54,65.41 -130.96,87.18 -174.59,109.06 0,-21.88 0,-43.63 0,-43.63l0 -0.02c0,-218.1 43.63,-348.79 174.58,-457.84l0.01 -959.26c-370.68,-43.65 -719.5,21.77 -981.27,218.12l0.01 108.92c43.66,-21.89 87.28,-43.64 130.93,-65.39l0.02 -0.01c-43.65,21.76 -87.31,43.53 -130.96,87.17l0.01 1155.46zm-174.34 -1111.83c-239.86,305.17 -217.99,719.39 43.52,1002.91l65.54 65.4c21.77,21.75 43.64,43.54 65.27,43.54l0.01 -1155.48c-43.51,21.88 -87.17,65.42 -130.82,109.05 43.65,-43.65 87.29,-87.17 130.81,-130.8l0.01 -108.96c-65.28,43.54 -130.82,108.96 -174.35,174.36l0.01 -0.02z"/>
   <path class="fil0" d="M12680.25 10438.96l0 0zm-741.38 -893.83c21.89,21.77 43.64,21.77 65.51,43.65 217.89,-283.52 1024.53,43.54 1002.77,632.2 43.55,0 65.42,-21.87 87.18,-21.87 0,-697.62 -893.85,-981 -1155.46,-653.98z"/>
   <path class="fil0" d="M10347.42 12095.82c-915.58,-784.78 -1569.69,-1090.05 -2223.78,-1308.04 893.85,87.17 1547.92,610.45 2223.78,1308.04z"/>
   <path class="fil0" d="M7404.15 10613.44c-87.05,370.55 109.18,741.14 479.63,871.94 501.51,174.46 1090.06,414.35 1984.01,1177.25 305.17,261.61 763.03,218.1 1024.54,-65.42 152.83,-130.7 218.1,-326.92 218.1,-501.38 0.01,-196.12 -87.18,-370.57 -218.1,-523.16 -632.07,-632.32 -1416.99,-1308.15 -2507.05,-1482.49l-21.87 -0.02c-43.42,-21.75 -87.07,-43.64 -152.6,-43.64 -370.43,-43.53 -741.13,196.23 -806.66,566.92z"/>
   <path class="fil0" d="M10543.65 14275.94c435.99,-283.4 1198.98,-523.15 2245.52,-566.78 -501.38,174.34 -1242.77,130.82 -2245.52,566.78z"/>
   <path class="fil0" d="M12767.42 12967.9c-1002.89,21.75 -1896.74,261.63 -2507.17,610.45 0,-0.02 0,0 -21.77,0 21.78,-0.02 21.77,0 21.77,0 -43.64,21.75 -87.29,43.64 -130.95,65.4 -217.85,130.81 -326.79,370.57 -326.79,632.2 0,109.04 21.64,218.1 65.28,327.07 196.23,348.79 610.43,501.5 959.24,348.8 545.04,-217.99 1002.89,-305.16 1395.22,-370.56 283.42,-43.69 566.92,-87.21 828.43,-174.5 348.94,-130.82 545.15,-479.63 479.75,-850.18 -87.17,-348.94 -392.46,-610.45 -763.01,-588.68z"/>
   <path class="fil0" d="M7186.3 10460.73c1831.19,-87.17 3509.92,1395.34 4730.79,1678.74 -1329.91,-152.59 -2747.02,-1569.67 -4730.79,-1678.74z"/>
   <path class="fil0" d="M7164.41 9719.47c-392.46,21.89 -719.49,348.94 -719.49,741.27l0 -0.01c0,392.45 327.03,719.51 719.49,741.25 937.48,43.64 1765.9,479.63 2572.56,893.85 675.87,348.79 1329.94,654.09 2005.66,763.13l21.9 0 -21.89 0c43.66,0 65.53,21.77 108.92,21.77 392.58,43.51 741.38,-239.87 806.66,-632.32 65.54,-392.34 -174.22,-763.03 -566.79,-850.18 -370.43,-65.42 -850.18,-327.05 -1351.69,-588.56 -1002.76,-523.28 -2245.41,-1155.48 -3575.33,-1090.2z"/>
   <path class="fil0" d="M6793.84 12575.56l0 0zm-327.03 3902.42c-21.89,0 -65.55,0 -108.94,0 43.39,0 87.05,0 108.92,0l0.02 0zm545.03 -7456.11l0 0zm108.93 130.82c0,0 -108.95,-108.94 -108.95,-130.82 43.53,43.63 65.54,65.42 87.19,109.05l21.76 21.77z"/>
   <path class="fil0" d="M7731.21 14319.47c501.49,-174.34 959.23,-217.86 1308.15,-217.86 65.42,-0.02 130.71,0 174.34,0 174.48,21.75 327.06,43.52 392.46,43.52 0.02,65.4 -43.53,130.82 -65.4,217.99 21.88,21.87 65.4,43.64 108.92,65.41 43.67,-152.59 109.17,-392.34 43.65,-479.63 -21.75,-21.77 -65.4,-65.4 -130.7,-108.92 -21.87,-65.42 -21.87,-87.19 -43.64,-130.82 392.46,-130.83 1613.2,-501.5 1853.07,-741.26 -501.36,261.63 -1438.99,479.62 -1918.49,588.68 -283.5,-741.27 -370.55,-1547.92 -479.73,-1896.72 152.57,130.79 305.39,283.4 479.73,457.74 -414.21,-697.62 -1199.1,-1220.76 -1896.72,-1286.17 326.93,87.16 741.26,283.4 1242.77,675.84 239.74,588.55 239.74,1460.63 544.91,2136.48 -65.28,-87.18 -108.94,-152.59 -152.59,-261.51 -21.87,261.5 348.82,544.89 435.99,632.08l0 -0.02c-479.51,-43.53 -1155.36,-108.92 -1918.49,174.48 -1046.41,392.48 -1482.4,1155.5 -1765.91,1177.27 87.29,87.27 196.22,65.38 283.51,0 43.66,-21.79 87.17,-43.66 130.83,-87.19 261.51,-218 632.2,-653.95 1373.34,-959.39z"/>
   <path class="fil0" d="M6619.38 16020.12c-21.77,0 -21.77,0 -43.53,0l-21.75 21.75c0,0 87.03,-43.5 65.28,-21.75z"/>
   <path class="fil0" d="M15754.08 12313.93c174.46,-501.51 719.47,-1308.16 1417.2,-1635.21 65.31,-43.65 130.58,-65.28 196.1,-65.28 152.61,-43.66 305.17,-87.29 479.63,-65.41l0.02 -0.01c21.76,65.42 21.75,239.76 21.75,348.82 43.65,43.51 65.52,87.17 109.18,108.93 0.01,-174.35 0,-435.97 -87.3,-632.2 -130.8,-196.24 -2005.77,-697.74 -3052.2,-806.67 -21.87,0 -21.88,43.65 -43.63,65.42 0.01,21.87 -21.77,43.51 -21.77,43.51 1090.08,130.93 2768.67,588.69 3008.55,763.15 0.01,-0.02 0,0 0,21.76 -523.15,-21.78 -1547.92,457.86 -2114.72,1700.5 -217.98,-435.99 -479.62,-741.26 -653.97,-959.26 21.79,-261.63 -21.87,-523.26 -152.69,-697.6 65.42,-109.06 109.06,-196.21 174.46,-327.03 -87.27,-174.36 -239.86,-326.94 -283.4,-392.46 -21.75,43.64 -21.76,43.64 -43.63,87.17 43.65,43.64 174.46,218.12 217.97,305.29 -152.55,436.09 -457.86,763 -501.49,1046.4 43.65,-65.42 65.52,-130.69 109.18,-196.11 21.76,87.17 -21.89,283.4 -130.83,523.16 -283.5,239.85 -719.49,457.86 -893.95,501.5 261.77,108.94 1024.78,-392.44 1090.18,-719.49 -21.99,43.64 -65.4,65.42 -87.29,108.94 108.94,-239.77 130.81,-392.34 152.57,-610.32 65.54,-65.42 109.06,-152.71 130.83,-217.99 87.3,108.92 130.8,370.57 109.04,610.31 -109.03,610.56 -566.9,1111.95 -1351.69,1504.4 654.1,-152.59 1264.4,-763.14 1417.11,-1329.92 326.93,261.61 588.66,697.6 763,1133.7 21.79,-21.89 65.43,-65.41 87.19,-87.29 -21.76,-87.19 -21.76,-65.3 -65.4,-130.71z"/>
   <path class="fil0" d="M15688.8 10591.55c65.28,0 108.92,21.89 152.55,21.89 -43.63,43.64 -87.29,108.94 -130.8,152.57 0.01,-65.42 0,-108.92 -21.77,-174.46l0.02 0zm-1482.52 -1286.29c0,0 -0.02,0 -0.02,-21.76 0.02,-21.77 21.77,-65.39 43.66,-87.16 0,-21.78 0,-21.76 0,-43.65 0,0 -21.89,87.17 -43.64,152.57z"/>
   <path class="fil0" d="M10848.81 14799.23c806.66,-436.12 1984,-632.33 2790.66,-632.33 43.55,-43.54 87.17,-87.17 108.93,-130.71 -1220.73,21.77 -2180,239.76 -3139.47,697.64 87.31,21.77 152.81,43.65 239.88,65.4z"/>
   <path class="fil0" d="M13748.42 13294.93c-1308.04,21.77 -2376.36,261.65 -3444.66,763.03 -283.38,130.81 -435.97,436.09 -414.2,741.29 21.89,305.27 261.63,566.8 545.03,654.09l217.99 65.38c174.46,43.54 370.67,21.77 523.27,-65.38 719.37,-370.71 1787.78,-545.17 2463.62,-545.17 196.12,0 370.57,-65.4 523.16,-217.98l108.93 -108.93c218.12,-196.27 283.5,-545.07 152.58,-828.47 -108.92,-261.63 -370.45,-457.84 -675.72,-457.86z"/>
   <path class="fil0" d="M13225.16 11616.31c-1264.4,0 -4425.54,-1787.78 -5668.31,-1787.78 -261.62,0 -479.49,21.88 -763.01,130.82l0 0c-21.89,21.77 -65.42,21.77 -87.17,43.66 0,-0.02 0,0 -21.89,0 -87.17,43.51 -239.86,108.92 -370.57,196.1 326.94,-108.95 675.86,-261.63 1199.12,-261.63 1395.23,43.64 4207.65,1765.9 5668.16,1809.53 479.64,21.89 937.48,-283.38 1090.06,-632.18 -43.5,43.5 -108.92,108.92 -217.86,196.21 -43.64,43.52 -65.52,65.42 -130.83,87.19 -174.44,130.79 -392.43,218.1 -697.7,218.08z"/>
   <path class="fil0" d="M6183.41 9479.72l0 0zm8393.32 2354.59c22.01,0 -65.3,65.42 -43.41,43.53 0,0 21.74,-21.77 43.39,-43.53l0.02 0z"/>
   <path class="fil0" d="M10042.27 6427.54c43.4,-152.59 283.26,-327.03 392.32,-217.98 -196.09,-0.01 -305.29,196.21 -370.57,261.63 -21.75,108.92 -108.94,370.56 -239.87,326.92 130.95,-43.53 174.45,-196.11 218.12,-370.57z"/>
   <path class="fil0" d="M10500.01 7234.2c65.52,-108.94 130.81,-217.98 196.21,-348.8 174.48,-65.42 327.03,-174.46 414.21,-348.8 43.65,-109.06 65.42,-218 65.42,-327.04 0,-174.47 -43.66,-327.05 -174.36,-479.64 -130.79,-152.57 -305.27,-261.61 -501.5,-283.38l0.02 1024.64c43.64,87.17 87.15,217.99 87.15,326.93l0.02 -0.02c0,21.89 -21.66,43.66 -21.66,87.31 -21.87,-0.02 -43.64,0 -65.53,21.77l0.02 43.51c21.89,-21.64 43.62,-21.64 65.51,-21.64l0.01 0c-21.88,0 -43.65,21.64 -65.54,21.64l0.02 283.52zm-305.17 -1787.66c-21.88,0 -43.65,0 -65.54,21.77l0.02 654.07c174.46,65.28 283.5,196.22 370.67,348.81l0.02 -1024.65c-108.94,-21.89 -196.25,-21.89 -305.18,0l0.01 0zm-65.52 2049.29c130.94,-43.65 261.73,-130.82 370.67,-261.63l0.02 -283.52c-21.77,0 -43.67,0 -65.42,0 21.76,0 43.63,0 65.4,0l0.02 -43.53c-21.77,0 -43.67,0.02 -43.67,0.02 -108.92,21.87 -217.86,21.87 -327.04,-21.77l0.02 588.55c65.52,-21.77 109.16,-65.29 174.44,-87.17 -65.26,21.87 -108.93,65.42 -174.46,87.18l0.02 21.87zm0 -2027.54c-348.8,65.4 -653.98,370.58 -784.79,697.74 -21.77,21.63 -21.77,65.28 -21.77,87.05 0,-0.02 -21.77,21.87 -21.77,43.64 -130.92,130.82 -217.97,305.28 -217.97,501.39l0 -0.02c0,327.17 217.97,610.57 523.14,697.74 87.19,43.52 305.27,87.19 523.14,0l0.02 -21.88c-21.65,21.88 -43.65,21.88 -65.3,21.88 21.65,0 43.64,0 65.28,-21.87l0.02 -588.58c-87.05,-43.63 -196.25,-109.04 -261.53,-196.21 -108.92,-130.82 -174.46,-305.16 -174.46,-479.61 0.02,-43.55 21.89,-65.54 21.89,-109.05 108.93,-21.79 217.85,-43.54 348.8,0l0 -0.02c21.65,0 43.64,0.02 65.28,21.89l0.02 -654.09z"/>
   <path class="fil0" d="M12941.76 5032.2c-65.4,43.65 -327.05,-130.81 -479.64,65.54 0.01,-239.88 305.28,-174.46 479.64,-65.54z"/>
   <path class="fil0" d="M12636.59 5795.32c65.3,0 130.81,-43.63 196.22,-65.4 196.12,-43.65 523.16,-87.15 523.16,-87.15 305.16,-43.66 392.43,-218.12 457.73,-523.27 0,-21.78 0,-65.42 0,-87.29 0,-261.53 -239.76,-479.5 -479.62,-632.08 -174.33,-109.07 -435.97,-196.24 -697.5,-196.24l0.01 174.34c21.65,0 21.63,0.02 21.63,0.02 22.03,-0.02 43.66,0 43.66,0 305.28,108.92 523.26,392.43 523.26,719.49 0.02,196.09 -130.81,414.2 -327.03,523.14 -87.29,43.64 -174.36,65.4 -261.53,65.4l0.01 109.04zm-457.86 -1482.49c-283.51,152.57 -457.75,435.98 -457.75,784.91 0.02,305.14 196.11,588.54 501.27,697.6 152.59,43.52 283.4,43.53 414.33,0l0.01 -109.07c-43.63,0 -65.54,-21.74 -87.29,-21.74 -239.74,-152.6 -479.62,-370.69 -479.62,-632.32 0.01,-21.78 0,-43.53 0,-65.42 65.42,-305.16 152.57,-479.61 457.98,-566.66 0.01,-0.01 65.28,0 108.92,-21.88l0.01 -174.36c-152.57,0 -305.28,21.64 -457.87,108.95l0.01 -0.01z"/>
   <path class="fil0" d="M13225.16 5228.42c-65.41,43.64 -130.83,109.06 -196.25,152.72 -239.74,65.4 -457.86,217.97 -850.19,523.14 21.78,-43.54 87.19,-130.83 152.59,-218 -370.55,-261.63 -675.86,-915.6 -566.8,-1417.09 21.79,457.84 239.87,1111.95 653.97,1351.69 218.11,-174.34 435.97,-348.8 806.68,-392.46z"/>
   <path class="fil0" d="M11045.16 4116.6c-21.89,108.93 -43.67,217.99 -43.67,348.82 0.01,457.84 174.36,937.48 435.99,1351.69 -21.87,65.4 -43.66,130.82 -43.66,196.23 0.02,196.21 109.06,392.43 283.52,545.03 283.42,217.96 719.37,152.57 980.88,-65.41 348.94,-305.3 479.75,-370.58 545.15,-370.58 130.73,-43.66 261.52,-109.04 348.81,-196.22l87.3 -87.3c261.51,-196.11 392.32,-545.02 261.51,-872.07 -130.68,-305.16 -436.1,-523.14 -763.02,-479.61 -217.98,21.87 -392.46,87.29 -545.03,152.68 -43.64,-130.81 -87.29,-261.61 -87.29,-414.33 -21.63,-370.56 -305.17,-675.73 -675.73,-697.6 -392.44,-43.53 -719.49,218.12 -784.76,588.67z"/>
   <path class="fil0" d="M14010.05 9588.78c196.23,370.57 -43.65,719.39 -174.48,850.2 21.79,-87.31 109.06,-196.23 152.6,-348.8 21.88,-174.48 21.87,-370.69 21.88,-501.4z"/>
   <path class="fil0" d="M13922.88 11201.98c174.34,-21.76 348.67,-130.8 479.61,-283.38 457.76,-523.28 544.91,-1155.46 239.75,-1678.74 -130.79,-261.65 -414.21,-414.21 -719.38,-392.34l0.02 850.2c108.94,0 196.09,21.77 283.38,65.42 152.59,87.27 239.87,217.98 305.17,370.67 -87.28,87.17 -196.23,152.59 -327.04,196.11 -87.17,21.75 -174.35,21.77 -261.53,21.77l0.02 850.29zm-109.18 -2332.81c-326.79,87.29 -566.67,370.69 -566.67,719.61l0.01 130.69 0 174.46c0,21.77 -43.67,109.08 -43.67,109.08l-87.15 261.49c-21.89,87.17 -43.65,174.48 -43.65,239.88 0,261.63 130.8,479.63 370.69,610.45 152.59,87.15 327.03,108.92 479.6,87.15l0.02 -850.31c-239.86,-21.75 -457.99,-174.32 -566.91,-392.32 -21.87,-21.89 -21.89,-43.64 -21.89,-43.64 174.48,-152.59 370.69,-239.88 588.78,-217.99l0.02 -850.2c-43.65,0 -87.31,21.65 -109.18,21.65l0 0z"/>
   <path class="fil0" d="M13290.68 10918.59c0,0 -0.02,0.01 -0.02,-21.75 326.83,-65.42 632.2,-239.75 850.08,-523.27 130.82,-130.82 174.46,-305.16 174.46,-479.62 0.02,-109.08 -21.65,-196.23 -65.28,-305.17 -43.64,-109.06 -65.53,-239.86 -65.53,-392.44 0,-21.78 0,-43.65 0,-87.18 0,0 0,-21.87 0,-43.64 0,-239.88 -130.7,-479.63 -348.82,-610.43 -174.44,-109.06 -370.68,-152.6 -544.91,-109.06l0.02 2572.56zm0 0l0 0c0,0 -0.02,0.01 -0.02,-21.75 43.44,-0.02 65.31,0 65.31,0 0,-0.02 -43.66,0 -65.29,21.75zm-2332.81 -2943.15c-305.29,196.23 -435.99,588.58 -261.65,937.39 174.48,370.67 392.34,719.49 654.09,1068.29 21.76,43.63 43.51,65.4 65.28,87.29l65.54 65.4c-21.89,-21.88 -21.89,-21.88 -21.89,-43.63 523.27,588.54 1024.76,872.06 1526.16,872.06 21.76,0 196.09,-43.64 305.26,-43.64l0.02 -2572.57c-65.52,21.87 -152.71,43.65 -218.11,65.4 -130.81,87.17 -261.75,109.06 -392.34,109.06 -239.85,-0.02 -566.92,-218 -763.14,-414.21 -239.73,-283.41 -654.07,-348.92 -959.24,-130.82l0.02 -0.02zm2332.81 2943.15l0 0c-21.89,0 -65.54,21.76 -65.54,21.76 21.9,-21.76 43.64,-21.75 65.54,-21.76z"/>
   <path class="fil0" d="M14664.02 6885.38l0 0c0,-741.37 -283.42,-1220.85 -588.56,-1460.73 0.01,21.89 0,65.41 0,109.06 283.39,261.61 501.25,653.97 479.6,1286.27 0.02,1417.09 -1046.52,2289.18 -1874.83,2289.18 -65.51,0 -130.93,0 -218.11,0l0.01 152.57c87.17,21.77 152.58,21.77 218.1,21.77 283.42,0 544.91,-87.16 763.03,-217.98 -21.87,326.91 43.63,610.31 130.68,828.43 -87.03,130.8 -261.63,261.63 -479.61,305.16 -21.76,-0.01 -43.65,21.87 -87.18,21.87l-21.74 0c-152.59,0 -327.19,-87.17 -523.29,-196.21l0.01 152.56c196.11,130.82 370.68,174.36 523.27,174.36 392.33,-0.02 654.07,-283.28 741.24,-632.2 0.01,21.87 -43.64,87.29 -87.17,109.04 -152.56,-305.29 -109.04,-632.19 -65.53,-828.41 632.34,-436.11 1068.3,-1242.76 1090.06,-2049.44 109.08,0 239.87,43.66 327.05,109.06 -21.76,-130.7 -217.99,-174.34 -327.05,-174.34l0.02 -0.02zm-2201.89 2223.78l0 0 0 152.57c-435.97,-87.17 -850.31,-392.56 -1090.07,-675.84 174.35,392.32 370.57,697.61 566.79,959.26 21.91,21.75 43.66,21.75 65.53,43.63 174.35,196.09 305.16,326.93 457.74,435.99l0.01 152.56c-435.97,-283.4 -828.44,-872.07 -1155.48,-1591.44l0.02 -65.42 0 -152.57c65.4,-87.29 152.57,-152.7 261.73,-218.1 0.02,43.64 21.65,130.83 -22,152.69 -87.16,43.54 -174.34,108.94 -217.86,196.11 370.47,392.56 762.89,545.15 1133.58,610.56l0.01 0zm-1155.46 -741.26c-174.46,196.11 -261.53,414.22 -305.18,610.33 87.07,-65.42 130.7,-261.63 283.4,-435.97 0.01,21.75 0,21.76 21.76,43.63l0.02 -65.42 0 -152.57z"/>
   <path class="fil0" d="M16015.83 16826.78c0,21.75 -0.02,43.53 -0.02,87.17 0.02,697.6 -109.17,1373.46 -261.75,1787.66 -784.77,2202.01 -2703.38,3510.06 -5145.13,3510.06 -414.09,0 -806.42,-65.4 -1133.59,-152.69 21.78,-152.59 43.65,-305.17 43.65,-479.63 0,-1133.59 -523.16,-2267.29 -1068.29,-2703.26 -370.57,-261.65 -741.26,-392.46 -1111.83,-414.22l0 -675.86c392.34,239.87 828.31,435.99 1286.29,545.05 719.37,174.32 1264.4,174.34 1722.26,174.34 261.53,-0.02 501.37,0 654.07,43.64l196.24 87.17c501.28,217.99 1438.85,610.43 2376.21,0.02 501.53,-326.95 784.9,-828.43 850.2,-1373.46 22,-43.55 21.99,-109.06 21.99,-152.59 43.55,0 108.93,21.76 152.59,21.76 435.99,-0.01 915.6,-108.93 1417.09,-305.16l0.02 0zm-8676.96 5929.92c43.64,-43.63 87.17,-65.4 130.81,-109.05l414.1 -435.98c0,0 21.89,-21.88 43.64,-21.88 65.54,-196.11 109.17,-392.32 109.17,-610.44 0,-675.73 -305.4,-1373.46 -457.98,-1504.14 -87.17,-43.66 -152.57,-87.29 -239.74,-130.83l0 2812.32zm5297.72 2725.15c21.65,0 152.58,43.66 152.58,43.66 0,0 -43.66,0 -65.42,0 -21.86,-21.89 -43.52,-43.66 -87.16,-43.66zm-5297.72 -7019.98c-218.1,-21.89 -457.86,0 -675.85,65.3 21.76,-305.18 87.17,-675.86 217.99,-1089.96 152.71,130.69 305.27,239.76 457.86,348.82l0 675.84zm0 1482.5l0 2812.33c-305.15,305.17 -675.85,697.61 -1090.18,1220.77 -283.4,348.92 -523.14,719.49 -763.02,1090.06 -239.75,414.32 -632.2,1002.89 -828.31,1090.16 -196.21,-21.87 -741.38,-217.98 -1199.12,-675.84 -196.21,-196.23 -457.84,-523.26 -457.84,-893.83 0,-327.16 327.03,-719.49 545.13,-719.49 108.96,0 196.11,43.64 392.34,217.99 196.22,174.34 457.74,261.64 719.49,174.34 239.76,-65.3 435.97,-261.52 501.27,-523.16l218.12 -872.06c239.86,-1024.66 457.84,-1896.6 1090.04,-2507.17 21.77,-21.77 21.77,-43.52 43.65,-65.41 21.77,-21.76 43.64,-21.74 43.64,-21.74l0.02 -0.02c392.31,-348.8 610.31,-392.44 784.77,-326.93z"/>
   <path class="fil0" d="M5507.55 22996.46c261.63,-981.02 523.27,-2005.67 1155.47,-2616.1 479.62,-479.63 610.43,-370.57 784.79,-239.87 218.1,196.21 392.56,893.95 392.56,1417.22 0.01,196.1 -21.89,370.56 -65.53,501.27 -87.17,87.29 -327.03,348.92 -523.26,545.03 -370.57,392.45 -871.96,893.83 -1242.63,1417.09 -21.77,0 -174.36,218.12 -327.06,457.86 0,-21.76 0,-43.51 0,-43.51 0,-327.18 -152.57,-654.09 -305.16,-915.72 65.3,-239.76 130.82,-523.27 130.82,-523.27l0 0zm-239.74 2092.94c-21.89,43.65 -43.66,65.42 -65.54,87.18 0.01,-21.76 -21.75,-21.76 -21.75,-43.53 21.76,-21.89 65.4,-21.89 87.29,-43.65l0 0zm3858.6 -2419.87l0 0zm-4098.47 4709.04c-21.88,21.77 -43.65,43.54 -65.42,43.54 21.77,0 65.41,-21.77 109.06,-43.54 -21.89,0 -43.65,0 -43.64,0z"/>
   <path class="fil0" d="M13944.65 23149.04c-174.34,654.09 -479.76,1199.12 -981.02,1635.09 -501.5,435.97 -1221,675.95 -1744.15,784.89 152.59,-174.34 305.29,-370.57 435.97,-588.66 261.65,-414.23 327.06,-806.55 348.93,-1177.23 566.69,-108.94 1220.76,-283.4 1940.25,-654.09l0.02 0zm-1896.72 3858.96c-65.42,21.65 -130.84,43.54 -218.01,65.3 108.95,-21.76 174.46,-43.65 218.01,-65.3z"/>
   <path class="fil0" d="M12353.08 18200.24l0 -196.23c261.64,43.53 501.37,0 763.12,-152.7 566.82,-370.56 632.2,-1220.76 43.54,-1809.43 -239.75,-261.64 -523.16,-457.74 -806.66,-588.54l0 -130.95c327.17,152.7 632.32,370.69 915.7,675.98 523.29,566.78 654.08,1504.26 -87.29,2005.64 -283.38,196.23 -566.78,217.99 -828.41,196.23l0 0zm0 9679.73c348.81,-130.83 632.32,-283.4 697.6,-545.03 130.82,-435.99 -152.57,-1024.66 -610.31,-1133.6 -21.87,-21.88 -43.66,-21.88 -87.29,-21.88l0 108.93c21.76,21.89 43.63,21.89 65.4,21.89 392.34,109.06 632.2,741.26 545.15,1024.66 -65.52,130.8 -305.41,283.39 -610.55,370.56l0 174.47zm0 -12557.58l0 0c-501.5,-261.53 -1024.54,-414.22 -1504.29,-523.14 -87.03,-21.78 -152.57,-43.65 -239.86,-65.42 -348.67,-87.17 -697.5,-196.25 -959.25,-305.3 -43.5,-21.77 -87.05,-43.52 -108.92,-65.41 -130.81,-87.18 -261.53,-152.59 -327.06,-261.51 -43.63,-0.02 -108.93,0 -174.34,0 501.4,806.56 2071.07,697.64 3313.72,1351.73l0 -130.95zm0 10857.07l0 108.93c-348.69,-65.4 -806.68,21.89 -1417.12,414.23 109.2,-130.71 283.52,-261.53 523.28,-370.57 -87.17,0 -152.59,0 -239.76,-21.77 348.94,-21.89 741.26,-130.82 1133.6,-283.52l0 130.93c0,0 -21.77,0 -21.77,21.77l21.77 0z"/>
   <path class="fil0" d="M10827.04 2241.64c0,21.87 -0.01,43.66 -0.01,43.66 0.01,-0.02 0,-21.77 0,-43.66l0.01 0zm1765.92 2856.08l21.76 0c0,21.77 -0.01,21.78 -0.01,21.78l-21.75 -21.78zm2965.01 4534.58c-22.01,43.53 -174.6,414.22 -218.11,501.51 43.53,-87.29 218.09,-501.49 218.11,-501.51z"/>
   <path class="fil0" d="M10434.61 6841.75c-305.29,21.87 -610.46,217.99 -741.28,348.82 21.9,-218 632.2,-479.63 741.28,-348.82z"/>
   <path class="fil0" d="M10064.02 7822.87c65.3,-21.87 108.94,-65.51 152.57,-109.04l0.02 -0.02c43.65,-43.64 196.21,-130.79 261.61,-130.79 283.54,-21.78 523.27,-196.24 653.97,-457.74 109.08,-261.66 65.53,-545.17 -130.7,-763.14 -130.79,-152.59 -414.33,-392.46 -937.47,-261.63l0 436.09c239.76,130.69 370.57,370.57 370.57,653.97 0.02,21.75 0,43.63 0,65.4 -21.75,152.68 -65.41,239.86 -109.06,283.4 -87.03,-0.02 -174.34,-21.77 -261.51,-65.41l0 348.91zm-108.92 -1700.49c-218.12,65.28 -937.62,348.81 -1002.91,981.02 -21.87,305.25 130.83,610.43 414.09,741.25 218.13,108.92 479.62,87.29 697.74,-21.76l0 -348.94c-65.4,-21.77 -130.95,-87.17 -196.23,-152.58 -108.92,-130.82 -174.46,-305.15 -174.46,-479.62 0.02,-109.06 21.89,-196.21 65.52,-283.38 0.02,-43.66 43.66,-65.41 65.3,-87.18 65.43,-0.01 130.93,0 196.22,43.52 0.01,0 21.88,21.89 43.65,21.89l0 -436.11c-43.64,0 -87.29,21.89 -108.94,21.89l0.02 0z"/>
   <path class="fil0" d="M9366.3 4836.09c174.46,-87.29 370.67,0.02 218.09,65.3 -305.14,239.85 -545.03,784.89 -588.56,1133.7 -218.1,-588.55 217.87,-1111.81 370.47,-1199z"/>
   <path class="fil0" d="M9300.99 6710.94c218,-108.96 370.57,-305.17 414.23,-544.91 43.65,-239.88 239.86,-588.68 348.8,-675.97 -43.64,21.87 -65.42,43.65 -108.94,65.42 261.53,-152.6 414.1,-414.23 435.97,-675.86l0.02 -65.42c0,-108.94 -43.65,-217.98 -109.07,-327.02 -174.33,-348.71 -566.78,-501.39 -981.01,-414.22l0 1308.16c87.19,21.76 174.35,87.19 218,152.59 -65.4,-0.02 -130.82,-21.77 -218,-43.65l0 1220.88zm-261.63 -2550.71c-21.87,21.77 -43.53,21.79 -65.52,43.66 -305.17,196.23 -741.14,741.14 -784.67,1416.99l0.02 196.21c21.64,152.59 43.51,305.29 87.15,457.86 108.95,327.03 435.99,523.16 763.02,501.39 109.06,-0.01 196.23,-21.75 261.63,-65.4l0 -1220.88c-65.4,-43.52 -152.57,-108.92 -217.97,-174.35 87.05,0 152.57,21.77 217.97,65.43l0 -1308.2c-87.29,21.89 -174.58,43.66 -261.63,87.31l0 -0.02z"/>
   <path class="fil0" d="M12701.89 3898.6c-152.59,-130.8 -239.77,-305.15 -675.75,-283.38 -87.27,-43.65 -65.4,-174.34 130.83,-174.34 152.59,-0.02 544.91,152.57 544.92,457.72z"/>
   <path class="fil0" d="M14075.47 5424.65c-21.76,-152.59 -65.43,-283.4 -196.24,-326.91 -174.45,-87.31 -457.86,0 -654.09,130.68 -65.39,43.64 -130.81,109.06 -196.23,152.72 -108.92,130.79 -174.46,283.39 -130.8,435.97 65.54,261.61 697.72,392.45 959.23,217.98 109.08,-65.41 196.35,-283.4 218.12,-501.38 0.01,-43.65 0,-87.17 0.01,-109.06z"/>
   <path class="fil0" d="M10718.11 6471.18c-109.16,-21.77 -283.52,-43.64 -348.93,-43.64 -87.17,43.64 -261.52,327.05 -348.81,479.63 43.65,-21.79 65.3,-43.54 87.29,-43.54 174.35,-174.46 261.52,-283.52 326.93,-305.26 109.06,-43.66 414.2,108.93 457.74,-65.41 -21.63,-43.55 -87.05,-21.77 -174.22,-21.78z"/>
   <path class="fil0" d="M10805.29 7321.36c523.27,-43.52 719.48,-392.32 784.76,-566.77 65.42,-130.84 152.58,-239.88 152.58,-370.58 0.01,-43.66 0,-65.41 -21.65,-109.06 -87.27,-196.23 -109.16,-239.86 -305.39,-305.27 0.02,0 -435.97,-152.57 -610.31,-217.99l0.01 1569.67zm0 -1591.44l0 0c0,0 21.74,0 43.5,21.77 -21.75,-21.77 -43.51,-21.77 -43.5,-21.77zm-632.33 1896.6c65.54,-21.77 109.04,-43.5 174.46,-65.27l21.76 -0.01 -196.22 21.76 0 43.52zm0 -43.52l0 -675.85c43.65,43.53 109.04,87.19 196.22,109.07l0 -0.01c0,0 152.7,65.42 283.39,109.07l0.01 -0.02c0,0 21.87,-21.86 43.64,-21.86 0.02,-43.66 21.89,-65.41 21.89,-109.06 0,-174.36 -65.54,-348.8 -174.48,-501.38 -87.28,-108.95 -218.1,-174.36 -348.8,-218.01 0.01,0 0,21.77 -21.87,21.77l0 -435.98c21.88,0 21.87,0 21.87,0 21.78,0 21.76,-21.87 21.76,-21.87l0.02 -0.01c0,0 -21.78,0.01 -43.65,21.88l0 -130.82c196.22,-65.4 370.67,-43.64 588.78,0 -21.99,0 -22,0 -43.63,0 0,0 43.63,21.77 87.17,21.77l0.01 1569.67c-43.53,0 -65.55,0.01 -87.18,0.01 -21.87,-0.01 -43.66,43.64 -43.66,43.64 -87.27,87.17 -327.03,174.36 -501.49,218.01l0 -0.02zm632.33 -1853.08c-21.88,0 -43.55,0 -43.55,0 0.02,0 21.65,0 43.54,0l0.01 0zm-675.97 0l-21.65 21.77c-305.16,109.05 -457.99,370.69 -632.33,610.45l-65.39 109.04c-196.25,283.4 -174.36,654.1 43.62,915.6 196.12,196.22 457.86,305.16 719.39,239.76l0 -43.54 -65.29 21.75c21.65,0 43.52,0.02 65.29,-21.73l0 -675.87c-65.29,-65.4 -87.29,-152.56 -87.29,-239.85 0,-108.95 43.63,-217.87 87.29,-370.58l0 -435.98 -21.75 0c-21.89,0 -0.02,0 21.75,0l0 -130.82c0,0 -21.77,0 -43.66,0l0.02 0z"/>
   <path class="fil0" d="M12527.67 5533.69c0,-130.81 87.04,-261.61 174.21,-348.9 174.48,-87.07 370.69,87.29 436.09,-65.29 -152.56,108.92 -261.63,-109.05 -457.74,0 -130.93,65.27 -218.11,283.4 -196.23,457.85 21.67,-21.89 21.65,-43.64 43.67,-43.66z"/>
   <path class="fil0" d="M12876.36 6166.01c21.75,0 43.62,0.02 43.62,-21.99 87.18,-43.53 152.59,-108.93 217.99,-196.09l0.02 -0.02c0,-21.76 21.75,-43.63 21.75,-65.4 457.75,-65.42 632.32,-414.2 675.83,-523.14 21.79,-65.54 43.66,-152.59 43.66,-239.87 0,-239.88 -108.94,-479.64 -327.05,-610.45 -152.56,-108.93 -327.04,-152.57 -501.5,-130.8 -43.52,-0.02 -108.94,-21.77 -174.34,-21.77l0.02 566.78c196.21,108.94 327.01,327.05 348.78,566.8 0.02,0 0,0 0,21.88 0.02,130.81 -108.94,217.98 -196.23,261.51 -43.5,21.87 -87.17,21.89 -130.8,43.66 0,-0.02 0,0 -21.77,0l0.02 348.9c21.75,0 21.75,0.02 43.62,-21.99l0.01 -0.01c-21.88,22 -21.88,22.02 -43.65,22.02l0.02 -0.02zm-65.54 65.29l0 -21.75c43.65,0 65.52,-21.87 65.52,-43.52l0.02 -0.02c0,21.65 -0.02,21.67 -21.91,21.67 21.91,-0.02 21.89,0 21.89,-21.65l0.02 -348.94c-21.89,-21.77 -43.55,-21.75 -65.54,-43.64l0 457.85zm65.54 -1874.82c-21.89,0 -43.55,0 -65.54,0l0 523.14c22,0 43.63,21.77 65.52,43.66l0.02 -566.8zm-566.8 130.69l0 0 0 1787.78c21.77,0 21.75,21.77 21.75,21.77 174.36,21.87 326.91,0 479.51,-65.41l0 -457.86c-43.4,-21.76 -65.31,-21.76 -108.94,-43.53 -196.21,-152.57 -305.17,-392.44 -305.17,-610.42 0.02,-87.3 0,-174.47 43.66,-261.63 0.01,-21.78 21.75,-43.65 21.75,-43.65l0.01 -0.02c130.83,-21.75 239.75,21.91 348.69,65.42l0 -523.14c-152.58,0 -305.17,21.77 -501.28,130.7l0.02 -0.01zm0 0l0 0c21.77,-21.77 21.75,-21.75 21.75,-21.75 0.02,-0.02 0,0 -21.77,21.76l0.02 -0.01zm0 0c-239.87,130.94 -392.47,348.94 -479.64,588.68l0.01 239.86c0,-43.65 21.63,-65.4 43.64,-108.93l0.02 0c-22.01,43.51 -43.67,87.06 -43.67,130.7l0.01 566.78c87.17,174.46 261.5,327.05 479.61,370.69l0.02 -1787.78zm0 0l0 0 -21.77 0 21.77 0zm-479.63 588.68c-65.4,152.57 -87.3,305.29 -87.3,457.86 0.01,43.64 0,87.17 0,130.82 21.9,87.16 43.65,174.34 87.29,239.75l0.01 -566.8c-21.76,65.4 -43.65,130.83 -43.65,196.23 0.02,-87.17 21.89,-152.57 43.64,-218l0.01 -239.86z"/>
   <path class="fil1" d="M4700.89 4051.18l0 -87.16c43.66,-501.51 654.09,-1024.64 959.24,-1002.89 305.16,-0.01 501.39,87.17 806.66,632.32 697.62,-523.28 1177.25,-654.07 1722.38,-850.29 174.24,-937.51 850.19,-1111.83 1286.17,-1024.66 850.21,283.36 501.39,872.07 130.82,1111.83 566.8,87.27 1700.49,370.69 2964.89,348.8 392.6,239.73 414.35,1417.09 632.32,1591.55 174.36,174.35 1308.06,130.71 1983.9,828.43 697.63,697.61 370.68,2049.3 -130.81,3161.12 -457.72,1090.18 -850.2,1983.91 -1046.42,2638 -915.71,915.7 -3946.02,-893.85 -5123.37,-1177.25 -523.26,-239.86 -1242.63,-457.84 -2136.48,-217.97 -501.5,-1133.84 -2071.19,-2834.21 -1395.21,-4534.7 -283.4,-261.53 -588.68,-872.09 -654.09,-1395.35l0 -21.78z"/>
   <path class="fil1" d="M6248.69 15278.86c130.94,217.98 239.87,545.03 348.92,719.51 -196.35,610.29 -1111.94,2092.83 -588.66,3771.43 -1024.66,1199.24 -1264.42,2812.44 -1526.17,3858.98 -653.83,-610.57 -1242.64,-457.87 -1700.38,-109.05 -457.86,348.8 -545.03,1613.32 261.64,2485.38 1024.65,871.97 1634.96,1002.89 2180.11,544.93 545.03,-479.64 1220.77,-1918.49 1809.56,-2528.94 588.56,-588.56 1155.46,-1155.46 1460.62,-1460.63 479.51,392.46 1853.09,588.57 2616.1,479.63 65.42,392.44 65.42,1438.86 -414.21,1896.72 -479.61,457.86 -850.32,937.37 -872.07,1373.46 -43.63,414.21 0,1286.29 545.03,1569.69 588.69,261.63 2354.57,21.76 2594.45,-501.4 261.53,-523.26 -283.4,-1286.28 -937.49,-1199.11 1090.08,-348.81 1983.9,-1024.64 2419.99,-1918.6 392.35,-871.96 501.27,-1852.96 457.74,-2834.08 1199.01,-1068.31 2245.42,-2921.38 1787.68,-5820.87 828.44,-588.68 1809.43,-1329.96 1962.12,-2572.59 130.72,-1220.9 -697.72,-2223.65 -1438.86,-2419.88 -872.17,501.37 -1242.63,937.36 -1504.26,1656.85 43.53,109.05 43.51,152.58 87.17,261.64 -457.85,588.54 -1635.09,1155.46 -2049.32,1634.97 -719.47,-43.54 -2376.34,196.22 -3052.18,632.35 -806.64,-43.65 -1329.94,-370.72 -1591.45,-719.52 -784.78,-108.96 -2027.41,218.09 -2856.08,1199.13z"/>
   <path class="fil2" d="M2651.6 24457.2c-327.06,217.99 -370.71,871.96 414.2,1591.45 457.74,392.44 1460.63,959.35 1765.9,523.26 217.99,-261.63 -348.92,-1242.75 -806.66,-1678.72 -435.97,-414.23 -1024.64,-675.86 -1373.44,-435.99z"/>
   <path class="fil3" d="M6488.56 9501.49c-196.22,152.7 -632.21,741.26 -653.97,1046.54 217.99,65.41 479.62,174.35 588.68,283.4 -109.06,348.79 -283.52,675.84 -22.01,937.47 -217.85,348.68 -261.51,545.03 -261.51,763.03 0,217.97 -21.64,2354.47 -327.05,2790.46 65.54,283.5 414.34,523.27 675.86,501.5 -87.3,-218 -174.35,-501.5 -196.23,-588.67 545.16,-545.04 1853.2,-1329.84 2834.08,-1177.26 239.89,305.15 893.96,697.64 1526.16,741.29 654.1,-414.26 2311.06,-719.52 3074.07,-675.87 872.1,-806.68 1831.31,-1133.71 2071.08,-1569.69 -87.16,-152.71 -108.94,-239.76 -130.83,-348.8 239.76,-392.47 959.25,-1482.51 1569.69,-1591.45 174.48,130.69 435.97,261.51 697.72,414.2 0.02,-174.46 0,-545.13 -130.93,-632.32 -348.68,-174.34 -2289.05,-741.13 -3030.31,-784.77 -65.4,152.57 -632.32,1242.65 -784.89,1809.43 -501.26,545.03 -1744.03,130.82 -2616.11,-218 -850.16,-327.03 -3270.18,-1635.08 -4621.87,-1198.97 -152.58,-305.29 -130.81,-283.52 -261.63,-501.52z"/>
   <path class="fil4" d="M11328.56 8564.01c283.28,632.32 588.53,1133.71 915.58,1373.47 348.82,239.85 1089.94,588.67 1351.69,-21.77 -108.92,-348.81 -108.94,-653.96 -87.29,-937.48 -479.61,174.46 -1199,457.86 -2179.98,-414.22z"/>
   <path class="fil5" d="M11960.76 9566.9c305.15,-261.64 1111.81,-43.64 1089.92,697.62 -370.43,174.44 -1046.3,-479.63 -1089.92,-697.62z"/>
   <path class="fil6" d="M11938.87 9545.13c21.89,21.77 43.64,21.77 65.51,43.65 217.89,-283.52 1024.53,43.54 1002.77,632.2 43.55,0 65.42,-21.87 87.18,-21.87 0,-697.62 -893.85,-981 -1155.46,-653.98z"/>
   <path class="fil7" d="M10347.42 12095.82c-915.58,-784.78 -1569.69,-1090.05 -2223.78,-1308.04 893.85,87.17 1547.92,610.45 2223.78,1308.04z"/>
   <path class="fil7" d="M10543.65 14275.94c435.99,-283.4 1198.98,-523.15 2245.52,-566.78 -501.38,174.34 -1242.77,130.82 -2245.52,566.78z"/>
   <path class="fil7" d="M7186.3 10460.73c1831.19,-87.17 3509.92,1395.34 4730.79,1678.74 -1329.91,-152.59 -2747.02,-1569.67 -4730.79,-1678.74z"/>
   <path class="fil7" d="M5747.43 10569.78c21.75,108.94 479.61,130.83 610.44,261.65 -109.18,196.21 -196.35,435.98 -218.12,762.89 21.77,65.52 152.58,130.94 218.12,239.99 -130.83,174.34 -239.76,414.1 -283.4,588.56 -65.52,305.27 21.63,959.37 -109.18,2005.66 -65.28,675.99 -239.74,828.56 -239.74,915.75 43.63,283.38 457.84,566.8 741.24,545.03 -43.52,-43.65 -43.52,-87.29 -87.17,-152.59 -152.58,21.75 -523.27,-217.98 -523.27,-392.44 0,-130.84 327.04,-545.03 348.81,-1765.93 0.01,-348.82 -21.77,-893.85 21.88,-1155.48 87.17,-435.99 501.38,-1090.06 959.24,-1591.44 -152.56,43.52 -523.26,435.98 -763.01,871.95 -65.4,-43.54 -87.29,-65.41 -109.06,-196.11 43.66,-218.11 109.06,-566.92 174.35,-654.07 -87.3,-218.13 -348.81,-327.05 -588.55,-370.69 43.52,-152.59 348.68,-675.73 588.55,-915.61 -21.75,-21.77 -43.64,-65.41 -65.29,-109.04 -283.52,261.61 -719.49,828.54 -675.84,1111.92z"/>
   <path class="fil7" d="M7731.21 14319.47c501.49,-174.34 959.23,-217.86 1308.15,-217.86 65.42,-0.02 130.71,0 174.34,0 174.48,21.75 327.06,43.52 392.46,43.52 0.02,65.4 -43.53,130.82 -65.4,217.99 21.88,21.87 65.4,43.64 108.92,65.41 43.67,-152.59 109.17,-392.34 43.65,-479.63 -21.75,-21.77 -65.4,-65.4 -130.7,-108.92 -21.87,-65.42 -21.87,-87.19 -43.64,-130.82 392.46,-130.83 1613.2,-501.5 1853.07,-741.26 -501.36,261.63 -1438.99,479.62 -1918.49,588.68 -283.5,-741.27 -370.55,-1547.92 -479.73,-1896.72 152.57,130.79 305.39,283.4 479.73,457.74 -414.21,-697.62 -1199.1,-1220.76 -1896.72,-1286.17 326.93,87.16 741.26,283.4 1242.77,675.84 239.74,588.55 239.74,1460.63 544.91,2136.48 -65.28,-87.18 -108.94,-152.59 -152.59,-261.51 -21.87,261.5 348.82,544.89 435.99,632.08l0 -0.02c-479.51,-43.53 -1155.36,-108.92 -1918.49,174.48 -1046.41,392.48 -1482.4,1155.5 -1765.91,1177.27 87.29,87.27 196.22,65.38 283.51,0 43.66,-21.79 87.17,-43.66 130.83,-87.19 261.51,-218 632.2,-653.95 1373.34,-959.39z"/>
   <path class="fil7" d="M15754.08 12313.93c174.46,-501.51 719.47,-1308.16 1417.2,-1635.21 65.31,-43.65 130.58,-65.28 196.1,-65.28 152.61,-43.66 305.17,-87.29 479.63,-65.41l0.02 -0.01c21.76,65.42 21.75,239.76 21.75,348.82 43.65,43.51 65.52,87.17 109.18,108.93 0.01,-174.35 0,-435.97 -87.3,-632.2 -130.8,-196.24 -2005.77,-697.74 -3052.2,-806.67 -21.87,0 -21.88,43.65 -43.63,65.42 0.01,21.87 -21.77,43.51 -21.77,43.51 1090.08,130.93 2768.67,588.69 3008.55,763.15 0.01,-0.02 0,0 0,21.76 -523.15,-21.78 -1547.92,457.86 -2114.72,1700.5 -217.98,-435.99 -479.62,-741.26 -653.97,-959.26 21.79,-261.63 -21.87,-523.26 -152.69,-697.6 65.42,-109.06 109.06,-196.21 174.46,-327.03 -87.27,-174.36 -239.86,-326.94 -283.4,-392.46 -21.75,43.64 -21.76,43.64 -43.63,87.17 43.65,43.64 174.46,218.12 217.97,305.29 -152.55,436.09 -457.86,763 -501.49,1046.4 43.65,-65.42 65.52,-130.69 109.18,-196.11 21.76,87.17 -21.89,283.4 -130.83,523.16 -283.5,239.85 -719.49,457.86 -893.95,501.5 261.77,108.94 1024.78,-392.44 1090.18,-719.49 -21.99,43.64 -65.4,65.42 -87.29,108.94 108.94,-239.77 130.81,-392.34 152.57,-610.32 65.54,-65.42 109.06,-152.71 130.83,-217.99 87.3,108.92 130.8,370.57 109.04,610.31 -109.03,610.56 -566.9,1111.95 -1351.69,1504.4 654.1,-152.59 1264.4,-763.14 1417.11,-1329.92 326.93,261.61 588.66,697.6 763,1133.7 21.79,-21.89 65.43,-65.41 87.19,-87.29 -21.76,-87.19 -21.76,-65.3 -65.4,-130.71z"/>
   <path class="fil7" d="M10848.81 14799.23c806.66,-436.12 1984,-632.33 2790.66,-632.33 43.55,-43.54 87.17,-87.17 108.93,-130.71 -1220.73,21.77 -2180,239.76 -3139.47,697.64 87.31,21.77 152.81,43.65 239.88,65.4z"/>
   <path class="fil7" d="M13225.16 11616.31c-1264.4,0 -4425.54,-1787.78 -5668.31,-1787.78 -261.62,0 -479.49,21.88 -763.01,130.82l0 0c-21.89,21.77 -65.42,21.77 -87.17,43.66 0,-0.02 0,0 -21.89,0 -87.17,43.51 -239.86,108.92 -370.57,196.1 326.94,-108.95 675.86,-261.63 1199.12,-261.63 1395.23,43.64 4207.65,1765.9 5668.16,1809.53 479.64,21.89 937.48,-283.38 1090.06,-632.18 -43.5,43.5 -108.92,108.92 -217.86,196.21 -43.64,43.52 -65.52,65.42 -130.83,87.19 -174.44,130.79 -392.43,218.1 -697.7,218.08z"/>
   <path class="fil8" d="M10042.27 6427.54c43.4,-152.59 283.26,-327.03 392.32,-217.98 -196.09,-0.01 -305.29,196.21 -370.57,261.63 -21.75,108.92 -108.94,370.56 -239.87,326.92 130.95,-43.53 174.45,-196.11 218.12,-370.57z"/>
   <path class="fil8" d="M12941.76 5032.2c-65.4,43.65 -327.05,-130.81 -479.64,65.54 0.01,-239.88 305.28,-174.46 479.64,-65.54z"/>
   <path class="fil8" d="M13225.16 5228.42c-65.41,43.64 -130.83,109.06 -196.25,152.72 -239.74,65.4 -457.86,217.97 -850.19,523.14 21.78,-43.54 87.19,-130.83 152.59,-218 -370.55,-261.63 -675.86,-915.6 -566.8,-1417.09 21.79,457.84 239.87,1111.95 653.97,1351.69 218.11,-174.34 435.97,-348.8 806.68,-392.46z"/>
   <path class="fil8" d="M14010.05 9588.78c196.23,370.57 -43.65,719.39 -174.48,850.2 21.79,-87.31 109.06,-196.23 152.6,-348.8 21.88,-174.48 21.87,-370.69 21.88,-501.4z"/>
   <path class="fil8" d="M14664.02 6885.38l0 0c0,-741.37 -283.42,-1220.85 -588.56,-1460.73 0.01,21.89 0,65.41 0,109.06 283.39,261.61 501.25,653.97 479.6,1286.27 0.02,1417.09 -1046.52,2289.18 -1874.83,2289.18 -65.51,0 -130.93,0 -218.11,0l0.01 152.57c87.17,21.77 152.58,21.77 218.1,21.77 283.42,0 544.91,-87.16 763.03,-217.98 -21.87,326.91 43.63,610.31 130.68,828.43 -87.03,130.8 -261.63,261.63 -479.61,305.16 -21.76,-0.01 -43.65,21.87 -87.18,21.87l-21.74 0c-152.59,0 -327.19,-87.17 -523.29,-196.21l0.01 152.56c196.11,130.82 370.68,174.36 523.27,174.36 392.33,-0.02 654.07,-283.28 741.24,-632.2 0.01,21.87 -43.64,87.29 -87.17,109.04 -152.56,-305.29 -109.04,-632.19 -65.53,-828.41 632.34,-436.11 1068.3,-1242.76 1090.06,-2049.44 109.08,0 239.87,43.66 327.05,109.06 -21.76,-130.7 -217.99,-174.34 -327.05,-174.34l0.02 -0.02zm-2201.89 2223.78l0 0 0 152.57c-435.97,-87.17 -850.31,-392.56 -1090.07,-675.84 174.35,392.32 370.57,697.61 566.79,959.26 21.91,21.75 43.66,21.75 65.53,43.63 174.35,196.09 305.16,326.93 457.74,435.99l0.01 152.56c-435.97,-283.4 -828.44,-872.07 -1155.48,-1591.44l0.02 -65.42 0 -152.57c65.4,-87.29 152.57,-152.7 261.73,-218.1 0.02,43.64 21.65,130.83 -22,152.69 -87.16,43.54 -174.34,108.94 -217.86,196.11 370.47,392.56 762.89,545.15 1133.58,610.56l0.01 0zm-1155.46 -741.26c-174.46,196.11 -261.53,414.22 -305.18,610.33 87.07,-65.42 130.7,-261.63 283.4,-435.97 0.01,21.75 0,21.76 21.76,43.63l0.02 -65.42 0 -152.57z"/>
   <path class="fil8" d="M18740.86 12728.14c0,-828.43 -370.59,-1373.56 -762.9,-1722.37 -43.64,-21.78 -65.55,-65.42 -109.18,-108.93 -196.21,-130.83 -392.34,-239.75 -501.4,-283.4 -65.5,0 -130.8,21.65 -196.1,65.28 980.91,392.46 1438.76,1221.01 1438.76,2049.43 0.01,1765.9 -2528.93,3466.31 -4011.32,3488.19 -632.3,21.75 -1308.06,-370.68 -1308.06,-1024.65 0.02,-654.12 784.8,-1308.19 1482.4,-1722.4 610.33,-414.22 1068.29,-763.02 1264.4,-1286.29 -65.27,87.28 -152.57,174.47 -217.98,261.64 -21.76,21.87 -65.42,65.4 -87.19,87.29 -370.55,392.31 -806.66,653.96 -1046.4,806.66 -327.04,217.98 -654.09,414.2 -937.49,697.6 -21.75,43.52 -65.4,87.19 -108.93,130.71 -261.74,305.26 -457.98,632.35 -457.98,1002.9 0.01,697.62 588.8,1199.12 1417.23,1199.12 632.1,0 1395.21,-261.51 2049.29,-675.84 217.9,1155.45 87.17,2485.41 -196.22,3270.18 -632.31,1744.13 -1875.08,2965.01 -3422.88,3553.7l0.02 239.74c566.92,-239.74 1177.33,-566.91 1809.53,-1090.06 43.67,1177.23 -152.57,2594.22 -1373.57,3684.39 -152.56,130.82 -283.4,217.99 -435.98,327.05l0.02 174.34c1111.83,-675.84 2114.7,-2071.06 2005.76,-4338.35 523.28,-523.28 1133.71,-1264.52 1591.45,-2528.92 261.64,-784.91 392.56,-2005.78 174.46,-3379.24 1068.19,-675.85 1940.24,-1700.53 1940.24,-2877.76l0.02 -0.01zm-5711.93 14693.97l0 -632.2c65.4,174.46 65.4,370.68 21.75,545.03 0.02,21.76 -21.77,43.63 -21.77,87.17l0.02 0zm0 -9330.93l0 -196.23c21.77,-21.77 65.4,-21.75 87.27,-43.64 566.82,-370.56 632.2,-1220.76 43.54,-1809.43 -43.52,-43.53 -87.17,-87.17 -130.83,-130.8l0.02 -152.61c87.29,65.42 174.44,152.61 239.85,239.9 523.29,566.78 654.08,1504.26 -87.29,2005.64 -65.27,43.53 -108.92,65.42 -152.56,87.17zm0 4425.78c-218.11,87.05 -457.88,152.57 -675.85,217.98l0 217.99c217.99,-43.65 436.09,-109.06 675.83,-196.23l0.02 -239.74zm0 3161.12c-218.11,130.69 -435.99,239.74 -675.85,348.68l0 130.93c217.99,-65.4 457.74,-174.45 675.83,-305.27l0.02 -174.34zm0 -9919.61l0 152.59c-218.11,-196.23 -457.88,-348.8 -675.85,-457.72l0 -130.95c239.88,109.04 457.74,239.87 675.83,436.1l0.02 -0.02zm0 2136.48l0 196.23c-239.76,109.06 -457.88,130.82 -675.85,109.06l0 0 0 -196.23c217.99,43.53 436.09,21.89 675.83,-109.06l0.02 0zm0 8894.96l0 632.2c-108.94,196.22 -348.7,348.8 -675.85,457.86l0 0 0 -174.48c305.16,-87.16 545.03,-239.75 610.55,-370.55 87.07,-283.4 -152.81,-915.6 -545.15,-1024.66 -21.75,0 -43.65,0 -65.4,-21.89l0 -108.93c43.65,0 65.4,0 87.29,21.88 283.39,65.3 479.61,326.93 588.54,588.57l0.02 0zm-1373.46 1220.86c239.75,-43.51 479.61,-87.17 697.61,-130.8l0 -174.48c-217.98,65.42 -457.86,130.82 -697.63,174.48l0.02 130.8zm0 -1656.85l0 -109.04c218.12,-43.54 457.84,-130.83 697.61,-218.12l0 130.93c0,0 -21.77,0 -21.77,21.77l21.77 0 0 108.93c-196.09,-43.51 -435.99,-21.75 -697.63,65.54l0.02 -0.01zm0 -3248.42l0 -217.99c239.75,-43.64 457.84,-87.15 697.61,-152.57l0 0 0 217.99c-239.75,65.28 -479.51,108.94 -697.63,152.57l0.02 0zm0 -5101.49c196.11,87.17 435.96,174.48 697.61,196.23l0 -196.23c-239.75,-21.77 -479.51,-109.06 -697.63,-196.21l0.02 196.21zm0 -2855.98c218.12,87.18 457.84,174.36 697.61,305.31l0 -130.95c-239.75,-130.7 -479.51,-217.87 -697.63,-305.16l0.02 130.8zm0 -130.8l0 130.8c-326.91,-87.17 -653.98,-174.44 -959.25,-239.86l0.02 -152.57c43.51,0 87.15,21.88 152.55,43.65 239.77,65.4 523.27,130.81 806.66,217.98l0.02 0zm0 2790.55l0 196.23c-196.23,-65.42 -348.82,-130.81 -479.62,-174.34 -152.58,-43.66 -305.17,-43.64 -479.63,-65.41l0.02 -152.71c174.46,0 327.01,21.77 457.84,65.42 174.48,21.75 327.03,87.29 501.37,130.83l0.02 -0.02zm0 5079.73l0 217.99c-152.57,21.77 -305.16,21.77 -457.75,43.54 65.3,545.15 130.82,959.23 -174.47,1460.75 -87.27,152.57 -196.22,305.16 -327.03,435.97l0.02 -239.76c65.52,-87.17 109.04,-174.45 174.44,-261.63 261.53,-479.61 196.23,-1002.88 152.57,-1395.33 -108.92,0 -217.97,0 -327.03,0l0.02 -196.11c327.03,0 632.3,-21.89 959.21,-65.4l0.02 -0.02zm0 3357.37l0 109.04c-217.99,65.42 -457.75,174.35 -719.51,348.7 109.2,-130.71 283.52,-261.53 523.28,-370.57 -87.17,0 -152.59,0 -239.76,-21.77 130.84,0 283.4,-21.89 435.97,-65.4l0.02 0zm0 1635.09l0 130.8c-326.91,21.77 -675.85,21.77 -959.25,-21.88l0.02 -108.92c283.4,65.28 610.41,43.63 959.23,0zm-959.23 -13124.37l0 152.57c-719.49,-174.34 -1351.71,-348.68 -1656.88,-806.56 65.42,-0.02 130.71,0 174.34,0 65.55,108.92 196.23,174.34 327.06,261.51 21.88,21.87 65.4,43.64 108.92,65.41 261.77,109.04 610.57,218.13 959.25,305.3 43.65,0 65.52,0 87.29,21.77l0.02 0zm0 2855.95l0 152.7c-479.63,-21.87 -1090.08,43.55 -1896.62,-152.7 -1068.41,-261.51 -1722.26,-893.81 -2180.24,-1504.14 -719.37,1438.74 -915.6,2899.49 -544.91,3597.11 719.37,-632.22 1308.04,-675.86 1918.49,-218 501.37,370.56 1068.17,1896.6 610.43,3030.44 435.97,261.51 1177.11,414.08 2005.54,435.97 43.65,0 65.52,0 87.29,0l0.02 196.11c-763.15,0 -1526.17,-108.94 -2223.67,-479.51 -305.39,392.34 -937.47,850.2 -1635.09,1765.92 -763.01,937.34 -1264.52,2245.4 -2005.78,2441.63 -261.62,65.4 -719.37,-43.66 -1177.23,-305.17l0.02 -217.99c261.51,174.35 544.89,283.39 784.77,348.7 741.26,21.87 370.69,-806.56 -217.99,-1526.04 -174.47,-239.76 -392.34,-435.99 -566.8,-545.03l0.02 -65.42c217.97,152.7 435.97,348.82 654.07,610.45 566.67,763.13 784.77,1417.1 414.08,1547.91 566.82,-65.41 1111.95,-1220.87 1874.97,-2245.53 675.86,-915.72 1722.38,-1831.31 1853.09,-2092.95 327.03,-741.25 65.4,-2310.8 -523.28,-2812.32 -610.32,-501.39 -1199,-327.05 -1787.67,261.64 -1002.89,981 -1198.99,2550.68 -1569.68,3836.97 152.59,174.46 392.45,632.2 370.69,763.15 -457.97,-872.21 -937.49,-1090.18 -1286.29,-1155.48l0.02 -130.93c348.8,21.87 588.54,218.1 784.77,392.45 392.46,-1373.45 523.26,-2746.91 1504.27,-3728.05 -588.55,-1351.57 196.22,-2986.66 588.68,-3858.73 -21.77,-21.9 -43.65,-43.63 -65.42,-65.4 -43.52,-43.65 -43.52,-87.29 -87.17,-152.59 -43.64,-130.83 -108.94,-239.87 -152.58,-370.67 43.66,-21.79 87.17,-43.66 130.83,-87.19 348.8,872.06 1220.74,1809.43 2419.86,2136.48 675.86,174.46 1351.57,152.58 1918.49,196.21l0.02 0zm0 7194.45c-327.06,479.62 -697.64,719.51 -850.34,1133.71 -261.49,675.72 0,1700.39 392.58,1940.26 130.7,65.28 283.4,87.29 457.74,108.92l0.02 -108.92c-152.59,-21.77 -283.42,-65.43 -370.71,-130.83 -479.61,-305.16 -545.03,-1329.8 -392.46,-1744.03 109.2,-305.26 457.98,-610.43 763.15,-959.35l0.02 -239.76zm-7041.75 -1656.96c-43.66,-21.77 -108.96,-21.77 -130.95,-21.77 -697.48,21.77 -1264.4,806.66 -1264.4,1460.75 0,893.83 719.49,1569.67 1395.33,1983.89l0.02 -217.99c-566.92,-348.81 -1068.19,-915.71 -1199.12,-1482.5 65.4,-479.63 588.67,-654.09 1199.1,-239.87l0.02 -65.42c-523.28,-348.8 -1068.19,-326.91 -1221.01,174.46 0,-43.63 0,-87.17 0,-130.8 0,-610.45 436.21,-1351.69 1046.53,-1351.69 43.53,0 109.06,21.87 174.46,21.87l0.02 -130.93z"/>
   <path class="fil8" d="M15666.91 6732.69c-152.59,-2049.19 -2245.54,-1722.24 -2441.77,-2027.41 -261.49,-414.22 -130.81,-1155.48 -479.63,-1482.5 -239.84,-239.9 -784.77,-130.82 -1002.88,-130.82 -566.78,-0.02 -1286.29,-174.34 -1962.13,-305.17 283.52,-239.9 283.52,-392.44 283.52,-545.15 21.65,-348.68 -457.86,-566.66 -784.79,-566.66 -65.53,-0.03 -109.16,0 -174.46,0l0.01 87.04c65.29,-21.77 130.81,-21.75 174.45,-21.75 305.18,-0.02 697.5,218.1 675.85,501.37 0.02,196.35 -196.23,392.58 -370.69,523.27 -152.55,-21.77 -305.16,-43.52 -479.62,-65.41l0.01 152.7c741.14,108.92 1874.84,348.82 2877.73,348.82 152.59,-0.02 435.97,-43.66 675.71,108.92 305.43,239.86 239.89,1046.54 457.98,1482.51 130.84,239.75 2245.53,65.42 2354.46,1940.26 65.3,763.12 -305.14,1722.38 -784.77,2834.19 -283.38,675.85 -588.68,1286.3 -763.03,1831.33 65.31,-21.78 87.18,-43.65 130.83,-87.19 130.7,-370.69 305.15,-675.95 719.37,-1635.21 0.02,0 21.77,-21.64 21.77,-43.51 21.76,-21.79 21.75,-65.42 43.63,-65.42 523.28,-1177.23 806.66,-2005.65 828.43,-2616.22l0.02 -130.7c0,-21.89 -0.02,-65.39 -0.02,-87.27l0.02 -0.02zm-6562.13 -5057.74l0 87.07c-414.34,43.63 -675.85,305.28 -850.31,937.48 108.94,-21.76 239.86,-43.51 348.92,-43.51 174.34,-0.02 326.92,21.76 501.38,43.51l0.01 152.7c-196.22,-21.89 -348.82,-43.64 -501.39,-43.64 -741.38,-0.02 -1504.38,370.57 -2071.18,828.43 87.17,174.46 130.81,392.45 130.81,588.54 -130.81,-370.56 -239.75,-610.31 -457.86,-915.59 -370.55,-501.4 -850.18,-283.4 -1111.83,-21.75 -261.61,283.38 -392.44,741.25 -261.63,1177.23 217.99,654.07 784.91,1220.86 1002.89,1395.32 -109.04,-21.88 -327.04,-174.46 -457.86,-283.39 -566.78,1918.48 959.25,3073.96 1417.11,4382 -21.89,21.77 -65.42,21.77 -87.17,43.66 0,-0.02 0,0 -21.89,0 -21.75,-152.6 -108.93,-283.52 -196.22,-436.11 -21.75,-21.77 -43.64,-65.41 -65.29,-109.04 -632.32,-1002.79 -1809.55,-2136.49 -1111.82,-3967.8 -414.33,-370.57 -654.09,-828.43 -676.1,-1264.53l0.02 -130.7c22.01,-305.27 152.81,-610.42 436.21,-893.81 545.03,-566.82 1133.58,-261.64 1416.98,348.78 327.05,-327.03 959.25,-719.47 1635.08,-828.41 218.12,-654.09 370.69,-1002.89 981.14,-1046.44z"/>
   <path class="fil8" d="M10434.61 6841.75c-305.29,21.87 -610.46,217.99 -741.28,348.82 21.9,-218 632.2,-479.63 741.28,-348.82z"/>
   <path class="fil9" d="M9366.3 4836.09c174.46,-87.29 370.67,0.02 218.09,65.3 -305.14,239.85 -545.03,784.89 -588.56,1133.7 -218.1,-588.55 217.87,-1111.81 370.47,-1199z"/>
   <path class="fil9" d="M12701.89 3898.6c-152.59,-130.8 -239.77,-305.15 -675.75,-283.38 -87.27,-43.65 -65.4,-174.34 130.83,-174.34 152.59,-0.02 544.91,152.57 544.92,457.72z"/>
   <path class="fil9" d="M14075.47 5424.65c-21.76,-152.59 -65.43,-283.4 -196.24,-326.91 -174.45,-87.31 -457.86,0 -654.09,130.68 -65.39,43.64 -130.81,109.06 -196.23,152.72 -108.92,130.79 -174.46,283.39 -130.8,435.97 65.54,261.61 697.72,392.45 959.23,217.98 109.08,-65.41 196.35,-283.4 218.12,-501.38 0.01,-43.65 0,-87.17 0.01,-109.06z"/>
   <path class="fil9" d="M10718.11 6471.18c-109.16,-21.77 -283.52,-43.64 -348.93,-43.64 -87.17,43.64 -261.52,327.05 -348.81,479.63 43.65,-21.79 65.3,-43.54 87.29,-43.54 174.35,-174.46 261.52,-283.52 326.93,-305.26 109.06,-43.66 414.2,108.93 457.74,-65.41 -21.63,-43.55 -87.05,-21.77 -174.22,-21.78z"/>
   <path class="fil9" d="M12527.67 5533.69c0,-130.81 87.04,-261.61 174.21,-348.9 174.48,-87.07 370.69,87.29 436.09,-65.29 -152.56,108.92 -261.63,-109.05 -457.74,0 -130.93,65.27 -218.11,283.4 -196.23,457.85 21.67,-21.89 21.65,-43.64 43.67,-43.66z"/>
  </g>
 </g>
</svg>
